%TF.GenerationSoftware,KiCad,Pcbnew,(5.1.6)-1*%
%TF.CreationDate,2020-08-23T19:38:51+02:00*%
%TF.ProjectId,opto-counter,6f70746f-2d63-46f7-956e-7465722e6b69,rev?*%
%TF.SameCoordinates,Original*%
%TF.FileFunction,Soldermask,Bot*%
%TF.FilePolarity,Negative*%
%FSLAX46Y46*%
G04 Gerber Fmt 4.6, Leading zero omitted, Abs format (unit mm)*
G04 Created by KiCad (PCBNEW (5.1.6)-1) date 2020-08-23 19:38:51*
%MOMM*%
%LPD*%
G01*
G04 APERTURE LIST*
%ADD10O,2.050000X1.800000*%
%ADD11O,1.800000X2.050000*%
%ADD12C,2.300000*%
G04 APERTURE END LIST*
%TO.C,J1*%
G36*
G01*
X48714707Y-29175001D02*
X50235295Y-29175001D01*
G75*
G02*
X50500001Y-29439707I0J-264706D01*
G01*
X50500001Y-30710295D01*
G75*
G02*
X50235295Y-30975001I-264706J0D01*
G01*
X48714707Y-30975001D01*
G75*
G02*
X48450001Y-30710295I0J264706D01*
G01*
X48450001Y-29439707D01*
G75*
G02*
X48714707Y-29175001I264706J0D01*
G01*
G37*
D10*
X49475001Y-32575001D03*
X49475001Y-35075001D03*
X49475001Y-37575001D03*
%TD*%
%TO.C,J2*%
G36*
G01*
X60100000Y-37760294D02*
X60100000Y-36239706D01*
G75*
G02*
X60364706Y-35975000I264706J0D01*
G01*
X61635294Y-35975000D01*
G75*
G02*
X61900000Y-36239706I0J-264706D01*
G01*
X61900000Y-37760294D01*
G75*
G02*
X61635294Y-38025000I-264706J0D01*
G01*
X60364706Y-38025000D01*
G75*
G02*
X60100000Y-37760294I0J264706D01*
G01*
G37*
D11*
X63500000Y-37000000D03*
X66000000Y-37000000D03*
X68500000Y-37000000D03*
%TD*%
%TO.C,J3*%
G36*
G01*
X60100000Y-30760294D02*
X60100000Y-29239706D01*
G75*
G02*
X60364706Y-28975000I264706J0D01*
G01*
X61635294Y-28975000D01*
G75*
G02*
X61900000Y-29239706I0J-264706D01*
G01*
X61900000Y-30760294D01*
G75*
G02*
X61635294Y-31025000I-264706J0D01*
G01*
X60364706Y-31025000D01*
G75*
G02*
X60100000Y-30760294I0J264706D01*
G01*
G37*
X63500000Y-30000000D03*
X66000000Y-30000000D03*
%TD*%
%TO.C,J4*%
G36*
G01*
X93760294Y-36400000D02*
X92239706Y-36400000D01*
G75*
G02*
X91975000Y-36135294I0J264706D01*
G01*
X91975000Y-34864706D01*
G75*
G02*
X92239706Y-34600000I264706J0D01*
G01*
X93760294Y-34600000D01*
G75*
G02*
X94025000Y-34864706I0J-264706D01*
G01*
X94025000Y-36135294D01*
G75*
G02*
X93760294Y-36400000I-264706J0D01*
G01*
G37*
D10*
X93000000Y-33000000D03*
X93000000Y-30500000D03*
%TD*%
D12*
%TO.C,H1*%
X87000000Y-34000000D03*
%TD*%
%TO.C,H2*%
X55000000Y-34000000D03*
%TD*%
M02*
