%TF.GenerationSoftware,KiCad,Pcbnew,(5.1.6)-1*%
%TF.CreationDate,2020-08-23T19:38:50+02:00*%
%TF.ProjectId,opto-counter,6f70746f-2d63-46f7-956e-7465722e6b69,rev?*%
%TF.SameCoordinates,Original*%
%TF.FileFunction,Copper,L2,Bot*%
%TF.FilePolarity,Positive*%
%FSLAX46Y46*%
G04 Gerber Fmt 4.6, Leading zero omitted, Abs format (unit mm)*
G04 Created by KiCad (PCBNEW (5.1.6)-1) date 2020-08-23 19:38:50*
%MOMM*%
%LPD*%
G01*
G04 APERTURE LIST*
%TA.AperFunction,ComponentPad*%
%ADD10O,1.950000X1.700000*%
%TD*%
%TA.AperFunction,ComponentPad*%
%ADD11O,1.700000X1.950000*%
%TD*%
%TA.AperFunction,ViaPad*%
%ADD12C,0.800000*%
%TD*%
%TA.AperFunction,Conductor*%
%ADD13C,0.250000*%
%TD*%
%TA.AperFunction,Conductor*%
%ADD14C,0.254000*%
%TD*%
G04 APERTURE END LIST*
%TO.P,J1,1*%
%TO.N,Net-(J1-Pad1)*%
%TA.AperFunction,ComponentPad*%
G36*
G01*
X48750001Y-29225001D02*
X50200001Y-29225001D01*
G75*
G02*
X50450001Y-29475001I0J-250000D01*
G01*
X50450001Y-30675001D01*
G75*
G02*
X50200001Y-30925001I-250000J0D01*
G01*
X48750001Y-30925001D01*
G75*
G02*
X48500001Y-30675001I0J250000D01*
G01*
X48500001Y-29475001D01*
G75*
G02*
X48750001Y-29225001I250000J0D01*
G01*
G37*
%TD.AperFunction*%
D10*
%TO.P,J1,2*%
%TO.N,Net-(J1-Pad2)*%
X49475001Y-32575001D03*
%TO.P,J1,3*%
%TO.N,Net-(J1-Pad1)*%
X49475001Y-35075001D03*
%TO.P,J1,4*%
%TO.N,Net-(J1-Pad4)*%
X49475001Y-37575001D03*
%TD*%
%TO.P,J2,1*%
%TO.N,GND*%
%TA.AperFunction,ComponentPad*%
G36*
G01*
X60150000Y-37725000D02*
X60150000Y-36275000D01*
G75*
G02*
X60400000Y-36025000I250000J0D01*
G01*
X61600000Y-36025000D01*
G75*
G02*
X61850000Y-36275000I0J-250000D01*
G01*
X61850000Y-37725000D01*
G75*
G02*
X61600000Y-37975000I-250000J0D01*
G01*
X60400000Y-37975000D01*
G75*
G02*
X60150000Y-37725000I0J250000D01*
G01*
G37*
%TD.AperFunction*%
D11*
%TO.P,J2,2*%
%TO.N,+3V3*%
X63500000Y-37000000D03*
%TO.P,J2,3*%
%TO.N,SDA*%
X66000000Y-37000000D03*
%TO.P,J2,4*%
%TO.N,SCL*%
X68500000Y-37000000D03*
%TD*%
%TO.P,J3,1*%
%TO.N,GND*%
%TA.AperFunction,ComponentPad*%
G36*
G01*
X60150000Y-30725000D02*
X60150000Y-29275000D01*
G75*
G02*
X60400000Y-29025000I250000J0D01*
G01*
X61600000Y-29025000D01*
G75*
G02*
X61850000Y-29275000I0J-250000D01*
G01*
X61850000Y-30725000D01*
G75*
G02*
X61600000Y-30975000I-250000J0D01*
G01*
X60400000Y-30975000D01*
G75*
G02*
X60150000Y-30725000I0J250000D01*
G01*
G37*
%TD.AperFunction*%
%TO.P,J3,2*%
%TO.N,+3V3*%
X63500000Y-30000000D03*
%TO.P,J3,3*%
%TO.N,UPDI*%
X66000000Y-30000000D03*
%TD*%
%TO.P,J4,1*%
%TO.N,GND*%
%TA.AperFunction,ComponentPad*%
G36*
G01*
X93725000Y-36350000D02*
X92275000Y-36350000D01*
G75*
G02*
X92025000Y-36100000I0J250000D01*
G01*
X92025000Y-34900000D01*
G75*
G02*
X92275000Y-34650000I250000J0D01*
G01*
X93725000Y-34650000D01*
G75*
G02*
X93975000Y-34900000I0J-250000D01*
G01*
X93975000Y-36100000D01*
G75*
G02*
X93725000Y-36350000I-250000J0D01*
G01*
G37*
%TD.AperFunction*%
D10*
%TO.P,J4,2*%
%TO.N,+3V3*%
X93000000Y-33000000D03*
%TO.P,J4,3*%
%TO.N,Net-(J4-Pad3)*%
X93000000Y-30500000D03*
%TD*%
D12*
%TO.N,GND*%
X81500000Y-29000000D03*
%TO.N,UPDI*%
X80000000Y-36000000D03*
%TD*%
D13*
%TO.N,UPDI*%
X74000000Y-30000000D02*
X66000000Y-30000000D01*
X80000000Y-36000000D02*
X74000000Y-30000000D01*
%TD*%
D14*
%TO.N,GND*%
G36*
X103340000Y-40340000D02*
G01*
X39660000Y-40340000D01*
X39660000Y-32575001D01*
X47857816Y-32575001D01*
X47886488Y-32866112D01*
X47971402Y-33146035D01*
X48109295Y-33404015D01*
X48294867Y-33630135D01*
X48520987Y-33815707D01*
X48538375Y-33825001D01*
X48520987Y-33834295D01*
X48294867Y-34019867D01*
X48109295Y-34245987D01*
X47971402Y-34503967D01*
X47886488Y-34783890D01*
X47857816Y-35075001D01*
X47886488Y-35366112D01*
X47971402Y-35646035D01*
X48109295Y-35904015D01*
X48294867Y-36130135D01*
X48520987Y-36315707D01*
X48538375Y-36325001D01*
X48520987Y-36334295D01*
X48294867Y-36519867D01*
X48109295Y-36745987D01*
X47971402Y-37003967D01*
X47886488Y-37283890D01*
X47857816Y-37575001D01*
X47886488Y-37866112D01*
X47971402Y-38146035D01*
X48109295Y-38404015D01*
X48294867Y-38630135D01*
X48520987Y-38815707D01*
X48778967Y-38953600D01*
X49058890Y-39038514D01*
X49277051Y-39060001D01*
X49672951Y-39060001D01*
X49891112Y-39038514D01*
X50171035Y-38953600D01*
X50429015Y-38815707D01*
X50655135Y-38630135D01*
X50840707Y-38404015D01*
X50978600Y-38146035D01*
X51030483Y-37975000D01*
X59511928Y-37975000D01*
X59524188Y-38099482D01*
X59560498Y-38219180D01*
X59619463Y-38329494D01*
X59698815Y-38426185D01*
X59795506Y-38505537D01*
X59905820Y-38564502D01*
X60025518Y-38600812D01*
X60150000Y-38613072D01*
X60714250Y-38610000D01*
X60873000Y-38451250D01*
X60873000Y-37127000D01*
X59673750Y-37127000D01*
X59515000Y-37285750D01*
X59511928Y-37975000D01*
X51030483Y-37975000D01*
X51063514Y-37866112D01*
X51092186Y-37575001D01*
X51063514Y-37283890D01*
X50978600Y-37003967D01*
X50840707Y-36745987D01*
X50655135Y-36519867D01*
X50429015Y-36334295D01*
X50411627Y-36325001D01*
X50429015Y-36315707D01*
X50655135Y-36130135D01*
X50741417Y-36025000D01*
X59511928Y-36025000D01*
X59515000Y-36714250D01*
X59673750Y-36873000D01*
X60873000Y-36873000D01*
X60873000Y-35548750D01*
X61127000Y-35548750D01*
X61127000Y-36873000D01*
X61147000Y-36873000D01*
X61147000Y-37127000D01*
X61127000Y-37127000D01*
X61127000Y-38451250D01*
X61285750Y-38610000D01*
X61850000Y-38613072D01*
X61974482Y-38600812D01*
X62094180Y-38564502D01*
X62204494Y-38505537D01*
X62301185Y-38426185D01*
X62380537Y-38329494D01*
X62439502Y-38219180D01*
X62450055Y-38184392D01*
X62670987Y-38365706D01*
X62928967Y-38503599D01*
X63208890Y-38588513D01*
X63500000Y-38617185D01*
X63791111Y-38588513D01*
X64071034Y-38503599D01*
X64329014Y-38365706D01*
X64555134Y-38180134D01*
X64740706Y-37954014D01*
X64750000Y-37936626D01*
X64759294Y-37954014D01*
X64944866Y-38180134D01*
X65170987Y-38365706D01*
X65428967Y-38503599D01*
X65708890Y-38588513D01*
X66000000Y-38617185D01*
X66291111Y-38588513D01*
X66571034Y-38503599D01*
X66829014Y-38365706D01*
X67055134Y-38180134D01*
X67240706Y-37954014D01*
X67250000Y-37936626D01*
X67259294Y-37954014D01*
X67444866Y-38180134D01*
X67670987Y-38365706D01*
X67928967Y-38503599D01*
X68208890Y-38588513D01*
X68500000Y-38617185D01*
X68791111Y-38588513D01*
X69071034Y-38503599D01*
X69329014Y-38365706D01*
X69555134Y-38180134D01*
X69740706Y-37954014D01*
X69878599Y-37696033D01*
X69963513Y-37416110D01*
X69985000Y-37197949D01*
X69985000Y-36802050D01*
X69963513Y-36583889D01*
X69878599Y-36303966D01*
X69740706Y-36045986D01*
X69555134Y-35819866D01*
X69329013Y-35634294D01*
X69071033Y-35496401D01*
X68791110Y-35411487D01*
X68500000Y-35382815D01*
X68208889Y-35411487D01*
X67928966Y-35496401D01*
X67670986Y-35634294D01*
X67444866Y-35819866D01*
X67259294Y-36045987D01*
X67250000Y-36063374D01*
X67240706Y-36045986D01*
X67055134Y-35819866D01*
X66829013Y-35634294D01*
X66571033Y-35496401D01*
X66291110Y-35411487D01*
X66000000Y-35382815D01*
X65708889Y-35411487D01*
X65428966Y-35496401D01*
X65170986Y-35634294D01*
X64944866Y-35819866D01*
X64759294Y-36045987D01*
X64750000Y-36063374D01*
X64740706Y-36045986D01*
X64555134Y-35819866D01*
X64329013Y-35634294D01*
X64071033Y-35496401D01*
X63791110Y-35411487D01*
X63500000Y-35382815D01*
X63208889Y-35411487D01*
X62928966Y-35496401D01*
X62670986Y-35634294D01*
X62450055Y-35815608D01*
X62439502Y-35780820D01*
X62380537Y-35670506D01*
X62301185Y-35573815D01*
X62204494Y-35494463D01*
X62094180Y-35435498D01*
X61974482Y-35399188D01*
X61850000Y-35386928D01*
X61285750Y-35390000D01*
X61127000Y-35548750D01*
X60873000Y-35548750D01*
X60714250Y-35390000D01*
X60150000Y-35386928D01*
X60025518Y-35399188D01*
X59905820Y-35435498D01*
X59795506Y-35494463D01*
X59698815Y-35573815D01*
X59619463Y-35670506D01*
X59560498Y-35780820D01*
X59524188Y-35900518D01*
X59511928Y-36025000D01*
X50741417Y-36025000D01*
X50840707Y-35904015D01*
X50978600Y-35646035D01*
X51063514Y-35366112D01*
X51092186Y-35075001D01*
X51063514Y-34783890D01*
X50978600Y-34503967D01*
X50840707Y-34245987D01*
X50655135Y-34019867D01*
X50429015Y-33834295D01*
X50419328Y-33829117D01*
X53265000Y-33829117D01*
X53265000Y-34170883D01*
X53331675Y-34506081D01*
X53462463Y-34821831D01*
X53652337Y-35105998D01*
X53894002Y-35347663D01*
X54178169Y-35537537D01*
X54493919Y-35668325D01*
X54829117Y-35735000D01*
X55170883Y-35735000D01*
X55506081Y-35668325D01*
X55821831Y-35537537D01*
X56105998Y-35347663D01*
X56347663Y-35105998D01*
X56537537Y-34821831D01*
X56668325Y-34506081D01*
X56735000Y-34170883D01*
X56735000Y-33829117D01*
X56668325Y-33493919D01*
X56537537Y-33178169D01*
X56347663Y-32894002D01*
X56105998Y-32652337D01*
X55821831Y-32462463D01*
X55506081Y-32331675D01*
X55170883Y-32265000D01*
X54829117Y-32265000D01*
X54493919Y-32331675D01*
X54178169Y-32462463D01*
X53894002Y-32652337D01*
X53652337Y-32894002D01*
X53462463Y-33178169D01*
X53331675Y-33493919D01*
X53265000Y-33829117D01*
X50419328Y-33829117D01*
X50411627Y-33825001D01*
X50429015Y-33815707D01*
X50655135Y-33630135D01*
X50840707Y-33404015D01*
X50978600Y-33146035D01*
X51063514Y-32866112D01*
X51092186Y-32575001D01*
X51063514Y-32283890D01*
X50978600Y-32003967D01*
X50840707Y-31745987D01*
X50655135Y-31519867D01*
X50591664Y-31467778D01*
X50693387Y-31413406D01*
X50827963Y-31302963D01*
X50938406Y-31168387D01*
X51020473Y-31014851D01*
X51032561Y-30975000D01*
X59511928Y-30975000D01*
X59524188Y-31099482D01*
X59560498Y-31219180D01*
X59619463Y-31329494D01*
X59698815Y-31426185D01*
X59795506Y-31505537D01*
X59905820Y-31564502D01*
X60025518Y-31600812D01*
X60150000Y-31613072D01*
X60714250Y-31610000D01*
X60873000Y-31451250D01*
X60873000Y-30127000D01*
X59673750Y-30127000D01*
X59515000Y-30285750D01*
X59511928Y-30975000D01*
X51032561Y-30975000D01*
X51071009Y-30848255D01*
X51088073Y-30675001D01*
X51088073Y-29475001D01*
X51071009Y-29301747D01*
X51020473Y-29135151D01*
X50961596Y-29025000D01*
X59511928Y-29025000D01*
X59515000Y-29714250D01*
X59673750Y-29873000D01*
X60873000Y-29873000D01*
X60873000Y-28548750D01*
X61127000Y-28548750D01*
X61127000Y-29873000D01*
X61147000Y-29873000D01*
X61147000Y-30127000D01*
X61127000Y-30127000D01*
X61127000Y-31451250D01*
X61285750Y-31610000D01*
X61850000Y-31613072D01*
X61974482Y-31600812D01*
X62094180Y-31564502D01*
X62204494Y-31505537D01*
X62301185Y-31426185D01*
X62380537Y-31329494D01*
X62439502Y-31219180D01*
X62450055Y-31184392D01*
X62670987Y-31365706D01*
X62928967Y-31503599D01*
X63208890Y-31588513D01*
X63500000Y-31617185D01*
X63791111Y-31588513D01*
X64071034Y-31503599D01*
X64329014Y-31365706D01*
X64555134Y-31180134D01*
X64740706Y-30954014D01*
X64750000Y-30936626D01*
X64759294Y-30954014D01*
X64944866Y-31180134D01*
X65170987Y-31365706D01*
X65428967Y-31503599D01*
X65708890Y-31588513D01*
X66000000Y-31617185D01*
X66291111Y-31588513D01*
X66571034Y-31503599D01*
X66829014Y-31365706D01*
X67055134Y-31180134D01*
X67240706Y-30954014D01*
X67344408Y-30760000D01*
X73685199Y-30760000D01*
X78965000Y-36039803D01*
X78965000Y-36101939D01*
X79004774Y-36301898D01*
X79082795Y-36490256D01*
X79196063Y-36659774D01*
X79340226Y-36803937D01*
X79509744Y-36917205D01*
X79698102Y-36995226D01*
X79898061Y-37035000D01*
X80101939Y-37035000D01*
X80301898Y-36995226D01*
X80490256Y-36917205D01*
X80659774Y-36803937D01*
X80803937Y-36659774D01*
X80917205Y-36490256D01*
X80975301Y-36350000D01*
X91386928Y-36350000D01*
X91399188Y-36474482D01*
X91435498Y-36594180D01*
X91494463Y-36704494D01*
X91573815Y-36801185D01*
X91670506Y-36880537D01*
X91780820Y-36939502D01*
X91900518Y-36975812D01*
X92025000Y-36988072D01*
X92714250Y-36985000D01*
X92873000Y-36826250D01*
X92873000Y-35627000D01*
X93127000Y-35627000D01*
X93127000Y-36826250D01*
X93285750Y-36985000D01*
X93975000Y-36988072D01*
X94099482Y-36975812D01*
X94219180Y-36939502D01*
X94329494Y-36880537D01*
X94426185Y-36801185D01*
X94505537Y-36704494D01*
X94564502Y-36594180D01*
X94600812Y-36474482D01*
X94613072Y-36350000D01*
X94610000Y-35785750D01*
X94451250Y-35627000D01*
X93127000Y-35627000D01*
X92873000Y-35627000D01*
X91548750Y-35627000D01*
X91390000Y-35785750D01*
X91386928Y-36350000D01*
X80975301Y-36350000D01*
X80995226Y-36301898D01*
X81035000Y-36101939D01*
X81035000Y-35898061D01*
X80995226Y-35698102D01*
X80917205Y-35509744D01*
X80803937Y-35340226D01*
X80659774Y-35196063D01*
X80490256Y-35082795D01*
X80301898Y-35004774D01*
X80101939Y-34965000D01*
X80039803Y-34965000D01*
X78903920Y-33829117D01*
X85265000Y-33829117D01*
X85265000Y-34170883D01*
X85331675Y-34506081D01*
X85462463Y-34821831D01*
X85652337Y-35105998D01*
X85894002Y-35347663D01*
X86178169Y-35537537D01*
X86493919Y-35668325D01*
X86829117Y-35735000D01*
X87170883Y-35735000D01*
X87506081Y-35668325D01*
X87821831Y-35537537D01*
X88105998Y-35347663D01*
X88347663Y-35105998D01*
X88537537Y-34821831D01*
X88668325Y-34506081D01*
X88735000Y-34170883D01*
X88735000Y-33829117D01*
X88668325Y-33493919D01*
X88537537Y-33178169D01*
X88347663Y-32894002D01*
X88105998Y-32652337D01*
X87821831Y-32462463D01*
X87506081Y-32331675D01*
X87170883Y-32265000D01*
X86829117Y-32265000D01*
X86493919Y-32331675D01*
X86178169Y-32462463D01*
X85894002Y-32652337D01*
X85652337Y-32894002D01*
X85462463Y-33178169D01*
X85331675Y-33493919D01*
X85265000Y-33829117D01*
X78903920Y-33829117D01*
X75574802Y-30500000D01*
X91382815Y-30500000D01*
X91411487Y-30791111D01*
X91496401Y-31071034D01*
X91634294Y-31329014D01*
X91819866Y-31555134D01*
X92045986Y-31740706D01*
X92063374Y-31750000D01*
X92045986Y-31759294D01*
X91819866Y-31944866D01*
X91634294Y-32170986D01*
X91496401Y-32428966D01*
X91411487Y-32708889D01*
X91382815Y-33000000D01*
X91411487Y-33291111D01*
X91496401Y-33571034D01*
X91634294Y-33829014D01*
X91815608Y-34049945D01*
X91780820Y-34060498D01*
X91670506Y-34119463D01*
X91573815Y-34198815D01*
X91494463Y-34295506D01*
X91435498Y-34405820D01*
X91399188Y-34525518D01*
X91386928Y-34650000D01*
X91390000Y-35214250D01*
X91548750Y-35373000D01*
X92873000Y-35373000D01*
X92873000Y-35353000D01*
X93127000Y-35353000D01*
X93127000Y-35373000D01*
X94451250Y-35373000D01*
X94610000Y-35214250D01*
X94613072Y-34650000D01*
X94600812Y-34525518D01*
X94564502Y-34405820D01*
X94505537Y-34295506D01*
X94426185Y-34198815D01*
X94329494Y-34119463D01*
X94219180Y-34060498D01*
X94184392Y-34049945D01*
X94365706Y-33829014D01*
X94503599Y-33571034D01*
X94588513Y-33291111D01*
X94617185Y-33000000D01*
X94588513Y-32708889D01*
X94503599Y-32428966D01*
X94365706Y-32170986D01*
X94180134Y-31944866D01*
X93954014Y-31759294D01*
X93936626Y-31750000D01*
X93954014Y-31740706D01*
X94180134Y-31555134D01*
X94365706Y-31329014D01*
X94503599Y-31071034D01*
X94588513Y-30791111D01*
X94617185Y-30500000D01*
X94588513Y-30208889D01*
X94503599Y-29928966D01*
X94365706Y-29670986D01*
X94180134Y-29444866D01*
X93954014Y-29259294D01*
X93696034Y-29121401D01*
X93416111Y-29036487D01*
X93197950Y-29015000D01*
X92802050Y-29015000D01*
X92583889Y-29036487D01*
X92303966Y-29121401D01*
X92045986Y-29259294D01*
X91819866Y-29444866D01*
X91634294Y-29670986D01*
X91496401Y-29928966D01*
X91411487Y-30208889D01*
X91382815Y-30500000D01*
X75574802Y-30500000D01*
X74563804Y-29489003D01*
X74540001Y-29459999D01*
X74424276Y-29365026D01*
X74292247Y-29294454D01*
X74148986Y-29250997D01*
X74037333Y-29240000D01*
X74037322Y-29240000D01*
X74000000Y-29236324D01*
X73962678Y-29240000D01*
X67344409Y-29240000D01*
X67240706Y-29045986D01*
X67055134Y-28819866D01*
X66829013Y-28634294D01*
X66571033Y-28496401D01*
X66291110Y-28411487D01*
X66000000Y-28382815D01*
X65708889Y-28411487D01*
X65428966Y-28496401D01*
X65170986Y-28634294D01*
X64944866Y-28819866D01*
X64759294Y-29045987D01*
X64750000Y-29063374D01*
X64740706Y-29045986D01*
X64555134Y-28819866D01*
X64329013Y-28634294D01*
X64071033Y-28496401D01*
X63791110Y-28411487D01*
X63500000Y-28382815D01*
X63208889Y-28411487D01*
X62928966Y-28496401D01*
X62670986Y-28634294D01*
X62450055Y-28815608D01*
X62439502Y-28780820D01*
X62380537Y-28670506D01*
X62301185Y-28573815D01*
X62204494Y-28494463D01*
X62094180Y-28435498D01*
X61974482Y-28399188D01*
X61850000Y-28386928D01*
X61285750Y-28390000D01*
X61127000Y-28548750D01*
X60873000Y-28548750D01*
X60714250Y-28390000D01*
X60150000Y-28386928D01*
X60025518Y-28399188D01*
X59905820Y-28435498D01*
X59795506Y-28494463D01*
X59698815Y-28573815D01*
X59619463Y-28670506D01*
X59560498Y-28780820D01*
X59524188Y-28900518D01*
X59511928Y-29025000D01*
X50961596Y-29025000D01*
X50938406Y-28981615D01*
X50827963Y-28847039D01*
X50693387Y-28736596D01*
X50539851Y-28654529D01*
X50373255Y-28603993D01*
X50200001Y-28586929D01*
X48750001Y-28586929D01*
X48576747Y-28603993D01*
X48410151Y-28654529D01*
X48256615Y-28736596D01*
X48122039Y-28847039D01*
X48011596Y-28981615D01*
X47929529Y-29135151D01*
X47878993Y-29301747D01*
X47861929Y-29475001D01*
X47861929Y-30675001D01*
X47878993Y-30848255D01*
X47929529Y-31014851D01*
X48011596Y-31168387D01*
X48122039Y-31302963D01*
X48256615Y-31413406D01*
X48358338Y-31467778D01*
X48294867Y-31519867D01*
X48109295Y-31745987D01*
X47971402Y-32003967D01*
X47886488Y-32283890D01*
X47857816Y-32575001D01*
X39660000Y-32575001D01*
X39660000Y-26660000D01*
X103340001Y-26660000D01*
X103340000Y-40340000D01*
G37*
X103340000Y-40340000D02*
X39660000Y-40340000D01*
X39660000Y-32575001D01*
X47857816Y-32575001D01*
X47886488Y-32866112D01*
X47971402Y-33146035D01*
X48109295Y-33404015D01*
X48294867Y-33630135D01*
X48520987Y-33815707D01*
X48538375Y-33825001D01*
X48520987Y-33834295D01*
X48294867Y-34019867D01*
X48109295Y-34245987D01*
X47971402Y-34503967D01*
X47886488Y-34783890D01*
X47857816Y-35075001D01*
X47886488Y-35366112D01*
X47971402Y-35646035D01*
X48109295Y-35904015D01*
X48294867Y-36130135D01*
X48520987Y-36315707D01*
X48538375Y-36325001D01*
X48520987Y-36334295D01*
X48294867Y-36519867D01*
X48109295Y-36745987D01*
X47971402Y-37003967D01*
X47886488Y-37283890D01*
X47857816Y-37575001D01*
X47886488Y-37866112D01*
X47971402Y-38146035D01*
X48109295Y-38404015D01*
X48294867Y-38630135D01*
X48520987Y-38815707D01*
X48778967Y-38953600D01*
X49058890Y-39038514D01*
X49277051Y-39060001D01*
X49672951Y-39060001D01*
X49891112Y-39038514D01*
X50171035Y-38953600D01*
X50429015Y-38815707D01*
X50655135Y-38630135D01*
X50840707Y-38404015D01*
X50978600Y-38146035D01*
X51030483Y-37975000D01*
X59511928Y-37975000D01*
X59524188Y-38099482D01*
X59560498Y-38219180D01*
X59619463Y-38329494D01*
X59698815Y-38426185D01*
X59795506Y-38505537D01*
X59905820Y-38564502D01*
X60025518Y-38600812D01*
X60150000Y-38613072D01*
X60714250Y-38610000D01*
X60873000Y-38451250D01*
X60873000Y-37127000D01*
X59673750Y-37127000D01*
X59515000Y-37285750D01*
X59511928Y-37975000D01*
X51030483Y-37975000D01*
X51063514Y-37866112D01*
X51092186Y-37575001D01*
X51063514Y-37283890D01*
X50978600Y-37003967D01*
X50840707Y-36745987D01*
X50655135Y-36519867D01*
X50429015Y-36334295D01*
X50411627Y-36325001D01*
X50429015Y-36315707D01*
X50655135Y-36130135D01*
X50741417Y-36025000D01*
X59511928Y-36025000D01*
X59515000Y-36714250D01*
X59673750Y-36873000D01*
X60873000Y-36873000D01*
X60873000Y-35548750D01*
X61127000Y-35548750D01*
X61127000Y-36873000D01*
X61147000Y-36873000D01*
X61147000Y-37127000D01*
X61127000Y-37127000D01*
X61127000Y-38451250D01*
X61285750Y-38610000D01*
X61850000Y-38613072D01*
X61974482Y-38600812D01*
X62094180Y-38564502D01*
X62204494Y-38505537D01*
X62301185Y-38426185D01*
X62380537Y-38329494D01*
X62439502Y-38219180D01*
X62450055Y-38184392D01*
X62670987Y-38365706D01*
X62928967Y-38503599D01*
X63208890Y-38588513D01*
X63500000Y-38617185D01*
X63791111Y-38588513D01*
X64071034Y-38503599D01*
X64329014Y-38365706D01*
X64555134Y-38180134D01*
X64740706Y-37954014D01*
X64750000Y-37936626D01*
X64759294Y-37954014D01*
X64944866Y-38180134D01*
X65170987Y-38365706D01*
X65428967Y-38503599D01*
X65708890Y-38588513D01*
X66000000Y-38617185D01*
X66291111Y-38588513D01*
X66571034Y-38503599D01*
X66829014Y-38365706D01*
X67055134Y-38180134D01*
X67240706Y-37954014D01*
X67250000Y-37936626D01*
X67259294Y-37954014D01*
X67444866Y-38180134D01*
X67670987Y-38365706D01*
X67928967Y-38503599D01*
X68208890Y-38588513D01*
X68500000Y-38617185D01*
X68791111Y-38588513D01*
X69071034Y-38503599D01*
X69329014Y-38365706D01*
X69555134Y-38180134D01*
X69740706Y-37954014D01*
X69878599Y-37696033D01*
X69963513Y-37416110D01*
X69985000Y-37197949D01*
X69985000Y-36802050D01*
X69963513Y-36583889D01*
X69878599Y-36303966D01*
X69740706Y-36045986D01*
X69555134Y-35819866D01*
X69329013Y-35634294D01*
X69071033Y-35496401D01*
X68791110Y-35411487D01*
X68500000Y-35382815D01*
X68208889Y-35411487D01*
X67928966Y-35496401D01*
X67670986Y-35634294D01*
X67444866Y-35819866D01*
X67259294Y-36045987D01*
X67250000Y-36063374D01*
X67240706Y-36045986D01*
X67055134Y-35819866D01*
X66829013Y-35634294D01*
X66571033Y-35496401D01*
X66291110Y-35411487D01*
X66000000Y-35382815D01*
X65708889Y-35411487D01*
X65428966Y-35496401D01*
X65170986Y-35634294D01*
X64944866Y-35819866D01*
X64759294Y-36045987D01*
X64750000Y-36063374D01*
X64740706Y-36045986D01*
X64555134Y-35819866D01*
X64329013Y-35634294D01*
X64071033Y-35496401D01*
X63791110Y-35411487D01*
X63500000Y-35382815D01*
X63208889Y-35411487D01*
X62928966Y-35496401D01*
X62670986Y-35634294D01*
X62450055Y-35815608D01*
X62439502Y-35780820D01*
X62380537Y-35670506D01*
X62301185Y-35573815D01*
X62204494Y-35494463D01*
X62094180Y-35435498D01*
X61974482Y-35399188D01*
X61850000Y-35386928D01*
X61285750Y-35390000D01*
X61127000Y-35548750D01*
X60873000Y-35548750D01*
X60714250Y-35390000D01*
X60150000Y-35386928D01*
X60025518Y-35399188D01*
X59905820Y-35435498D01*
X59795506Y-35494463D01*
X59698815Y-35573815D01*
X59619463Y-35670506D01*
X59560498Y-35780820D01*
X59524188Y-35900518D01*
X59511928Y-36025000D01*
X50741417Y-36025000D01*
X50840707Y-35904015D01*
X50978600Y-35646035D01*
X51063514Y-35366112D01*
X51092186Y-35075001D01*
X51063514Y-34783890D01*
X50978600Y-34503967D01*
X50840707Y-34245987D01*
X50655135Y-34019867D01*
X50429015Y-33834295D01*
X50419328Y-33829117D01*
X53265000Y-33829117D01*
X53265000Y-34170883D01*
X53331675Y-34506081D01*
X53462463Y-34821831D01*
X53652337Y-35105998D01*
X53894002Y-35347663D01*
X54178169Y-35537537D01*
X54493919Y-35668325D01*
X54829117Y-35735000D01*
X55170883Y-35735000D01*
X55506081Y-35668325D01*
X55821831Y-35537537D01*
X56105998Y-35347663D01*
X56347663Y-35105998D01*
X56537537Y-34821831D01*
X56668325Y-34506081D01*
X56735000Y-34170883D01*
X56735000Y-33829117D01*
X56668325Y-33493919D01*
X56537537Y-33178169D01*
X56347663Y-32894002D01*
X56105998Y-32652337D01*
X55821831Y-32462463D01*
X55506081Y-32331675D01*
X55170883Y-32265000D01*
X54829117Y-32265000D01*
X54493919Y-32331675D01*
X54178169Y-32462463D01*
X53894002Y-32652337D01*
X53652337Y-32894002D01*
X53462463Y-33178169D01*
X53331675Y-33493919D01*
X53265000Y-33829117D01*
X50419328Y-33829117D01*
X50411627Y-33825001D01*
X50429015Y-33815707D01*
X50655135Y-33630135D01*
X50840707Y-33404015D01*
X50978600Y-33146035D01*
X51063514Y-32866112D01*
X51092186Y-32575001D01*
X51063514Y-32283890D01*
X50978600Y-32003967D01*
X50840707Y-31745987D01*
X50655135Y-31519867D01*
X50591664Y-31467778D01*
X50693387Y-31413406D01*
X50827963Y-31302963D01*
X50938406Y-31168387D01*
X51020473Y-31014851D01*
X51032561Y-30975000D01*
X59511928Y-30975000D01*
X59524188Y-31099482D01*
X59560498Y-31219180D01*
X59619463Y-31329494D01*
X59698815Y-31426185D01*
X59795506Y-31505537D01*
X59905820Y-31564502D01*
X60025518Y-31600812D01*
X60150000Y-31613072D01*
X60714250Y-31610000D01*
X60873000Y-31451250D01*
X60873000Y-30127000D01*
X59673750Y-30127000D01*
X59515000Y-30285750D01*
X59511928Y-30975000D01*
X51032561Y-30975000D01*
X51071009Y-30848255D01*
X51088073Y-30675001D01*
X51088073Y-29475001D01*
X51071009Y-29301747D01*
X51020473Y-29135151D01*
X50961596Y-29025000D01*
X59511928Y-29025000D01*
X59515000Y-29714250D01*
X59673750Y-29873000D01*
X60873000Y-29873000D01*
X60873000Y-28548750D01*
X61127000Y-28548750D01*
X61127000Y-29873000D01*
X61147000Y-29873000D01*
X61147000Y-30127000D01*
X61127000Y-30127000D01*
X61127000Y-31451250D01*
X61285750Y-31610000D01*
X61850000Y-31613072D01*
X61974482Y-31600812D01*
X62094180Y-31564502D01*
X62204494Y-31505537D01*
X62301185Y-31426185D01*
X62380537Y-31329494D01*
X62439502Y-31219180D01*
X62450055Y-31184392D01*
X62670987Y-31365706D01*
X62928967Y-31503599D01*
X63208890Y-31588513D01*
X63500000Y-31617185D01*
X63791111Y-31588513D01*
X64071034Y-31503599D01*
X64329014Y-31365706D01*
X64555134Y-31180134D01*
X64740706Y-30954014D01*
X64750000Y-30936626D01*
X64759294Y-30954014D01*
X64944866Y-31180134D01*
X65170987Y-31365706D01*
X65428967Y-31503599D01*
X65708890Y-31588513D01*
X66000000Y-31617185D01*
X66291111Y-31588513D01*
X66571034Y-31503599D01*
X66829014Y-31365706D01*
X67055134Y-31180134D01*
X67240706Y-30954014D01*
X67344408Y-30760000D01*
X73685199Y-30760000D01*
X78965000Y-36039803D01*
X78965000Y-36101939D01*
X79004774Y-36301898D01*
X79082795Y-36490256D01*
X79196063Y-36659774D01*
X79340226Y-36803937D01*
X79509744Y-36917205D01*
X79698102Y-36995226D01*
X79898061Y-37035000D01*
X80101939Y-37035000D01*
X80301898Y-36995226D01*
X80490256Y-36917205D01*
X80659774Y-36803937D01*
X80803937Y-36659774D01*
X80917205Y-36490256D01*
X80975301Y-36350000D01*
X91386928Y-36350000D01*
X91399188Y-36474482D01*
X91435498Y-36594180D01*
X91494463Y-36704494D01*
X91573815Y-36801185D01*
X91670506Y-36880537D01*
X91780820Y-36939502D01*
X91900518Y-36975812D01*
X92025000Y-36988072D01*
X92714250Y-36985000D01*
X92873000Y-36826250D01*
X92873000Y-35627000D01*
X93127000Y-35627000D01*
X93127000Y-36826250D01*
X93285750Y-36985000D01*
X93975000Y-36988072D01*
X94099482Y-36975812D01*
X94219180Y-36939502D01*
X94329494Y-36880537D01*
X94426185Y-36801185D01*
X94505537Y-36704494D01*
X94564502Y-36594180D01*
X94600812Y-36474482D01*
X94613072Y-36350000D01*
X94610000Y-35785750D01*
X94451250Y-35627000D01*
X93127000Y-35627000D01*
X92873000Y-35627000D01*
X91548750Y-35627000D01*
X91390000Y-35785750D01*
X91386928Y-36350000D01*
X80975301Y-36350000D01*
X80995226Y-36301898D01*
X81035000Y-36101939D01*
X81035000Y-35898061D01*
X80995226Y-35698102D01*
X80917205Y-35509744D01*
X80803937Y-35340226D01*
X80659774Y-35196063D01*
X80490256Y-35082795D01*
X80301898Y-35004774D01*
X80101939Y-34965000D01*
X80039803Y-34965000D01*
X78903920Y-33829117D01*
X85265000Y-33829117D01*
X85265000Y-34170883D01*
X85331675Y-34506081D01*
X85462463Y-34821831D01*
X85652337Y-35105998D01*
X85894002Y-35347663D01*
X86178169Y-35537537D01*
X86493919Y-35668325D01*
X86829117Y-35735000D01*
X87170883Y-35735000D01*
X87506081Y-35668325D01*
X87821831Y-35537537D01*
X88105998Y-35347663D01*
X88347663Y-35105998D01*
X88537537Y-34821831D01*
X88668325Y-34506081D01*
X88735000Y-34170883D01*
X88735000Y-33829117D01*
X88668325Y-33493919D01*
X88537537Y-33178169D01*
X88347663Y-32894002D01*
X88105998Y-32652337D01*
X87821831Y-32462463D01*
X87506081Y-32331675D01*
X87170883Y-32265000D01*
X86829117Y-32265000D01*
X86493919Y-32331675D01*
X86178169Y-32462463D01*
X85894002Y-32652337D01*
X85652337Y-32894002D01*
X85462463Y-33178169D01*
X85331675Y-33493919D01*
X85265000Y-33829117D01*
X78903920Y-33829117D01*
X75574802Y-30500000D01*
X91382815Y-30500000D01*
X91411487Y-30791111D01*
X91496401Y-31071034D01*
X91634294Y-31329014D01*
X91819866Y-31555134D01*
X92045986Y-31740706D01*
X92063374Y-31750000D01*
X92045986Y-31759294D01*
X91819866Y-31944866D01*
X91634294Y-32170986D01*
X91496401Y-32428966D01*
X91411487Y-32708889D01*
X91382815Y-33000000D01*
X91411487Y-33291111D01*
X91496401Y-33571034D01*
X91634294Y-33829014D01*
X91815608Y-34049945D01*
X91780820Y-34060498D01*
X91670506Y-34119463D01*
X91573815Y-34198815D01*
X91494463Y-34295506D01*
X91435498Y-34405820D01*
X91399188Y-34525518D01*
X91386928Y-34650000D01*
X91390000Y-35214250D01*
X91548750Y-35373000D01*
X92873000Y-35373000D01*
X92873000Y-35353000D01*
X93127000Y-35353000D01*
X93127000Y-35373000D01*
X94451250Y-35373000D01*
X94610000Y-35214250D01*
X94613072Y-34650000D01*
X94600812Y-34525518D01*
X94564502Y-34405820D01*
X94505537Y-34295506D01*
X94426185Y-34198815D01*
X94329494Y-34119463D01*
X94219180Y-34060498D01*
X94184392Y-34049945D01*
X94365706Y-33829014D01*
X94503599Y-33571034D01*
X94588513Y-33291111D01*
X94617185Y-33000000D01*
X94588513Y-32708889D01*
X94503599Y-32428966D01*
X94365706Y-32170986D01*
X94180134Y-31944866D01*
X93954014Y-31759294D01*
X93936626Y-31750000D01*
X93954014Y-31740706D01*
X94180134Y-31555134D01*
X94365706Y-31329014D01*
X94503599Y-31071034D01*
X94588513Y-30791111D01*
X94617185Y-30500000D01*
X94588513Y-30208889D01*
X94503599Y-29928966D01*
X94365706Y-29670986D01*
X94180134Y-29444866D01*
X93954014Y-29259294D01*
X93696034Y-29121401D01*
X93416111Y-29036487D01*
X93197950Y-29015000D01*
X92802050Y-29015000D01*
X92583889Y-29036487D01*
X92303966Y-29121401D01*
X92045986Y-29259294D01*
X91819866Y-29444866D01*
X91634294Y-29670986D01*
X91496401Y-29928966D01*
X91411487Y-30208889D01*
X91382815Y-30500000D01*
X75574802Y-30500000D01*
X74563804Y-29489003D01*
X74540001Y-29459999D01*
X74424276Y-29365026D01*
X74292247Y-29294454D01*
X74148986Y-29250997D01*
X74037333Y-29240000D01*
X74037322Y-29240000D01*
X74000000Y-29236324D01*
X73962678Y-29240000D01*
X67344409Y-29240000D01*
X67240706Y-29045986D01*
X67055134Y-28819866D01*
X66829013Y-28634294D01*
X66571033Y-28496401D01*
X66291110Y-28411487D01*
X66000000Y-28382815D01*
X65708889Y-28411487D01*
X65428966Y-28496401D01*
X65170986Y-28634294D01*
X64944866Y-28819866D01*
X64759294Y-29045987D01*
X64750000Y-29063374D01*
X64740706Y-29045986D01*
X64555134Y-28819866D01*
X64329013Y-28634294D01*
X64071033Y-28496401D01*
X63791110Y-28411487D01*
X63500000Y-28382815D01*
X63208889Y-28411487D01*
X62928966Y-28496401D01*
X62670986Y-28634294D01*
X62450055Y-28815608D01*
X62439502Y-28780820D01*
X62380537Y-28670506D01*
X62301185Y-28573815D01*
X62204494Y-28494463D01*
X62094180Y-28435498D01*
X61974482Y-28399188D01*
X61850000Y-28386928D01*
X61285750Y-28390000D01*
X61127000Y-28548750D01*
X60873000Y-28548750D01*
X60714250Y-28390000D01*
X60150000Y-28386928D01*
X60025518Y-28399188D01*
X59905820Y-28435498D01*
X59795506Y-28494463D01*
X59698815Y-28573815D01*
X59619463Y-28670506D01*
X59560498Y-28780820D01*
X59524188Y-28900518D01*
X59511928Y-29025000D01*
X50961596Y-29025000D01*
X50938406Y-28981615D01*
X50827963Y-28847039D01*
X50693387Y-28736596D01*
X50539851Y-28654529D01*
X50373255Y-28603993D01*
X50200001Y-28586929D01*
X48750001Y-28586929D01*
X48576747Y-28603993D01*
X48410151Y-28654529D01*
X48256615Y-28736596D01*
X48122039Y-28847039D01*
X48011596Y-28981615D01*
X47929529Y-29135151D01*
X47878993Y-29301747D01*
X47861929Y-29475001D01*
X47861929Y-30675001D01*
X47878993Y-30848255D01*
X47929529Y-31014851D01*
X48011596Y-31168387D01*
X48122039Y-31302963D01*
X48256615Y-31413406D01*
X48358338Y-31467778D01*
X48294867Y-31519867D01*
X48109295Y-31745987D01*
X47971402Y-32003967D01*
X47886488Y-32283890D01*
X47857816Y-32575001D01*
X39660000Y-32575001D01*
X39660000Y-26660000D01*
X103340001Y-26660000D01*
X103340000Y-40340000D01*
%TD*%
M02*
