%TF.GenerationSoftware,KiCad,Pcbnew,(5.1.6)-1*%
%TF.CreationDate,2020-08-23T19:38:50+02:00*%
%TF.ProjectId,opto-counter,6f70746f-2d63-46f7-956e-7465722e6b69,rev?*%
%TF.SameCoordinates,Original*%
%TF.FileFunction,Legend,Top*%
%TF.FilePolarity,Positive*%
%FSLAX46Y46*%
G04 Gerber Fmt 4.6, Leading zero omitted, Abs format (unit mm)*
G04 Created by KiCad (PCBNEW (5.1.6)-1) date 2020-08-23 19:38:50*
%MOMM*%
%LPD*%
G01*
G04 APERTURE LIST*
%ADD10C,0.200000*%
%ADD11C,0.120000*%
%ADD12C,0.150000*%
G04 APERTURE END LIST*
D10*
X102850000Y-38085714D02*
X102811904Y-38161904D01*
X102811904Y-38276190D01*
X102850000Y-38390476D01*
X102926190Y-38466666D01*
X103002380Y-38504761D01*
X103154761Y-38542857D01*
X103269047Y-38542857D01*
X103421428Y-38504761D01*
X103497619Y-38466666D01*
X103573809Y-38390476D01*
X103611904Y-38276190D01*
X103611904Y-38200000D01*
X103573809Y-38085714D01*
X103535714Y-38047619D01*
X103269047Y-38047619D01*
X103269047Y-38200000D01*
X103611904Y-37704761D02*
X102811904Y-37704761D01*
X103611904Y-37247619D01*
X102811904Y-37247619D01*
X103611904Y-36866666D02*
X102811904Y-36866666D01*
X102811904Y-36676190D01*
X102850000Y-36561904D01*
X102926190Y-36485714D01*
X103002380Y-36447619D01*
X103154761Y-36409523D01*
X103269047Y-36409523D01*
X103421428Y-36447619D01*
X103497619Y-36485714D01*
X103573809Y-36561904D01*
X103611904Y-36676190D01*
X103611904Y-36866666D01*
X103878571Y-35266666D02*
X102735714Y-35266666D01*
X102811904Y-34161904D02*
X102811904Y-33666666D01*
X103116666Y-33933333D01*
X103116666Y-33819047D01*
X103154761Y-33742857D01*
X103192857Y-33704761D01*
X103269047Y-33666666D01*
X103459523Y-33666666D01*
X103535714Y-33704761D01*
X103573809Y-33742857D01*
X103611904Y-33819047D01*
X103611904Y-34047619D01*
X103573809Y-34123809D01*
X103535714Y-34161904D01*
X102811904Y-33438095D02*
X103611904Y-33171428D01*
X102811904Y-32904761D01*
X102811904Y-32714285D02*
X102811904Y-32219047D01*
X103116666Y-32485714D01*
X103116666Y-32371428D01*
X103154761Y-32295238D01*
X103192857Y-32257142D01*
X103269047Y-32219047D01*
X103459523Y-32219047D01*
X103535714Y-32257142D01*
X103573809Y-32295238D01*
X103611904Y-32371428D01*
X103611904Y-32600000D01*
X103573809Y-32676190D01*
X103535714Y-32714285D01*
X103878571Y-31076190D02*
X102735714Y-31076190D01*
X103611904Y-29895238D02*
X102811904Y-29895238D01*
X102811904Y-29704761D01*
X102850000Y-29590476D01*
X102926190Y-29514285D01*
X103002380Y-29476190D01*
X103154761Y-29438095D01*
X103269047Y-29438095D01*
X103421428Y-29476190D01*
X103497619Y-29514285D01*
X103573809Y-29590476D01*
X103611904Y-29704761D01*
X103611904Y-29895238D01*
X103383333Y-29133333D02*
X103383333Y-28752380D01*
X103611904Y-29209523D02*
X102811904Y-28942857D01*
X103611904Y-28676190D01*
X102811904Y-28523809D02*
X102811904Y-28066666D01*
X103611904Y-28295238D02*
X102811904Y-28295238D01*
X103383333Y-27838095D02*
X103383333Y-27457142D01*
X103611904Y-27914285D02*
X102811904Y-27647619D01*
X103611904Y-27380952D01*
X58395238Y-26350000D02*
X58319047Y-26311904D01*
X58204761Y-26311904D01*
X58090476Y-26350000D01*
X58014285Y-26426190D01*
X57976190Y-26502380D01*
X57938095Y-26654761D01*
X57938095Y-26769047D01*
X57976190Y-26921428D01*
X58014285Y-26997619D01*
X58090476Y-27073809D01*
X58204761Y-27111904D01*
X58280952Y-27111904D01*
X58395238Y-27073809D01*
X58433333Y-27035714D01*
X58433333Y-26769047D01*
X58280952Y-26769047D01*
X58776190Y-27111904D02*
X58776190Y-26311904D01*
X59233333Y-27111904D01*
X59233333Y-26311904D01*
X59614285Y-27111904D02*
X59614285Y-26311904D01*
X59804761Y-26311904D01*
X59919047Y-26350000D01*
X59995238Y-26426190D01*
X60033333Y-26502380D01*
X60071428Y-26654761D01*
X60071428Y-26769047D01*
X60033333Y-26921428D01*
X59995238Y-26997619D01*
X59919047Y-27073809D01*
X59804761Y-27111904D01*
X59614285Y-27111904D01*
X61214285Y-27378571D02*
X61214285Y-26235714D01*
X62319047Y-26311904D02*
X62814285Y-26311904D01*
X62547619Y-26616666D01*
X62661904Y-26616666D01*
X62738095Y-26654761D01*
X62776190Y-26692857D01*
X62814285Y-26769047D01*
X62814285Y-26959523D01*
X62776190Y-27035714D01*
X62738095Y-27073809D01*
X62661904Y-27111904D01*
X62433333Y-27111904D01*
X62357142Y-27073809D01*
X62319047Y-27035714D01*
X63042857Y-26311904D02*
X63309523Y-27111904D01*
X63576190Y-26311904D01*
X63766666Y-26311904D02*
X64261904Y-26311904D01*
X63995238Y-26616666D01*
X64109523Y-26616666D01*
X64185714Y-26654761D01*
X64223809Y-26692857D01*
X64261904Y-26769047D01*
X64261904Y-26959523D01*
X64223809Y-27035714D01*
X64185714Y-27073809D01*
X64109523Y-27111904D01*
X63880952Y-27111904D01*
X63804761Y-27073809D01*
X63766666Y-27035714D01*
X65404761Y-27378571D02*
X65404761Y-26235714D01*
X66585714Y-26311904D02*
X66585714Y-26959523D01*
X66623809Y-27035714D01*
X66661904Y-27073809D01*
X66738095Y-27111904D01*
X66890476Y-27111904D01*
X66966666Y-27073809D01*
X67004761Y-27035714D01*
X67042857Y-26959523D01*
X67042857Y-26311904D01*
X67423809Y-27111904D02*
X67423809Y-26311904D01*
X67728571Y-26311904D01*
X67804761Y-26350000D01*
X67842857Y-26388095D01*
X67880952Y-26464285D01*
X67880952Y-26578571D01*
X67842857Y-26654761D01*
X67804761Y-26692857D01*
X67728571Y-26730952D01*
X67423809Y-26730952D01*
X68223809Y-27111904D02*
X68223809Y-26311904D01*
X68414285Y-26311904D01*
X68528571Y-26350000D01*
X68604761Y-26426190D01*
X68642857Y-26502380D01*
X68680952Y-26654761D01*
X68680952Y-26769047D01*
X68642857Y-26921428D01*
X68604761Y-26997619D01*
X68528571Y-27073809D01*
X68414285Y-27111904D01*
X68223809Y-27111904D01*
X69023809Y-27111904D02*
X69023809Y-26311904D01*
D11*
%TO.C,C1*%
X79397936Y-29910000D02*
X80602064Y-29910000D01*
X79397936Y-28090000D02*
X80602064Y-28090000D01*
%TO.C,J1*%
X51575001Y-30375001D02*
X50975001Y-30075001D01*
X51575001Y-29775001D02*
X51575001Y-30375001D01*
X50975001Y-30075001D02*
X51575001Y-29775001D01*
X46275001Y-37825001D02*
X46275001Y-37325001D01*
X40775001Y-37825001D02*
X46275001Y-37825001D01*
X40775001Y-37325001D02*
X40775001Y-37825001D01*
X46275001Y-37325001D02*
X40775001Y-37325001D01*
X46275001Y-35325001D02*
X46275001Y-34825001D01*
X40775001Y-35325001D02*
X46275001Y-35325001D01*
X40775001Y-34825001D02*
X40775001Y-35325001D01*
X46275001Y-34825001D02*
X40775001Y-34825001D01*
X46275001Y-32825001D02*
X46275001Y-32325001D01*
X40775001Y-32825001D02*
X46275001Y-32825001D01*
X40775001Y-32325001D02*
X40775001Y-32825001D01*
X46275001Y-32325001D02*
X40775001Y-32325001D01*
X46275001Y-30325001D02*
X46275001Y-29825001D01*
X40775001Y-30325001D02*
X46275001Y-30325001D01*
X40775001Y-29825001D02*
X40775001Y-30325001D01*
X46275001Y-29825001D02*
X40775001Y-29825001D01*
X47385001Y-38715001D02*
X47385001Y-33825001D01*
X51885001Y-38715001D02*
X47385001Y-38715001D01*
X51885001Y-40135001D02*
X51885001Y-38715001D01*
X40165001Y-40135001D02*
X51885001Y-40135001D01*
X40165001Y-33825001D02*
X40165001Y-40135001D01*
X47385001Y-28935001D02*
X47385001Y-33825001D01*
X51885001Y-28935001D02*
X47385001Y-28935001D01*
X51885001Y-27515001D02*
X51885001Y-28935001D01*
X40165001Y-27515001D02*
X51885001Y-27515001D01*
X40165001Y-33825001D02*
X40165001Y-27515001D01*
%TO.C,J2*%
X58150000Y-34250000D02*
X58150000Y-35500000D01*
X59400000Y-34250000D02*
X58150000Y-34250000D01*
X70300000Y-39750000D02*
X64750000Y-39750000D01*
X70300000Y-36800000D02*
X70300000Y-39750000D01*
X71050000Y-36800000D02*
X70300000Y-36800000D01*
X59200000Y-39750000D02*
X64750000Y-39750000D01*
X59200000Y-36800000D02*
X59200000Y-39750000D01*
X58450000Y-36800000D02*
X59200000Y-36800000D01*
X71050000Y-34550000D02*
X69250000Y-34550000D01*
X71050000Y-35300000D02*
X71050000Y-34550000D01*
X69250000Y-35300000D02*
X71050000Y-35300000D01*
X69250000Y-34550000D02*
X69250000Y-35300000D01*
X60250000Y-34550000D02*
X58450000Y-34550000D01*
X60250000Y-35300000D02*
X60250000Y-34550000D01*
X58450000Y-35300000D02*
X60250000Y-35300000D01*
X58450000Y-34550000D02*
X58450000Y-35300000D01*
X67750000Y-34550000D02*
X61750000Y-34550000D01*
X67750000Y-35300000D02*
X67750000Y-34550000D01*
X61750000Y-35300000D02*
X67750000Y-35300000D01*
X61750000Y-34550000D02*
X61750000Y-35300000D01*
X71060000Y-34540000D02*
X58440000Y-34540000D01*
X71060000Y-40510000D02*
X71060000Y-34540000D01*
X58440000Y-40510000D02*
X71060000Y-40510000D01*
X58440000Y-34540000D02*
X58440000Y-40510000D01*
%TO.C,J3*%
X58150000Y-27250000D02*
X58150000Y-28500000D01*
X59400000Y-27250000D02*
X58150000Y-27250000D01*
X67800000Y-32750000D02*
X63500000Y-32750000D01*
X67800000Y-29800000D02*
X67800000Y-32750000D01*
X68550000Y-29800000D02*
X67800000Y-29800000D01*
X59200000Y-32750000D02*
X63500000Y-32750000D01*
X59200000Y-29800000D02*
X59200000Y-32750000D01*
X58450000Y-29800000D02*
X59200000Y-29800000D01*
X68550000Y-27550000D02*
X66750000Y-27550000D01*
X68550000Y-28300000D02*
X68550000Y-27550000D01*
X66750000Y-28300000D02*
X68550000Y-28300000D01*
X66750000Y-27550000D02*
X66750000Y-28300000D01*
X60250000Y-27550000D02*
X58450000Y-27550000D01*
X60250000Y-28300000D02*
X60250000Y-27550000D01*
X58450000Y-28300000D02*
X60250000Y-28300000D01*
X58450000Y-27550000D02*
X58450000Y-28300000D01*
X65250000Y-27550000D02*
X61750000Y-27550000D01*
X65250000Y-28300000D02*
X65250000Y-27550000D01*
X61750000Y-28300000D02*
X65250000Y-28300000D01*
X61750000Y-27550000D02*
X61750000Y-28300000D01*
X68560000Y-27540000D02*
X58440000Y-27540000D01*
X68560000Y-33510000D02*
X68560000Y-27540000D01*
X58440000Y-33510000D02*
X68560000Y-33510000D01*
X58440000Y-27540000D02*
X58440000Y-33510000D01*
%TO.C,J4*%
X90900000Y-35200000D02*
X91500000Y-35500000D01*
X90900000Y-35800000D02*
X90900000Y-35200000D01*
X91500000Y-35500000D02*
X90900000Y-35800000D01*
X96200000Y-30250000D02*
X96200000Y-30750000D01*
X101700000Y-30250000D02*
X96200000Y-30250000D01*
X101700000Y-30750000D02*
X101700000Y-30250000D01*
X96200000Y-30750000D02*
X101700000Y-30750000D01*
X96200000Y-32750000D02*
X96200000Y-33250000D01*
X101700000Y-32750000D02*
X96200000Y-32750000D01*
X101700000Y-33250000D02*
X101700000Y-32750000D01*
X96200000Y-33250000D02*
X101700000Y-33250000D01*
X96200000Y-35250000D02*
X96200000Y-35750000D01*
X101700000Y-35250000D02*
X96200000Y-35250000D01*
X101700000Y-35750000D02*
X101700000Y-35250000D01*
X96200000Y-35750000D02*
X101700000Y-35750000D01*
X95090000Y-29360000D02*
X95090000Y-33000000D01*
X90590000Y-29360000D02*
X95090000Y-29360000D01*
X90590000Y-27940000D02*
X90590000Y-29360000D01*
X102310000Y-27940000D02*
X90590000Y-27940000D01*
X102310000Y-33000000D02*
X102310000Y-27940000D01*
X95090000Y-36640000D02*
X95090000Y-33000000D01*
X90590000Y-36640000D02*
X95090000Y-36640000D01*
X90590000Y-38060000D02*
X90590000Y-36640000D01*
X102310000Y-38060000D02*
X90590000Y-38060000D01*
X102310000Y-33000000D02*
X102310000Y-38060000D01*
%TO.C,R1*%
X70090000Y-29397936D02*
X70090000Y-30602064D01*
X71910000Y-29397936D02*
X71910000Y-30602064D01*
%TO.C,R2*%
X73910000Y-38089564D02*
X73910000Y-36885436D01*
X72090000Y-38089564D02*
X72090000Y-36885436D01*
%TO.C,R3*%
X74910000Y-29397936D02*
X74910000Y-30602064D01*
X73090000Y-29397936D02*
X73090000Y-30602064D01*
%TO.C,U1*%
X80000000Y-30565000D02*
X76550000Y-30565000D01*
X80000000Y-30565000D02*
X81950000Y-30565000D01*
X80000000Y-39435000D02*
X78050000Y-39435000D01*
X80000000Y-39435000D02*
X81950000Y-39435000D01*
%TO.C,C1*%
D12*
X79833333Y-27537142D02*
X79785714Y-27584761D01*
X79642857Y-27632380D01*
X79547619Y-27632380D01*
X79404761Y-27584761D01*
X79309523Y-27489523D01*
X79261904Y-27394285D01*
X79214285Y-27203809D01*
X79214285Y-27060952D01*
X79261904Y-26870476D01*
X79309523Y-26775238D01*
X79404761Y-26680000D01*
X79547619Y-26632380D01*
X79642857Y-26632380D01*
X79785714Y-26680000D01*
X79833333Y-26727619D01*
X80785714Y-27632380D02*
X80214285Y-27632380D01*
X80500000Y-27632380D02*
X80500000Y-26632380D01*
X80404761Y-26775238D01*
X80309523Y-26870476D01*
X80214285Y-26918095D01*
%TO.C,J1*%
X53166666Y-27452380D02*
X53166666Y-28166666D01*
X53119047Y-28309523D01*
X53023809Y-28404761D01*
X52880952Y-28452380D01*
X52785714Y-28452380D01*
X54166666Y-28452380D02*
X53595238Y-28452380D01*
X53880952Y-28452380D02*
X53880952Y-27452380D01*
X53785714Y-27595238D01*
X53690476Y-27690476D01*
X53595238Y-27738095D01*
%TO.C,J2*%
X56666666Y-36952380D02*
X56666666Y-37666666D01*
X56619047Y-37809523D01*
X56523809Y-37904761D01*
X56380952Y-37952380D01*
X56285714Y-37952380D01*
X57095238Y-37047619D02*
X57142857Y-37000000D01*
X57238095Y-36952380D01*
X57476190Y-36952380D01*
X57571428Y-37000000D01*
X57619047Y-37047619D01*
X57666666Y-37142857D01*
X57666666Y-37238095D01*
X57619047Y-37380952D01*
X57047619Y-37952380D01*
X57666666Y-37952380D01*
%TO.C,J3*%
X56666666Y-27452380D02*
X56666666Y-28166666D01*
X56619047Y-28309523D01*
X56523809Y-28404761D01*
X56380952Y-28452380D01*
X56285714Y-28452380D01*
X57047619Y-27452380D02*
X57666666Y-27452380D01*
X57333333Y-27833333D01*
X57476190Y-27833333D01*
X57571428Y-27880952D01*
X57619047Y-27928571D01*
X57666666Y-28023809D01*
X57666666Y-28261904D01*
X57619047Y-28357142D01*
X57571428Y-28404761D01*
X57476190Y-28452380D01*
X57190476Y-28452380D01*
X57095238Y-28404761D01*
X57047619Y-28357142D01*
%TO.C,J4*%
X90452380Y-39833333D02*
X91166666Y-39833333D01*
X91309523Y-39880952D01*
X91404761Y-39976190D01*
X91452380Y-40119047D01*
X91452380Y-40214285D01*
X90785714Y-38928571D02*
X91452380Y-38928571D01*
X90404761Y-39166666D02*
X91119047Y-39404761D01*
X91119047Y-38785714D01*
%TO.C,R1*%
X70833333Y-27452380D02*
X70500000Y-26976190D01*
X70261904Y-27452380D02*
X70261904Y-26452380D01*
X70642857Y-26452380D01*
X70738095Y-26500000D01*
X70785714Y-26547619D01*
X70833333Y-26642857D01*
X70833333Y-26785714D01*
X70785714Y-26880952D01*
X70738095Y-26928571D01*
X70642857Y-26976190D01*
X70261904Y-26976190D01*
X71785714Y-27452380D02*
X71214285Y-27452380D01*
X71500000Y-27452380D02*
X71500000Y-26452380D01*
X71404761Y-26595238D01*
X71309523Y-26690476D01*
X71214285Y-26738095D01*
%TO.C,R2*%
X72833333Y-34952380D02*
X72500000Y-34476190D01*
X72261904Y-34952380D02*
X72261904Y-33952380D01*
X72642857Y-33952380D01*
X72738095Y-34000000D01*
X72785714Y-34047619D01*
X72833333Y-34142857D01*
X72833333Y-34285714D01*
X72785714Y-34380952D01*
X72738095Y-34428571D01*
X72642857Y-34476190D01*
X72261904Y-34476190D01*
X73214285Y-34047619D02*
X73261904Y-34000000D01*
X73357142Y-33952380D01*
X73595238Y-33952380D01*
X73690476Y-34000000D01*
X73738095Y-34047619D01*
X73785714Y-34142857D01*
X73785714Y-34238095D01*
X73738095Y-34380952D01*
X73166666Y-34952380D01*
X73785714Y-34952380D01*
%TO.C,R3*%
X73833333Y-27452380D02*
X73500000Y-26976190D01*
X73261904Y-27452380D02*
X73261904Y-26452380D01*
X73642857Y-26452380D01*
X73738095Y-26500000D01*
X73785714Y-26547619D01*
X73833333Y-26642857D01*
X73833333Y-26785714D01*
X73785714Y-26880952D01*
X73738095Y-26928571D01*
X73642857Y-26976190D01*
X73261904Y-26976190D01*
X74166666Y-26452380D02*
X74785714Y-26452380D01*
X74452380Y-26833333D01*
X74595238Y-26833333D01*
X74690476Y-26880952D01*
X74738095Y-26928571D01*
X74785714Y-27023809D01*
X74785714Y-27261904D01*
X74738095Y-27357142D01*
X74690476Y-27404761D01*
X74595238Y-27452380D01*
X74309523Y-27452380D01*
X74214285Y-27404761D01*
X74166666Y-27357142D01*
%TO.C,U1*%
X79238095Y-39952380D02*
X79238095Y-40761904D01*
X79285714Y-40857142D01*
X79333333Y-40904761D01*
X79428571Y-40952380D01*
X79619047Y-40952380D01*
X79714285Y-40904761D01*
X79761904Y-40857142D01*
X79809523Y-40761904D01*
X79809523Y-39952380D01*
X80809523Y-40952380D02*
X80238095Y-40952380D01*
X80523809Y-40952380D02*
X80523809Y-39952380D01*
X80428571Y-40095238D01*
X80333333Y-40190476D01*
X80238095Y-40238095D01*
%TO.C,H1*%
X86238095Y-31252380D02*
X86238095Y-30252380D01*
X86238095Y-30728571D02*
X86809523Y-30728571D01*
X86809523Y-31252380D02*
X86809523Y-30252380D01*
X87809523Y-31252380D02*
X87238095Y-31252380D01*
X87523809Y-31252380D02*
X87523809Y-30252380D01*
X87428571Y-30395238D01*
X87333333Y-30490476D01*
X87238095Y-30538095D01*
%TO.C,H2*%
X54238095Y-31252380D02*
X54238095Y-30252380D01*
X54238095Y-30728571D02*
X54809523Y-30728571D01*
X54809523Y-31252380D02*
X54809523Y-30252380D01*
X55238095Y-30347619D02*
X55285714Y-30300000D01*
X55380952Y-30252380D01*
X55619047Y-30252380D01*
X55714285Y-30300000D01*
X55761904Y-30347619D01*
X55809523Y-30442857D01*
X55809523Y-30538095D01*
X55761904Y-30680952D01*
X55190476Y-31252380D01*
X55809523Y-31252380D01*
%TD*%
M02*
