%TF.GenerationSoftware,KiCad,Pcbnew,7.0.1*%
%TF.CreationDate,2023-10-30T09:30:19+01:00*%
%TF.ProjectId,opto-counter,6f70746f-2d63-46f7-956e-7465722e6b69,rev?*%
%TF.SameCoordinates,Original*%
%TF.FileFunction,Copper,L1,Top*%
%TF.FilePolarity,Positive*%
%FSLAX46Y46*%
G04 Gerber Fmt 4.6, Leading zero omitted, Abs format (unit mm)*
G04 Created by KiCad (PCBNEW 7.0.1) date 2023-10-30 09:30:19*
%MOMM*%
%LPD*%
G01*
G04 APERTURE LIST*
G04 Aperture macros list*
%AMRoundRect*
0 Rectangle with rounded corners*
0 $1 Rounding radius*
0 $2 $3 $4 $5 $6 $7 $8 $9 X,Y pos of 4 corners*
0 Add a 4 corners polygon primitive as box body*
4,1,4,$2,$3,$4,$5,$6,$7,$8,$9,$2,$3,0*
0 Add four circle primitives for the rounded corners*
1,1,$1+$1,$2,$3*
1,1,$1+$1,$4,$5*
1,1,$1+$1,$6,$7*
1,1,$1+$1,$8,$9*
0 Add four rect primitives between the rounded corners*
20,1,$1+$1,$2,$3,$4,$5,0*
20,1,$1+$1,$4,$5,$6,$7,0*
20,1,$1+$1,$6,$7,$8,$9,0*
20,1,$1+$1,$8,$9,$2,$3,0*%
G04 Aperture macros list end*
%TA.AperFunction,SMDPad,CuDef*%
%ADD10RoundRect,0.250000X0.650000X-0.412500X0.650000X0.412500X-0.650000X0.412500X-0.650000X-0.412500X0*%
%TD*%
%TA.AperFunction,SMDPad,CuDef*%
%ADD11RoundRect,0.250000X-0.400000X-0.625000X0.400000X-0.625000X0.400000X0.625000X-0.400000X0.625000X0*%
%TD*%
%TA.AperFunction,SMDPad,CuDef*%
%ADD12RoundRect,0.250000X0.400000X0.625000X-0.400000X0.625000X-0.400000X-0.625000X0.400000X-0.625000X0*%
%TD*%
%TA.AperFunction,SMDPad,CuDef*%
%ADD13RoundRect,0.150000X0.825000X0.150000X-0.825000X0.150000X-0.825000X-0.150000X0.825000X-0.150000X0*%
%TD*%
%TA.AperFunction,SMDPad,CuDef*%
%ADD14R,0.900000X2.200000*%
%TD*%
%TA.AperFunction,ComponentPad*%
%ADD15R,1.800000X1.800000*%
%TD*%
%TA.AperFunction,ComponentPad*%
%ADD16C,1.800000*%
%TD*%
%TA.AperFunction,ComponentPad*%
%ADD17R,1.700000X1.700000*%
%TD*%
%TA.AperFunction,ComponentPad*%
%ADD18O,1.700000X1.700000*%
%TD*%
%TA.AperFunction,ComponentPad*%
%ADD19RoundRect,0.250000X0.600000X0.725000X-0.600000X0.725000X-0.600000X-0.725000X0.600000X-0.725000X0*%
%TD*%
%TA.AperFunction,ComponentPad*%
%ADD20O,1.700000X1.950000*%
%TD*%
%TA.AperFunction,ComponentPad*%
%ADD21RoundRect,0.250000X-0.725000X0.600000X-0.725000X-0.600000X0.725000X-0.600000X0.725000X0.600000X0*%
%TD*%
%TA.AperFunction,ComponentPad*%
%ADD22O,1.950000X1.700000*%
%TD*%
%TA.AperFunction,ViaPad*%
%ADD23C,0.800000*%
%TD*%
%TA.AperFunction,Conductor*%
%ADD24C,0.250000*%
%TD*%
%TA.AperFunction,Conductor*%
%ADD25C,0.508000*%
%TD*%
G04 APERTURE END LIST*
D10*
%TO.P,C1,1*%
%TO.N,+3V3*%
X82550000Y-39662500D03*
%TO.P,C1,2*%
%TO.N,GND*%
X82550000Y-36537500D03*
%TD*%
D11*
%TO.P,R1,1*%
%TO.N,+3V3*%
X72110000Y-48260000D03*
%TO.P,R1,2*%
%TO.N,SDA*%
X75210000Y-48260000D03*
%TD*%
%TO.P,R2,1*%
%TO.N,Net-(D1-K)*%
X65760000Y-34290000D03*
%TO.P,R2,2*%
%TO.N,Net-(U1-PA5)*%
X68860000Y-34290000D03*
%TD*%
D12*
%TO.P,R3,1*%
%TO.N,+3V3*%
X68860000Y-48260000D03*
%TO.P,R3,2*%
%TO.N,SCL*%
X65760000Y-48260000D03*
%TD*%
D13*
%TO.P,U1,1,VCC*%
%TO.N,+3V3*%
X77405000Y-33020000D03*
%TO.P,U1,2,PA4*%
%TO.N,Net-(J1-Pin_1)*%
X77405000Y-31750000D03*
%TO.P,U1,3,PA5*%
%TO.N,Net-(U1-PA5)*%
X77405000Y-30480000D03*
%TO.P,U1,4,PA6*%
%TO.N,Net-(D1-A)*%
X77405000Y-29210000D03*
%TO.P,U1,5,PA7*%
%TO.N,Net-(D2-A)*%
X77405000Y-27940000D03*
%TO.P,U1,6,PB3*%
%TO.N,unconnected-(U1-PB3-Pad6)*%
X77405000Y-26670000D03*
%TO.P,U1,7,PB2*%
%TO.N,unconnected-(U1-PB2-Pad7)*%
X77405000Y-25400000D03*
%TO.P,U1,8,PB1*%
%TO.N,unconnected-(U1-PB1-Pad8)*%
X72455000Y-25400000D03*
%TO.P,U1,9,PB0*%
%TO.N,unconnected-(U1-PB0-Pad9)*%
X72455000Y-26670000D03*
%TO.P,U1,10,~{RESET}/PA0*%
%TO.N,UPDI*%
X72455000Y-27940000D03*
%TO.P,U1,11,PA1*%
%TO.N,SDA*%
X72455000Y-29210000D03*
%TO.P,U1,12,PA2*%
%TO.N,SCL*%
X72455000Y-30480000D03*
%TO.P,U1,13,PA3*%
%TO.N,unconnected-(U1-PA3-Pad13)*%
X72455000Y-31750000D03*
%TO.P,U1,14,GND*%
%TO.N,GND*%
X72455000Y-33020000D03*
%TD*%
D14*
%TO.P,U2,1,GND*%
%TO.N,GND*%
X75145000Y-39100000D03*
%TO.P,U2,2*%
%TO.N,unconnected-(U2-Pad2)*%
X76415000Y-39100000D03*
%TO.P,U2,3,Vs*%
%TO.N,+3V3*%
X77685000Y-39100000D03*
%TO.P,U2,4,OUT*%
%TO.N,Net-(J1-Pin_1)*%
X78955000Y-39100000D03*
%TD*%
D15*
%TO.P,D1,1,K*%
%TO.N,Net-(D1-K)*%
X66040000Y-38100000D03*
D16*
%TO.P,D1,2,A*%
%TO.N,Net-(D1-A)*%
X68580000Y-38100000D03*
%TD*%
D15*
%TO.P,D2,1,K*%
%TO.N,Net-(D1-K)*%
X88900000Y-38100000D03*
D16*
%TO.P,D2,2,A*%
%TO.N,Net-(D2-A)*%
X86360000Y-38100000D03*
%TD*%
D17*
%TO.P,J1,1,Pin_1*%
%TO.N,Net-(J1-Pin_1)*%
X82550000Y-43195000D03*
D18*
%TO.P,J1,2,Pin_2*%
%TO.N,GND*%
X82550000Y-45735000D03*
%TO.P,J1,3,Pin_3*%
%TO.N,+3V3*%
X82550000Y-48275000D03*
%TD*%
D19*
%TO.P,J2,1,Pin_1*%
%TO.N,GND*%
X74810000Y-43540000D03*
D20*
%TO.P,J2,2,Pin_2*%
%TO.N,+3V3*%
X72310000Y-43540000D03*
%TO.P,J2,3,Pin_3*%
%TO.N,SDA*%
X69810000Y-43540000D03*
%TO.P,J2,4,Pin_4*%
%TO.N,SCL*%
X67310000Y-43540000D03*
%TD*%
D21*
%TO.P,J3,1,Pin_1*%
%TO.N,GND*%
X82550000Y-28020000D03*
D22*
%TO.P,J3,2,Pin_2*%
%TO.N,+3V3*%
X82550000Y-30520000D03*
%TO.P,J3,3,Pin_3*%
%TO.N,UPDI*%
X82550000Y-33020000D03*
%TD*%
D23*
%TO.N,GND*%
X69850000Y-31750000D03*
X69850000Y-45720000D03*
X80010000Y-30480000D03*
%TO.N,Net-(J1-Pin_1)*%
X78740000Y-35560000D03*
%TD*%
D24*
%TO.N,UPDI*%
X78696751Y-29835000D02*
X75555000Y-29835000D01*
X75555000Y-29835000D02*
X73660000Y-27940000D01*
X83161701Y-29345000D02*
X79186751Y-29345000D01*
X79186751Y-29345000D02*
X78696751Y-29835000D01*
X83850000Y-31720000D02*
X83850000Y-30033299D01*
X82550000Y-33020000D02*
X83850000Y-31720000D01*
X83850000Y-30033299D02*
X83161701Y-29345000D01*
X73660000Y-27940000D02*
X72455000Y-27940000D01*
D25*
%TO.N,+3V3*%
X82550000Y-30480000D02*
X80433500Y-32596500D01*
X80433500Y-32596500D02*
X80433500Y-37546000D01*
X82550000Y-30520000D02*
X82550000Y-30480000D01*
X80433500Y-37546000D02*
X78239000Y-37546000D01*
X77685000Y-44235000D02*
X76200000Y-45720000D01*
X77685000Y-38100000D02*
X77685000Y-39100000D01*
X78239000Y-37546000D02*
X77685000Y-38100000D01*
X72310000Y-48122500D02*
X72310000Y-45720000D01*
X72172500Y-48260000D02*
X72310000Y-48122500D01*
X76200000Y-45720000D02*
X74490000Y-45720000D01*
X82550000Y-48275000D02*
X78755000Y-48275000D01*
X68797500Y-48260000D02*
X72172500Y-48260000D01*
X77685000Y-33300000D02*
X77685000Y-38100000D01*
X77405000Y-33020000D02*
X77685000Y-33300000D01*
X74490000Y-45720000D02*
X72310000Y-43540000D01*
X82550000Y-39662500D02*
X80433500Y-37546000D01*
X72172500Y-48260000D02*
X72390000Y-48260000D01*
X78755000Y-48275000D02*
X76200000Y-45720000D01*
X72310000Y-45720000D02*
X72310000Y-44450000D01*
X77685000Y-39100000D02*
X77685000Y-44235000D01*
%TO.N,GND*%
X74810000Y-43300000D02*
X75145000Y-42965000D01*
X74810000Y-43540000D02*
X74810000Y-43300000D01*
X75145000Y-39100000D02*
X75145000Y-34505000D01*
X75145000Y-34505000D02*
X73660000Y-33020000D01*
X75145000Y-42965000D02*
X75145000Y-39100000D01*
X73660000Y-33020000D02*
X72455000Y-33020000D01*
D24*
%TO.N,Net-(D1-K)*%
X66040000Y-38100000D02*
X66040000Y-34570000D01*
X66040000Y-34570000D02*
X65760000Y-34290000D01*
%TO.N,Net-(D1-A)*%
X75655000Y-27639695D02*
X75230305Y-27215000D01*
X75655000Y-28240305D02*
X75655000Y-27639695D01*
X67680000Y-37200000D02*
X67680000Y-31068249D01*
X73576751Y-27215000D02*
X73476751Y-27315000D01*
X73476751Y-27315000D02*
X71433249Y-27315000D01*
X77405000Y-29210000D02*
X76624695Y-29210000D01*
X76624695Y-29210000D02*
X75655000Y-28240305D01*
X75230305Y-27215000D02*
X73576751Y-27215000D01*
X68580000Y-38100000D02*
X67680000Y-37200000D01*
X67680000Y-31068249D02*
X71433249Y-27315000D01*
%TO.N,Net-(D2-A)*%
X83338173Y-26670000D02*
X83820000Y-26670000D01*
X86360000Y-38100000D02*
X86360000Y-29691827D01*
X78740000Y-27940000D02*
X77405000Y-27940000D01*
X83820000Y-26670000D02*
X85090000Y-26670000D01*
X83338173Y-26670000D02*
X80010000Y-26670000D01*
X80010000Y-26670000D02*
X78740000Y-27940000D01*
X86360000Y-27940000D02*
X86360000Y-30480000D01*
X85090000Y-26670000D02*
X86360000Y-27940000D01*
%TO.N,SDA*%
X73755000Y-29499645D02*
X73755000Y-32096751D01*
X67760000Y-45590000D02*
X67760000Y-49123172D01*
X71570000Y-34705000D02*
X71570000Y-41780000D01*
X73947500Y-49460000D02*
X68096828Y-49460000D01*
X72455000Y-29210000D02*
X73465355Y-29210000D01*
X73755000Y-32096751D02*
X73476751Y-32375000D01*
X71155000Y-34290000D02*
X71570000Y-34705000D01*
X73465355Y-29210000D02*
X73755000Y-29499645D01*
X73476751Y-32375000D02*
X71433249Y-32375000D01*
X71570000Y-41780000D02*
X69810000Y-43540000D01*
X75147500Y-48260000D02*
X73947500Y-49460000D01*
X68096828Y-49460000D02*
X67760000Y-49123172D01*
X69810000Y-43540000D02*
X67760000Y-45590000D01*
X71155000Y-32653249D02*
X71155000Y-34290000D01*
X71433249Y-32375000D02*
X71155000Y-32653249D01*
%TO.N,SCL*%
X71120000Y-30480000D02*
X72455000Y-30480000D01*
X67310000Y-43540000D02*
X71120000Y-39730000D01*
X67310000Y-46772500D02*
X67310000Y-43540000D01*
X67310000Y-46772500D02*
X65822500Y-48260000D01*
X71120000Y-36830000D02*
X70705000Y-36415000D01*
X70705000Y-30895000D02*
X71120000Y-30480000D01*
X71120000Y-39730000D02*
X71120000Y-36830000D01*
X70705000Y-36415000D02*
X70705000Y-30895000D01*
%TO.N,Net-(U1-PA5)*%
X73476751Y-28585000D02*
X71433249Y-28585000D01*
X68860000Y-34290000D02*
X68860000Y-31158249D01*
X77405000Y-30480000D02*
X75371751Y-30480000D01*
X68860000Y-31158249D02*
X71433249Y-28585000D01*
X75371751Y-30480000D02*
X73476751Y-28585000D01*
%TO.N,Net-(J1-Pin_1)*%
X78740000Y-32708249D02*
X77781751Y-31750000D01*
X78740000Y-35560000D02*
X78740000Y-32708249D01*
X78955000Y-39600000D02*
X82550000Y-43195000D01*
X77781751Y-31750000D02*
X77405000Y-31750000D01*
X78955000Y-39100000D02*
X78955000Y-39600000D01*
%TD*%
%TA.AperFunction,Conductor*%
%TO.N,GND*%
G36*
X71118173Y-44356209D02*
G01*
X71165838Y-44398160D01*
X71172665Y-44408261D01*
X71249216Y-44521522D01*
X71409229Y-44688477D01*
X71496423Y-44752965D01*
X71534009Y-44797543D01*
X71547500Y-44854269D01*
X71547500Y-46798802D01*
X71536706Y-46849827D01*
X71506173Y-46892110D01*
X71461133Y-46918406D01*
X71387265Y-46942883D01*
X71236344Y-47035972D01*
X71110972Y-47161344D01*
X71073863Y-47221507D01*
X71017885Y-47312262D01*
X70985122Y-47411134D01*
X70958828Y-47456173D01*
X70916545Y-47486706D01*
X70865519Y-47497500D01*
X70104481Y-47497500D01*
X70053455Y-47486706D01*
X70011172Y-47456173D01*
X69984877Y-47411134D01*
X69952115Y-47312262D01*
X69859030Y-47161348D01*
X69859028Y-47161346D01*
X69859027Y-47161344D01*
X69733655Y-47035972D01*
X69718555Y-47026658D01*
X69582738Y-46942885D01*
X69414426Y-46887113D01*
X69310545Y-46876500D01*
X69310540Y-46876500D01*
X69310504Y-46876500D01*
X68519499Y-46876500D01*
X68456500Y-46859620D01*
X68410381Y-46813501D01*
X68393500Y-46750501D01*
X68393500Y-45904594D01*
X68403091Y-45856376D01*
X68430401Y-45815502D01*
X69258927Y-44986976D01*
X69317566Y-44953810D01*
X69384915Y-44955597D01*
X69391129Y-44957500D01*
X69522757Y-44997811D01*
X69752135Y-45027184D01*
X69983178Y-45017369D01*
X70209238Y-44968649D01*
X70423813Y-44882426D01*
X70620730Y-44761179D01*
X70794324Y-44608398D01*
X70939600Y-44428476D01*
X70950893Y-44408261D01*
X70951447Y-44407270D01*
X70995383Y-44361426D01*
X71056099Y-44342832D01*
X71118173Y-44356209D01*
G37*
%TD.AperFunction*%
%TA.AperFunction,Conductor*%
G36*
X74553436Y-30577010D02*
G01*
X74603595Y-30607748D01*
X74864502Y-30868655D01*
X74877586Y-30884985D01*
X74929417Y-30933657D01*
X74932260Y-30936413D01*
X74951981Y-30956134D01*
X74955169Y-30958607D01*
X74964194Y-30966314D01*
X74996430Y-30996586D01*
X75014178Y-31006342D01*
X75030700Y-31017195D01*
X75046710Y-31029614D01*
X75087293Y-31047175D01*
X75097944Y-31052393D01*
X75136691Y-31073695D01*
X75156311Y-31078732D01*
X75175018Y-31085137D01*
X75181631Y-31087998D01*
X75193605Y-31093181D01*
X75204256Y-31094867D01*
X75237281Y-31100098D01*
X75248876Y-31102498D01*
X75291721Y-31113500D01*
X75311975Y-31113500D01*
X75331685Y-31115051D01*
X75351693Y-31118220D01*
X75351693Y-31118219D01*
X75351694Y-31118220D01*
X75395712Y-31114058D01*
X75407570Y-31113500D01*
X75881776Y-31113500D01*
X75945061Y-31130546D01*
X75991224Y-31177072D01*
X76007772Y-31240490D01*
X75990229Y-31303639D01*
X75970855Y-31336397D01*
X75924438Y-31496166D01*
X75921500Y-31533503D01*
X75921500Y-31966497D01*
X75924438Y-32003833D01*
X75970071Y-32160904D01*
X75970855Y-32163601D01*
X76017781Y-32242949D01*
X76063650Y-32320508D01*
X76060071Y-32322624D01*
X76077256Y-32352389D01*
X76077256Y-32417611D01*
X76060071Y-32447375D01*
X76063650Y-32449492D01*
X75970854Y-32606400D01*
X75924438Y-32766166D01*
X75921500Y-32803503D01*
X75921500Y-33236497D01*
X75924438Y-33273833D01*
X75970796Y-33433399D01*
X75970855Y-33433601D01*
X76026892Y-33528355D01*
X76055549Y-33576810D01*
X76173189Y-33694450D01*
X76173191Y-33694451D01*
X76173193Y-33694453D01*
X76316399Y-33779145D01*
X76476169Y-33825562D01*
X76513498Y-33828500D01*
X76796500Y-33828500D01*
X76859500Y-33845381D01*
X76905619Y-33891500D01*
X76922500Y-33954500D01*
X76922500Y-37365500D01*
X76905619Y-37428500D01*
X76859500Y-37474619D01*
X76796500Y-37491500D01*
X75916362Y-37491500D01*
X75855799Y-37498011D01*
X75823314Y-37510127D01*
X75779284Y-37518070D01*
X75735254Y-37510126D01*
X75704096Y-37498505D01*
X75643589Y-37492000D01*
X74646411Y-37492000D01*
X74585906Y-37498505D01*
X74449037Y-37549554D01*
X74332095Y-37637095D01*
X74244554Y-37754037D01*
X74221107Y-37816897D01*
X75145000Y-38740789D01*
X75145000Y-38740790D01*
X75415114Y-39010904D01*
X75447726Y-39067388D01*
X75447726Y-39132610D01*
X75415114Y-39189094D01*
X74221108Y-40383099D01*
X74244554Y-40445963D01*
X74332095Y-40562904D01*
X74449037Y-40650445D01*
X74585906Y-40701494D01*
X74646411Y-40708000D01*
X75643590Y-40708000D01*
X75704093Y-40701494D01*
X75735248Y-40689874D01*
X75779283Y-40681928D01*
X75823312Y-40689871D01*
X75855799Y-40701989D01*
X75916362Y-40708500D01*
X76796500Y-40708500D01*
X76859500Y-40725381D01*
X76905619Y-40771500D01*
X76922500Y-40834500D01*
X76922500Y-43866972D01*
X76912909Y-43915190D01*
X76885597Y-43956064D01*
X76619580Y-44222082D01*
X76377685Y-44463977D01*
X76325078Y-44495482D01*
X76263829Y-44498424D01*
X76208444Y-44472106D01*
X76172041Y-44422760D01*
X76163242Y-44362075D01*
X76168000Y-44315503D01*
X76168000Y-43794000D01*
X74682000Y-43794000D01*
X74619000Y-43777119D01*
X74572881Y-43731000D01*
X74556000Y-43668000D01*
X74556000Y-42057000D01*
X75064000Y-42057000D01*
X75064000Y-43286000D01*
X76168000Y-43286000D01*
X76168000Y-42764497D01*
X76157393Y-42660671D01*
X76101659Y-42492477D01*
X76008632Y-42341657D01*
X75883342Y-42216367D01*
X75732522Y-42123340D01*
X75564328Y-42067606D01*
X75460503Y-42057000D01*
X75064000Y-42057000D01*
X74556000Y-42057000D01*
X74159497Y-42057000D01*
X74055671Y-42067606D01*
X73887477Y-42123340D01*
X73736657Y-42216367D01*
X73611367Y-42341657D01*
X73521300Y-42487680D01*
X73481194Y-42528158D01*
X73427358Y-42546829D01*
X73370802Y-42539875D01*
X73323092Y-42508717D01*
X73210772Y-42391524D01*
X73112472Y-42318822D01*
X73024847Y-42254015D01*
X72818357Y-42149905D01*
X72818356Y-42149904D01*
X72818355Y-42149904D01*
X72597240Y-42082188D01*
X72367869Y-42052815D01*
X72321248Y-42054796D01*
X72264098Y-42043767D01*
X72218002Y-42008230D01*
X72192797Y-41955767D01*
X72193860Y-41897572D01*
X72203500Y-41860029D01*
X72203500Y-41839776D01*
X72205051Y-41820066D01*
X72208220Y-41800057D01*
X72204059Y-41756039D01*
X72203500Y-41744181D01*
X72203500Y-38501209D01*
X74187000Y-38501209D01*
X74187000Y-39698790D01*
X74785790Y-39100001D01*
X74785790Y-39099999D01*
X74187000Y-38501209D01*
X72203500Y-38501209D01*
X72203500Y-34788854D01*
X72205795Y-34768064D01*
X72203562Y-34697002D01*
X72203500Y-34693044D01*
X72203500Y-34665149D01*
X72203500Y-34665144D01*
X72202993Y-34661138D01*
X72202062Y-34649305D01*
X72200674Y-34605111D01*
X72195019Y-34585647D01*
X72191013Y-34566307D01*
X72188474Y-34546203D01*
X72172195Y-34505087D01*
X72168356Y-34493872D01*
X72156019Y-34451407D01*
X72145703Y-34433964D01*
X72137007Y-34416214D01*
X72129552Y-34397383D01*
X72103554Y-34361600D01*
X72097058Y-34351710D01*
X72074542Y-34313638D01*
X72060212Y-34299308D01*
X72047378Y-34284281D01*
X72035472Y-34267893D01*
X72028807Y-34262379D01*
X72001400Y-34239705D01*
X71992621Y-34231717D01*
X71825404Y-34064499D01*
X71798091Y-34023622D01*
X71788500Y-33975404D01*
X71788500Y-33954000D01*
X71805381Y-33891000D01*
X71851500Y-33844881D01*
X71914500Y-33828000D01*
X72201000Y-33828000D01*
X72201000Y-33274000D01*
X72709000Y-33274000D01*
X72709000Y-33827999D01*
X73346454Y-33827999D01*
X73383752Y-33825064D01*
X73543398Y-33778682D01*
X73686501Y-33694052D01*
X73804052Y-33576501D01*
X73888681Y-33433399D01*
X73934993Y-33274000D01*
X72709000Y-33274000D01*
X72201000Y-33274000D01*
X72201000Y-33134500D01*
X72217881Y-33071500D01*
X72264000Y-33025381D01*
X72327000Y-33008500D01*
X73392898Y-33008500D01*
X73413686Y-33010795D01*
X73416658Y-33010701D01*
X73416660Y-33010702D01*
X73484736Y-33008562D01*
X73488696Y-33008500D01*
X73516603Y-33008500D01*
X73516607Y-33008500D01*
X73520616Y-33007993D01*
X73532450Y-33007061D01*
X73576640Y-33005673D01*
X73596089Y-33000021D01*
X73615449Y-32996012D01*
X73635548Y-32993474D01*
X73676666Y-32977193D01*
X73687868Y-32973357D01*
X73730344Y-32961018D01*
X73747790Y-32950699D01*
X73765531Y-32942009D01*
X73784368Y-32934552D01*
X73820143Y-32908558D01*
X73830054Y-32902048D01*
X73868113Y-32879542D01*
X73882442Y-32865212D01*
X73897470Y-32852377D01*
X73913858Y-32840472D01*
X73942054Y-32806386D01*
X73950023Y-32797630D01*
X74143658Y-32603995D01*
X74159979Y-32590921D01*
X74162014Y-32588753D01*
X74162018Y-32588751D01*
X74208676Y-32539063D01*
X74211367Y-32536286D01*
X74231135Y-32516520D01*
X74233611Y-32513327D01*
X74241316Y-32504304D01*
X74271586Y-32472072D01*
X74281345Y-32454318D01*
X74292198Y-32437796D01*
X74304614Y-32421791D01*
X74322174Y-32381210D01*
X74327388Y-32370566D01*
X74348695Y-32331811D01*
X74353732Y-32312190D01*
X74360138Y-32293481D01*
X74368181Y-32274895D01*
X74375096Y-32231228D01*
X74377504Y-32219604D01*
X74378068Y-32217408D01*
X74388500Y-32176781D01*
X74388500Y-32156527D01*
X74390051Y-32136817D01*
X74393220Y-32116808D01*
X74389059Y-32072790D01*
X74388500Y-32060932D01*
X74388500Y-30696843D01*
X74402233Y-30639640D01*
X74440439Y-30594907D01*
X74494789Y-30572394D01*
X74553436Y-30577010D01*
G37*
%TD.AperFunction*%
%TA.AperFunction,Conductor*%
G36*
X81056417Y-29991991D02*
G01*
X81100995Y-30029576D01*
X81123879Y-30083206D01*
X81120168Y-30141395D01*
X81092188Y-30232757D01*
X81062815Y-30462135D01*
X81072630Y-30693177D01*
X81091121Y-30778977D01*
X81088811Y-30841137D01*
X81057044Y-30894616D01*
X79940102Y-32011558D01*
X79926254Y-32023527D01*
X79906680Y-32038100D01*
X79906678Y-32038101D01*
X79906678Y-32038102D01*
X79887521Y-32060932D01*
X79874321Y-32076663D01*
X79866906Y-32084755D01*
X79862926Y-32088735D01*
X79843385Y-32113447D01*
X79841076Y-32116281D01*
X79791283Y-32175624D01*
X79780642Y-32192325D01*
X79747894Y-32262553D01*
X79746298Y-32265850D01*
X79711532Y-32335074D01*
X79705035Y-32353765D01*
X79689366Y-32429648D01*
X79688573Y-32433222D01*
X79670704Y-32508621D01*
X79668693Y-32528303D01*
X79670947Y-32605754D01*
X79671000Y-32609418D01*
X79671000Y-34908008D01*
X79656662Y-34966383D01*
X79616910Y-35011473D01*
X79560792Y-35033014D01*
X79501080Y-35026105D01*
X79451364Y-34992318D01*
X79405864Y-34941785D01*
X79381869Y-34902629D01*
X79373500Y-34857475D01*
X79373500Y-32792103D01*
X79375795Y-32771313D01*
X79375633Y-32766169D01*
X79373561Y-32700250D01*
X79373500Y-32696293D01*
X79373500Y-32668398D01*
X79373500Y-32668393D01*
X79372993Y-32664387D01*
X79372062Y-32652554D01*
X79370674Y-32608360D01*
X79365020Y-32588901D01*
X79361013Y-32569555D01*
X79358474Y-32549452D01*
X79342194Y-32508335D01*
X79338353Y-32497115D01*
X79326018Y-32454656D01*
X79316042Y-32437788D01*
X79315706Y-32437219D01*
X79307008Y-32419464D01*
X79306274Y-32417611D01*
X79299552Y-32400632D01*
X79273565Y-32364865D01*
X79267047Y-32354942D01*
X79254623Y-32333934D01*
X79244542Y-32316887D01*
X79230212Y-32302557D01*
X79217378Y-32287530D01*
X79205472Y-32271142D01*
X79205471Y-32271141D01*
X79171394Y-32242949D01*
X79162616Y-32234961D01*
X78925405Y-31997750D01*
X78898091Y-31956873D01*
X78888500Y-31908655D01*
X78888500Y-31533503D01*
X78888500Y-31533498D01*
X78885562Y-31496169D01*
X78839145Y-31336399D01*
X78754453Y-31193193D01*
X78754452Y-31193192D01*
X78746350Y-31179492D01*
X78749942Y-31177367D01*
X78732759Y-31147669D01*
X78732759Y-31082331D01*
X78749942Y-31052632D01*
X78746350Y-31050508D01*
X78758707Y-31029614D01*
X78839145Y-30893601D01*
X78885562Y-30733831D01*
X78888500Y-30696502D01*
X78888500Y-30529461D01*
X78905052Y-30467034D01*
X78950359Y-30421009D01*
X78967780Y-30410705D01*
X78985531Y-30402009D01*
X79004368Y-30394552D01*
X79040143Y-30368558D01*
X79050054Y-30362048D01*
X79088113Y-30339542D01*
X79102442Y-30325212D01*
X79117470Y-30312377D01*
X79133858Y-30300472D01*
X79162049Y-30266393D01*
X79170019Y-30257634D01*
X79412250Y-30015404D01*
X79453128Y-29988091D01*
X79501346Y-29978500D01*
X80999691Y-29978500D01*
X81056417Y-29991991D01*
G37*
%TD.AperFunction*%
%TA.AperFunction,Conductor*%
G36*
X70019561Y-31044907D02*
G01*
X70057767Y-31089640D01*
X70071500Y-31146843D01*
X70071500Y-33099627D01*
X70057767Y-33156830D01*
X70019561Y-33201563D01*
X69965211Y-33224076D01*
X69906564Y-33219460D01*
X69856405Y-33188722D01*
X69733655Y-33065972D01*
X69644199Y-33010795D01*
X69582738Y-32972885D01*
X69582737Y-32972884D01*
X69582733Y-32972882D01*
X69579864Y-32971932D01*
X69534825Y-32945636D01*
X69504294Y-32903353D01*
X69493500Y-32852329D01*
X69493500Y-31472843D01*
X69503091Y-31424625D01*
X69530405Y-31383748D01*
X69856405Y-31057748D01*
X69906564Y-31027010D01*
X69965211Y-31022394D01*
X70019561Y-31044907D01*
G37*
%TD.AperFunction*%
%TA.AperFunction,Conductor*%
G36*
X91351500Y-24172381D02*
G01*
X91397619Y-24218500D01*
X91414500Y-24281500D01*
X91414500Y-51918500D01*
X91397619Y-51981500D01*
X91351500Y-52027619D01*
X91288500Y-52044500D01*
X63651500Y-52044500D01*
X63588500Y-52027619D01*
X63542381Y-51981500D01*
X63525500Y-51918500D01*
X63525500Y-48935540D01*
X64601500Y-48935540D01*
X64607717Y-48996394D01*
X64612113Y-49039426D01*
X64667885Y-49207738D01*
X64723863Y-49298492D01*
X64760972Y-49358655D01*
X64886344Y-49484027D01*
X64886346Y-49484028D01*
X64886348Y-49484030D01*
X65037262Y-49577115D01*
X65205574Y-49632887D01*
X65309455Y-49643500D01*
X66210544Y-49643499D01*
X66314426Y-49632887D01*
X66482738Y-49577115D01*
X66633652Y-49484030D01*
X66759030Y-49358652D01*
X66852115Y-49207738D01*
X66880896Y-49120880D01*
X66920637Y-49063058D01*
X66985144Y-49035454D01*
X67054413Y-49046632D01*
X67106964Y-49093125D01*
X67124970Y-49155239D01*
X67125508Y-49155172D01*
X67125937Y-49158575D01*
X67126500Y-49160515D01*
X67126500Y-49163029D01*
X67127007Y-49167045D01*
X67127937Y-49178868D01*
X67129326Y-49223064D01*
X67134977Y-49242513D01*
X67138986Y-49261868D01*
X67141525Y-49281966D01*
X67157801Y-49323075D01*
X67161644Y-49334302D01*
X67173980Y-49376762D01*
X67184294Y-49394202D01*
X67192987Y-49411946D01*
X67200448Y-49430789D01*
X67200449Y-49430791D01*
X67226431Y-49466552D01*
X67232948Y-49476473D01*
X67255456Y-49514532D01*
X67255457Y-49514533D01*
X67255458Y-49514534D01*
X67269783Y-49528859D01*
X67282614Y-49543881D01*
X67294528Y-49560279D01*
X67314878Y-49577114D01*
X67328603Y-49588469D01*
X67337380Y-49596457D01*
X67589582Y-49848659D01*
X67602660Y-49864982D01*
X67604827Y-49867017D01*
X67604828Y-49867018D01*
X67654478Y-49913642D01*
X67657289Y-49916366D01*
X67677058Y-49936135D01*
X67680271Y-49938627D01*
X67689261Y-49946306D01*
X67721507Y-49976586D01*
X67739254Y-49986342D01*
X67755778Y-49997196D01*
X67771787Y-50009614D01*
X67812370Y-50027175D01*
X67823021Y-50032393D01*
X67861768Y-50053695D01*
X67881388Y-50058732D01*
X67900095Y-50065137D01*
X67906708Y-50067998D01*
X67918682Y-50073181D01*
X67929333Y-50074867D01*
X67962358Y-50080098D01*
X67973953Y-50082498D01*
X68016798Y-50093500D01*
X68037052Y-50093500D01*
X68056762Y-50095051D01*
X68076770Y-50098220D01*
X68076770Y-50098219D01*
X68076771Y-50098220D01*
X68120789Y-50094058D01*
X68132647Y-50093500D01*
X73863647Y-50093500D01*
X73884435Y-50095795D01*
X73887407Y-50095701D01*
X73887409Y-50095702D01*
X73955485Y-50093562D01*
X73959445Y-50093500D01*
X73987352Y-50093500D01*
X73987356Y-50093500D01*
X73991365Y-50092993D01*
X74003199Y-50092061D01*
X74047389Y-50090673D01*
X74066838Y-50085021D01*
X74086198Y-50081012D01*
X74106297Y-50078474D01*
X74147415Y-50062193D01*
X74158617Y-50058357D01*
X74201093Y-50046018D01*
X74218539Y-50035699D01*
X74236280Y-50027009D01*
X74255117Y-50019552D01*
X74290892Y-49993558D01*
X74300803Y-49987048D01*
X74338862Y-49964542D01*
X74353191Y-49950212D01*
X74368219Y-49937377D01*
X74384607Y-49925472D01*
X74412803Y-49891386D01*
X74420772Y-49882630D01*
X74626794Y-49676608D01*
X74673654Y-49646994D01*
X74728691Y-49640357D01*
X74759455Y-49643500D01*
X75660544Y-49643499D01*
X75764426Y-49632887D01*
X75932738Y-49577115D01*
X76083652Y-49484030D01*
X76209030Y-49358652D01*
X76302115Y-49207738D01*
X76357887Y-49039426D01*
X76368500Y-48935545D01*
X76368499Y-47584456D01*
X76357887Y-47480574D01*
X76302115Y-47312262D01*
X76209030Y-47161348D01*
X76209028Y-47161346D01*
X76205161Y-47155076D01*
X76186692Y-47097474D01*
X76195076Y-47049922D01*
X76147525Y-47058307D01*
X76089923Y-47039838D01*
X76068555Y-47026658D01*
X75932738Y-46942885D01*
X75764426Y-46887113D01*
X75660545Y-46876500D01*
X75660540Y-46876500D01*
X74759459Y-46876500D01*
X74655573Y-46887113D01*
X74487262Y-46942885D01*
X74336344Y-47035972D01*
X74210972Y-47161344D01*
X74210970Y-47161348D01*
X74117885Y-47312262D01*
X74062113Y-47480574D01*
X74051734Y-47582171D01*
X74051500Y-47584459D01*
X74051500Y-48407903D01*
X74041909Y-48456121D01*
X74014596Y-48496998D01*
X73722000Y-48789595D01*
X73681122Y-48816909D01*
X73632904Y-48826500D01*
X73394500Y-48826500D01*
X73331500Y-48809619D01*
X73285381Y-48763500D01*
X73268500Y-48700500D01*
X73268499Y-47584459D01*
X73268499Y-47584455D01*
X73257887Y-47480574D01*
X73202115Y-47312262D01*
X73109030Y-47161348D01*
X73109029Y-47161347D01*
X73107524Y-47158907D01*
X73082091Y-47120845D01*
X73072500Y-47072627D01*
X73072500Y-45685028D01*
X73086233Y-45627825D01*
X73124439Y-45583092D01*
X73178789Y-45560579D01*
X73237436Y-45565195D01*
X73287595Y-45595933D01*
X73905058Y-46213396D01*
X73917026Y-46227243D01*
X73931602Y-46246822D01*
X73970164Y-46279179D01*
X73978267Y-46286605D01*
X73982235Y-46290573D01*
X74003052Y-46307033D01*
X74006933Y-46310102D01*
X74009770Y-46312413D01*
X74033711Y-46332501D01*
X74068147Y-46361396D01*
X74068149Y-46361397D01*
X74069137Y-46362226D01*
X74085817Y-46372852D01*
X74156033Y-46405595D01*
X74159330Y-46407191D01*
X74228585Y-46441972D01*
X74247258Y-46448462D01*
X74248523Y-46448723D01*
X74248527Y-46448725D01*
X74323153Y-46464133D01*
X74326712Y-46464922D01*
X74400877Y-46482500D01*
X74400880Y-46482500D01*
X74402129Y-46482796D01*
X74421808Y-46484807D01*
X74423090Y-46484769D01*
X74423092Y-46484770D01*
X74499289Y-46482552D01*
X74502953Y-46482500D01*
X75831973Y-46482500D01*
X75880191Y-46492091D01*
X75921068Y-46519405D01*
X76245165Y-46843502D01*
X76276421Y-46895291D01*
X76279938Y-46955679D01*
X76272119Y-46972879D01*
X76289320Y-46965061D01*
X76349708Y-46968578D01*
X76401496Y-46999833D01*
X77426252Y-48024590D01*
X78170058Y-48768396D01*
X78182026Y-48782243D01*
X78196602Y-48801822D01*
X78226012Y-48826500D01*
X78235162Y-48834177D01*
X78243259Y-48841597D01*
X78247235Y-48845573D01*
X78271952Y-48865117D01*
X78274776Y-48867417D01*
X78334139Y-48917228D01*
X78350816Y-48927851D01*
X78351976Y-48928392D01*
X78351980Y-48928395D01*
X78421039Y-48960597D01*
X78424338Y-48962195D01*
X78493582Y-48996971D01*
X78512258Y-49003463D01*
X78513526Y-49003724D01*
X78513527Y-49003725D01*
X78588211Y-49019145D01*
X78591668Y-49019911D01*
X78665877Y-49037500D01*
X78665879Y-49037500D01*
X78667124Y-49037795D01*
X78686804Y-49039806D01*
X78688090Y-49039768D01*
X78688092Y-49039769D01*
X78760060Y-49037675D01*
X78764270Y-49037553D01*
X78767933Y-49037500D01*
X81357242Y-49037500D01*
X81417211Y-49052686D01*
X81462724Y-49094584D01*
X81474275Y-49112264D01*
X81474278Y-49112268D01*
X81576271Y-49223061D01*
X81626762Y-49277908D01*
X81776175Y-49394202D01*
X81804424Y-49416189D01*
X82002426Y-49523342D01*
X82215365Y-49596444D01*
X82437431Y-49633500D01*
X82662566Y-49633500D01*
X82662569Y-49633500D01*
X82884635Y-49596444D01*
X83097574Y-49523342D01*
X83295576Y-49416189D01*
X83473240Y-49277906D01*
X83625722Y-49112268D01*
X83748860Y-48923791D01*
X83839296Y-48717616D01*
X83894564Y-48499368D01*
X83913156Y-48275000D01*
X83911913Y-48260000D01*
X86274341Y-48260000D01*
X86294937Y-48495409D01*
X86356096Y-48723662D01*
X86455965Y-48937829D01*
X86591507Y-49131404D01*
X86758595Y-49298492D01*
X86758598Y-49298494D01*
X86758599Y-49298495D01*
X86952171Y-49434035D01*
X87166337Y-49533903D01*
X87394592Y-49595063D01*
X87571034Y-49610500D01*
X87688960Y-49610500D01*
X87688966Y-49610500D01*
X87865408Y-49595063D01*
X88093663Y-49533903D01*
X88307829Y-49434035D01*
X88501401Y-49298495D01*
X88668495Y-49131401D01*
X88804035Y-48937830D01*
X88903903Y-48723663D01*
X88965063Y-48495408D01*
X88985659Y-48260000D01*
X88965063Y-48024592D01*
X88903903Y-47796337D01*
X88804035Y-47582171D01*
X88668495Y-47388599D01*
X88668494Y-47388598D01*
X88668492Y-47388595D01*
X88501404Y-47221507D01*
X88307829Y-47085965D01*
X88093662Y-46986096D01*
X87865409Y-46924937D01*
X87840202Y-46922731D01*
X87688966Y-46909500D01*
X87571034Y-46909500D01*
X87438702Y-46921077D01*
X87394590Y-46924937D01*
X87166337Y-46986096D01*
X86952170Y-47085965D01*
X86758595Y-47221507D01*
X86591507Y-47388595D01*
X86455965Y-47582169D01*
X86356096Y-47796336D01*
X86294937Y-48024590D01*
X86274341Y-48260000D01*
X83911913Y-48260000D01*
X83894564Y-48050632D01*
X83839296Y-47832384D01*
X83748860Y-47626209D01*
X83625722Y-47437732D01*
X83473240Y-47272094D01*
X83473239Y-47272093D01*
X83473237Y-47272091D01*
X83322897Y-47155076D01*
X83295576Y-47133811D01*
X83261792Y-47115528D01*
X83213521Y-47069212D01*
X83195762Y-47004715D01*
X83213521Y-46940217D01*
X83261793Y-46893901D01*
X83295300Y-46875768D01*
X83472903Y-46737533D01*
X83625321Y-46571962D01*
X83748419Y-46383548D01*
X83838822Y-46177451D01*
X83886544Y-45989000D01*
X81213455Y-45989000D01*
X81261177Y-46177451D01*
X81351580Y-46383548D01*
X81474678Y-46571962D01*
X81627096Y-46737533D01*
X81804702Y-46875769D01*
X81838207Y-46893902D01*
X81886478Y-46940218D01*
X81904237Y-47004715D01*
X81886478Y-47069212D01*
X81838207Y-47115528D01*
X81804423Y-47133811D01*
X81626762Y-47272091D01*
X81474275Y-47437735D01*
X81462724Y-47455416D01*
X81417211Y-47497314D01*
X81357242Y-47512500D01*
X79123028Y-47512500D01*
X79074810Y-47502909D01*
X79033933Y-47475595D01*
X77367432Y-45809094D01*
X77334820Y-45752610D01*
X77334820Y-45687388D01*
X77367430Y-45630905D01*
X78178405Y-44819931D01*
X78192243Y-44807972D01*
X78211822Y-44793398D01*
X78244178Y-44754835D01*
X78251608Y-44746729D01*
X78255573Y-44742765D01*
X78275123Y-44718038D01*
X78277395Y-44715248D01*
X78326396Y-44656853D01*
X78326398Y-44656848D01*
X78327227Y-44655861D01*
X78337847Y-44639192D01*
X78338391Y-44638024D01*
X78338395Y-44638020D01*
X78370630Y-44568889D01*
X78372166Y-44565715D01*
X78406394Y-44497566D01*
X78406395Y-44497560D01*
X78406971Y-44496414D01*
X78413463Y-44477739D01*
X78413723Y-44476477D01*
X78413725Y-44476474D01*
X78429135Y-44401837D01*
X78429920Y-44398297D01*
X78447795Y-44322877D01*
X78449806Y-44303196D01*
X78449457Y-44291205D01*
X78447552Y-44225745D01*
X78447500Y-44222082D01*
X78447500Y-40834500D01*
X78464381Y-40771500D01*
X78510500Y-40725381D01*
X78573500Y-40708500D01*
X79115406Y-40708500D01*
X79163624Y-40718091D01*
X79204501Y-40745405D01*
X81154595Y-42695500D01*
X81181909Y-42736377D01*
X81191500Y-42784595D01*
X81191500Y-44093638D01*
X81198011Y-44154200D01*
X81249111Y-44291205D01*
X81336738Y-44408261D01*
X81453794Y-44495888D01*
X81453795Y-44495888D01*
X81453796Y-44495889D01*
X81569314Y-44538975D01*
X81619646Y-44573537D01*
X81647821Y-44627707D01*
X81647219Y-44688763D01*
X81617982Y-44742367D01*
X81474676Y-44898040D01*
X81351580Y-45086451D01*
X81261177Y-45292548D01*
X81213455Y-45480999D01*
X81213456Y-45481000D01*
X83886544Y-45481000D01*
X83886544Y-45480999D01*
X83838822Y-45292548D01*
X83748419Y-45086451D01*
X83625321Y-44898037D01*
X83482018Y-44742367D01*
X83452780Y-44688763D01*
X83452178Y-44627707D01*
X83480353Y-44573537D01*
X83530683Y-44538976D01*
X83646204Y-44495889D01*
X83763261Y-44408261D01*
X83850889Y-44291204D01*
X83901989Y-44154201D01*
X83908500Y-44093638D01*
X83908500Y-42296362D01*
X83901989Y-42235799D01*
X83850889Y-42098796D01*
X83846566Y-42093021D01*
X83763261Y-41981738D01*
X83646205Y-41894111D01*
X83554830Y-41860030D01*
X83509201Y-41843011D01*
X83448638Y-41836500D01*
X82139594Y-41836500D01*
X82091376Y-41826909D01*
X82050499Y-41799595D01*
X79950405Y-39699500D01*
X79923091Y-39658623D01*
X79913500Y-39610405D01*
X79913500Y-38434500D01*
X79930381Y-38371500D01*
X79976500Y-38325381D01*
X80039500Y-38308500D01*
X80065473Y-38308500D01*
X80113691Y-38318091D01*
X80154568Y-38345405D01*
X81104595Y-39295432D01*
X81131909Y-39336309D01*
X81141500Y-39384527D01*
X81141500Y-40125540D01*
X81141501Y-40125545D01*
X81152113Y-40229426D01*
X81207885Y-40397738D01*
X81300970Y-40548652D01*
X81300972Y-40548655D01*
X81426344Y-40674027D01*
X81426346Y-40674028D01*
X81426348Y-40674030D01*
X81577262Y-40767115D01*
X81745574Y-40822887D01*
X81849455Y-40833500D01*
X83250544Y-40833499D01*
X83354426Y-40822887D01*
X83522738Y-40767115D01*
X83673652Y-40674030D01*
X83799030Y-40548652D01*
X83892115Y-40397738D01*
X83947887Y-40229426D01*
X83958500Y-40125545D01*
X83958499Y-39199456D01*
X83947887Y-39095574D01*
X83892115Y-38927262D01*
X83799030Y-38776348D01*
X83799028Y-38776346D01*
X83799027Y-38776344D01*
X83673655Y-38650972D01*
X83673652Y-38650970D01*
X83522738Y-38557885D01*
X83354426Y-38502113D01*
X83250545Y-38491500D01*
X83250541Y-38491500D01*
X82509528Y-38491500D01*
X82461310Y-38481909D01*
X82420432Y-38454595D01*
X81888933Y-37923095D01*
X81858196Y-37872936D01*
X81853580Y-37814289D01*
X81876093Y-37759939D01*
X81920826Y-37721733D01*
X81978029Y-37708000D01*
X82296000Y-37708000D01*
X82296000Y-36791500D01*
X82804000Y-36791500D01*
X82804000Y-37708000D01*
X83250503Y-37708000D01*
X83354328Y-37697393D01*
X83522522Y-37641659D01*
X83673342Y-37548632D01*
X83798632Y-37423342D01*
X83891659Y-37272522D01*
X83947393Y-37104328D01*
X83958000Y-37000503D01*
X83958000Y-36791500D01*
X82804000Y-36791500D01*
X82296000Y-36791500D01*
X82296000Y-35367000D01*
X82804000Y-35367000D01*
X82804000Y-36283500D01*
X83958000Y-36283500D01*
X83958000Y-36074497D01*
X83947393Y-35970671D01*
X83891659Y-35802477D01*
X83798632Y-35651657D01*
X83673342Y-35526367D01*
X83522522Y-35433340D01*
X83354328Y-35377606D01*
X83250503Y-35367000D01*
X82804000Y-35367000D01*
X82296000Y-35367000D01*
X81849497Y-35367000D01*
X81745671Y-35377606D01*
X81577477Y-35433340D01*
X81426657Y-35526367D01*
X81411095Y-35541930D01*
X81360936Y-35572668D01*
X81302289Y-35577284D01*
X81247939Y-35554771D01*
X81209733Y-35510038D01*
X81196000Y-35452835D01*
X81196000Y-34013695D01*
X81210471Y-33955067D01*
X81250559Y-33909906D01*
X81307058Y-33888584D01*
X81366988Y-33896000D01*
X81416585Y-33930450D01*
X81481602Y-34004324D01*
X81661524Y-34149600D01*
X81863409Y-34262380D01*
X82081450Y-34339419D01*
X82309375Y-34378500D01*
X82732713Y-34378500D01*
X82732714Y-34378500D01*
X82905418Y-34363801D01*
X82951934Y-34351689D01*
X83129207Y-34305530D01*
X83339929Y-34210278D01*
X83531523Y-34080783D01*
X83698476Y-33920772D01*
X83835985Y-33734847D01*
X83940095Y-33528357D01*
X84007811Y-33307243D01*
X84037184Y-33077865D01*
X84027369Y-32846822D01*
X83994927Y-32696293D01*
X83978650Y-32620765D01*
X83978649Y-32620762D01*
X83971410Y-32602748D01*
X83962327Y-32554878D01*
X83972086Y-32507139D01*
X83999226Y-32466676D01*
X84238658Y-32227244D01*
X84254979Y-32214170D01*
X84257014Y-32212002D01*
X84257018Y-32212000D01*
X84303676Y-32162312D01*
X84306367Y-32159535D01*
X84326135Y-32139769D01*
X84328611Y-32136576D01*
X84336316Y-32127553D01*
X84366586Y-32095321D01*
X84376345Y-32077567D01*
X84387198Y-32061045D01*
X84399614Y-32045040D01*
X84417174Y-32004459D01*
X84422388Y-31993815D01*
X84443695Y-31955060D01*
X84448732Y-31935439D01*
X84455138Y-31916730D01*
X84463181Y-31898145D01*
X84470096Y-31854477D01*
X84472504Y-31842853D01*
X84483500Y-31800029D01*
X84483500Y-31779776D01*
X84485051Y-31760066D01*
X84488220Y-31740057D01*
X84484059Y-31696039D01*
X84483500Y-31684181D01*
X84483500Y-30117153D01*
X84485795Y-30096363D01*
X84483562Y-30025301D01*
X84483500Y-30021343D01*
X84483500Y-29993448D01*
X84483500Y-29993443D01*
X84482993Y-29989437D01*
X84482062Y-29977604D01*
X84480674Y-29933410D01*
X84475020Y-29913951D01*
X84471013Y-29894605D01*
X84468474Y-29874502D01*
X84452194Y-29833385D01*
X84448353Y-29822165D01*
X84436017Y-29779704D01*
X84425706Y-29762269D01*
X84417008Y-29744514D01*
X84409552Y-29725682D01*
X84383565Y-29689915D01*
X84377047Y-29679992D01*
X84354542Y-29641937D01*
X84340212Y-29627607D01*
X84327378Y-29612580D01*
X84315472Y-29596192D01*
X84315471Y-29596191D01*
X84281394Y-29567999D01*
X84272616Y-29560011D01*
X83918258Y-29205653D01*
X83888539Y-29158502D01*
X83882069Y-29103144D01*
X83900112Y-29050411D01*
X83966659Y-28942521D01*
X84022393Y-28774328D01*
X84033000Y-28670503D01*
X84033000Y-28274000D01*
X81067000Y-28274000D01*
X81067000Y-28585500D01*
X81050119Y-28648500D01*
X81004000Y-28694619D01*
X80941000Y-28711500D01*
X79270605Y-28711500D01*
X79249815Y-28709204D01*
X79178753Y-28711438D01*
X79174795Y-28711500D01*
X79143683Y-28711500D01*
X79082983Y-28695915D01*
X79037299Y-28653017D01*
X79017932Y-28593416D01*
X79029672Y-28531858D01*
X79069616Y-28483569D01*
X79083378Y-28473569D01*
X79093303Y-28467048D01*
X79131362Y-28444542D01*
X79145691Y-28430212D01*
X79160719Y-28417377D01*
X79177107Y-28405472D01*
X79205303Y-28371386D01*
X79213262Y-28362640D01*
X80235501Y-27340402D01*
X80276376Y-27313091D01*
X80324594Y-27303500D01*
X80941000Y-27303500D01*
X81004000Y-27320381D01*
X81050119Y-27366500D01*
X81067000Y-27429500D01*
X81067000Y-27766000D01*
X84033000Y-27766000D01*
X84033000Y-27429500D01*
X84049881Y-27366500D01*
X84096000Y-27320381D01*
X84159000Y-27303500D01*
X84775406Y-27303500D01*
X84823624Y-27313091D01*
X84864501Y-27340405D01*
X85689595Y-28165499D01*
X85716909Y-28206376D01*
X85726500Y-28254594D01*
X85726500Y-36766227D01*
X85708741Y-36830724D01*
X85660470Y-36877040D01*
X85586986Y-36916807D01*
X85402779Y-37060182D01*
X85244684Y-37231919D01*
X85117016Y-37427330D01*
X85023250Y-37641094D01*
X84993155Y-37759939D01*
X84965949Y-37867374D01*
X84946673Y-38100000D01*
X84965949Y-38332626D01*
X84965949Y-38332629D01*
X84965950Y-38332630D01*
X85008868Y-38502113D01*
X85023251Y-38558907D01*
X85117016Y-38772669D01*
X85244686Y-38968083D01*
X85374594Y-39109200D01*
X85396144Y-39132610D01*
X85402780Y-39139818D01*
X85586983Y-39283190D01*
X85792273Y-39394287D01*
X86013049Y-39470080D01*
X86243288Y-39508500D01*
X86476709Y-39508500D01*
X86476712Y-39508500D01*
X86706951Y-39470080D01*
X86927727Y-39394287D01*
X87133017Y-39283190D01*
X87317220Y-39139818D01*
X87317221Y-39139816D01*
X87325459Y-39133405D01*
X87326550Y-39134806D01*
X87368451Y-39107847D01*
X87431915Y-39103934D01*
X87489208Y-39131509D01*
X87525742Y-39183550D01*
X87549111Y-39246206D01*
X87636738Y-39363261D01*
X87753794Y-39450888D01*
X87753795Y-39450888D01*
X87753796Y-39450889D01*
X87890799Y-39501989D01*
X87951362Y-39508500D01*
X89848638Y-39508500D01*
X89909201Y-39501989D01*
X90046204Y-39450889D01*
X90163261Y-39363261D01*
X90250889Y-39246204D01*
X90301989Y-39109201D01*
X90308500Y-39048638D01*
X90308500Y-37151362D01*
X90301989Y-37090799D01*
X90250889Y-36953796D01*
X90223201Y-36916809D01*
X90163261Y-36836738D01*
X90046205Y-36749111D01*
X89958758Y-36716495D01*
X89909201Y-36698011D01*
X89848638Y-36691500D01*
X87951362Y-36691500D01*
X87890799Y-36698011D01*
X87753794Y-36749111D01*
X87636738Y-36836738D01*
X87549109Y-36953796D01*
X87525741Y-37016449D01*
X87489210Y-37068488D01*
X87431920Y-37096063D01*
X87368460Y-37092154D01*
X87326549Y-37065193D01*
X87325459Y-37066595D01*
X87180533Y-36953794D01*
X87133017Y-36916810D01*
X87133016Y-36916809D01*
X87133013Y-36916807D01*
X87059530Y-36877040D01*
X87011259Y-36830724D01*
X86993500Y-36766227D01*
X86993500Y-28023853D01*
X86995795Y-28003064D01*
X86993562Y-27932014D01*
X86993500Y-27928055D01*
X86993500Y-27900149D01*
X86993500Y-27900144D01*
X86992992Y-27896131D01*
X86992061Y-27884297D01*
X86990673Y-27840110D01*
X86985020Y-27820656D01*
X86981012Y-27801298D01*
X86978474Y-27781203D01*
X86962190Y-27740077D01*
X86958359Y-27728888D01*
X86946018Y-27686407D01*
X86935704Y-27668968D01*
X86927008Y-27651216D01*
X86919552Y-27632383D01*
X86893571Y-27596624D01*
X86887050Y-27586698D01*
X86864542Y-27548637D01*
X86864541Y-27548636D01*
X86850213Y-27534308D01*
X86837376Y-27519277D01*
X86825473Y-27502893D01*
X86791406Y-27474711D01*
X86782626Y-27466721D01*
X85597244Y-26281339D01*
X85584171Y-26265021D01*
X85574989Y-26256399D01*
X85532348Y-26216356D01*
X85529537Y-26213632D01*
X85509770Y-26193865D01*
X85506575Y-26191386D01*
X85497553Y-26183681D01*
X85465320Y-26153413D01*
X85447567Y-26143653D01*
X85431041Y-26132797D01*
X85415041Y-26120386D01*
X85374466Y-26102828D01*
X85363804Y-26097604D01*
X85325063Y-26076305D01*
X85311313Y-26072775D01*
X85305437Y-26071266D01*
X85286731Y-26064862D01*
X85268145Y-26056819D01*
X85224475Y-26049902D01*
X85212853Y-26047495D01*
X85203050Y-26044978D01*
X85170030Y-26036500D01*
X85170029Y-26036500D01*
X85149776Y-26036500D01*
X85130066Y-26034949D01*
X85110057Y-26031779D01*
X85066039Y-26035941D01*
X85054181Y-26036500D01*
X83900030Y-26036500D01*
X83418203Y-26036500D01*
X80093853Y-26036500D01*
X80073064Y-26034204D01*
X80002014Y-26036438D01*
X79998055Y-26036500D01*
X79970139Y-26036500D01*
X79966123Y-26037007D01*
X79954303Y-26037937D01*
X79910110Y-26039326D01*
X79890657Y-26044978D01*
X79871303Y-26048986D01*
X79851204Y-26051525D01*
X79810096Y-26067801D01*
X79798870Y-26071644D01*
X79756408Y-26083981D01*
X79738964Y-26094297D01*
X79721215Y-26102991D01*
X79702384Y-26110446D01*
X79666625Y-26136427D01*
X79656706Y-26142943D01*
X79618636Y-26165457D01*
X79604309Y-26179785D01*
X79589279Y-26192622D01*
X79572894Y-26204526D01*
X79544711Y-26238593D01*
X79536724Y-26247369D01*
X79103593Y-26680500D01*
X79053436Y-26711237D01*
X78994789Y-26715853D01*
X78940439Y-26693340D01*
X78902233Y-26648607D01*
X78888500Y-26591404D01*
X78888500Y-26453503D01*
X78888500Y-26453498D01*
X78885562Y-26416169D01*
X78839145Y-26256399D01*
X78754453Y-26113193D01*
X78754452Y-26113192D01*
X78746350Y-26099492D01*
X78749942Y-26097367D01*
X78732759Y-26067669D01*
X78732759Y-26002331D01*
X78749942Y-25972632D01*
X78746350Y-25970508D01*
X78754453Y-25956807D01*
X78839145Y-25813601D01*
X78885562Y-25653831D01*
X78888500Y-25616502D01*
X78888500Y-25183498D01*
X78885562Y-25146169D01*
X78839145Y-24986399D01*
X78754453Y-24843193D01*
X78754451Y-24843191D01*
X78754450Y-24843189D01*
X78636810Y-24725549D01*
X78493599Y-24640854D01*
X78333833Y-24594438D01*
X78323165Y-24593598D01*
X78296502Y-24591500D01*
X76513498Y-24591500D01*
X76490167Y-24593336D01*
X76476166Y-24594438D01*
X76316400Y-24640854D01*
X76173189Y-24725549D01*
X76055549Y-24843189D01*
X75970854Y-24986400D01*
X75924438Y-25146166D01*
X75921500Y-25183503D01*
X75921500Y-25616497D01*
X75924438Y-25653833D01*
X75970854Y-25813599D01*
X76063650Y-25970508D01*
X76060071Y-25972624D01*
X76077256Y-26002389D01*
X76077256Y-26067611D01*
X76060071Y-26097375D01*
X76063650Y-26099492D01*
X75970854Y-26256400D01*
X75924438Y-26416166D01*
X75921500Y-26453503D01*
X75921500Y-26703870D01*
X75908124Y-26760366D01*
X75870836Y-26804867D01*
X75817553Y-26827925D01*
X75759588Y-26824644D01*
X75709247Y-26795720D01*
X75672654Y-26761357D01*
X75669842Y-26758632D01*
X75650075Y-26738865D01*
X75646880Y-26736386D01*
X75637858Y-26728681D01*
X75605625Y-26698413D01*
X75587872Y-26688653D01*
X75571346Y-26677797D01*
X75555346Y-26665386D01*
X75514771Y-26647828D01*
X75504109Y-26642604D01*
X75465368Y-26621305D01*
X75451618Y-26617775D01*
X75445742Y-26616266D01*
X75427036Y-26609862D01*
X75408450Y-26601819D01*
X75364780Y-26594902D01*
X75353158Y-26592495D01*
X75348909Y-26591404D01*
X75310335Y-26581500D01*
X75310334Y-26581500D01*
X75290081Y-26581500D01*
X75270371Y-26579949D01*
X75250362Y-26576779D01*
X75206344Y-26580941D01*
X75194486Y-26581500D01*
X74064500Y-26581500D01*
X74001500Y-26564619D01*
X73955381Y-26518500D01*
X73939277Y-26458402D01*
X73938888Y-26458433D01*
X73938722Y-26456330D01*
X73938500Y-26455500D01*
X73938500Y-26453503D01*
X73938500Y-26453498D01*
X73935562Y-26416169D01*
X73889145Y-26256399D01*
X73804453Y-26113193D01*
X73804452Y-26113192D01*
X73796350Y-26099492D01*
X73799942Y-26097367D01*
X73782759Y-26067669D01*
X73782759Y-26002331D01*
X73799942Y-25972632D01*
X73796350Y-25970508D01*
X73804453Y-25956807D01*
X73889145Y-25813601D01*
X73935562Y-25653831D01*
X73938500Y-25616502D01*
X73938500Y-25183498D01*
X73935562Y-25146169D01*
X73889145Y-24986399D01*
X73804453Y-24843193D01*
X73804451Y-24843191D01*
X73804450Y-24843189D01*
X73686810Y-24725549D01*
X73543599Y-24640854D01*
X73383833Y-24594438D01*
X73373165Y-24593598D01*
X73346502Y-24591500D01*
X71563498Y-24591500D01*
X71540167Y-24593336D01*
X71526166Y-24594438D01*
X71366400Y-24640854D01*
X71223189Y-24725549D01*
X71105549Y-24843189D01*
X71020854Y-24986400D01*
X70974438Y-25146166D01*
X70971500Y-25183503D01*
X70971500Y-25616497D01*
X70974438Y-25653833D01*
X71020854Y-25813599D01*
X71113650Y-25970508D01*
X71110071Y-25972624D01*
X71127256Y-26002389D01*
X71127256Y-26067611D01*
X71110071Y-26097375D01*
X71113650Y-26099492D01*
X71020854Y-26256400D01*
X70974438Y-26416166D01*
X70971500Y-26453503D01*
X70971500Y-26828654D01*
X70961909Y-26876872D01*
X70934595Y-26917749D01*
X67291336Y-30561006D01*
X67275016Y-30574082D01*
X67226370Y-30625884D01*
X67223620Y-30628722D01*
X67203868Y-30648475D01*
X67203864Y-30648479D01*
X67203865Y-30648479D01*
X67201379Y-30651682D01*
X67193687Y-30660688D01*
X67163413Y-30692927D01*
X67153652Y-30710683D01*
X67142801Y-30727201D01*
X67130385Y-30743208D01*
X67112824Y-30783788D01*
X67107604Y-30794444D01*
X67086304Y-30833189D01*
X67081267Y-30852808D01*
X67074864Y-30871510D01*
X67066818Y-30890104D01*
X67059901Y-30933773D01*
X67057495Y-30945393D01*
X67046500Y-30988219D01*
X67046500Y-31008473D01*
X67044949Y-31028183D01*
X67041779Y-31048191D01*
X67045941Y-31092210D01*
X67046500Y-31104068D01*
X67046500Y-33213121D01*
X67029984Y-33275485D01*
X66984765Y-33321500D01*
X66922699Y-33339102D01*
X66860056Y-33323676D01*
X66813260Y-33279269D01*
X66759030Y-33191348D01*
X66759028Y-33191346D01*
X66759027Y-33191344D01*
X66633655Y-33065972D01*
X66633652Y-33065970D01*
X66482738Y-32972885D01*
X66314426Y-32917113D01*
X66210545Y-32906500D01*
X66210540Y-32906500D01*
X65309459Y-32906500D01*
X65205573Y-32917113D01*
X65037262Y-32972885D01*
X64886344Y-33065972D01*
X64760972Y-33191344D01*
X64710094Y-33273831D01*
X64667885Y-33342262D01*
X64612113Y-33510574D01*
X64605347Y-33576807D01*
X64601500Y-33614459D01*
X64601500Y-34965540D01*
X64608393Y-35033014D01*
X64612113Y-35069426D01*
X64667885Y-35237738D01*
X64747540Y-35366879D01*
X64760972Y-35388655D01*
X64886344Y-35514027D01*
X64886346Y-35514028D01*
X64886348Y-35514030D01*
X65037262Y-35607115D01*
X65205574Y-35662887D01*
X65236253Y-35666021D01*
X65293307Y-35671851D01*
X65350756Y-35692603D01*
X65391694Y-35737937D01*
X65406500Y-35797198D01*
X65406500Y-36565500D01*
X65389619Y-36628500D01*
X65343500Y-36674619D01*
X65280500Y-36691500D01*
X65091362Y-36691500D01*
X65030799Y-36698011D01*
X64893794Y-36749111D01*
X64776738Y-36836738D01*
X64689111Y-36953794D01*
X64671690Y-37000503D01*
X64638011Y-37090799D01*
X64631500Y-37151362D01*
X64631500Y-39048638D01*
X64638011Y-39109201D01*
X64649431Y-39139818D01*
X64689111Y-39246205D01*
X64776738Y-39363261D01*
X64893794Y-39450888D01*
X64893795Y-39450888D01*
X64893796Y-39450889D01*
X65030799Y-39501989D01*
X65091362Y-39508500D01*
X66988638Y-39508500D01*
X67049201Y-39501989D01*
X67186204Y-39450889D01*
X67303261Y-39363261D01*
X67390889Y-39246204D01*
X67414258Y-39183549D01*
X67450788Y-39131512D01*
X67508077Y-39103936D01*
X67571538Y-39107844D01*
X67613450Y-39134805D01*
X67614541Y-39133405D01*
X67622779Y-39139816D01*
X67622780Y-39139818D01*
X67806983Y-39283190D01*
X68012273Y-39394287D01*
X68233049Y-39470080D01*
X68463288Y-39508500D01*
X68696709Y-39508500D01*
X68696712Y-39508500D01*
X68926951Y-39470080D01*
X69147727Y-39394287D01*
X69353017Y-39283190D01*
X69537220Y-39139818D01*
X69695314Y-38968083D01*
X69822984Y-38772669D01*
X69916749Y-38558907D01*
X69974051Y-38332626D01*
X69993327Y-38100000D01*
X69974051Y-37867374D01*
X69916749Y-37641093D01*
X69822984Y-37427331D01*
X69695314Y-37231917D01*
X69537220Y-37060182D01*
X69353017Y-36916810D01*
X69292530Y-36884076D01*
X69147726Y-36805712D01*
X68982852Y-36749111D01*
X68926951Y-36729920D01*
X68696712Y-36691500D01*
X68463288Y-36691500D01*
X68460237Y-36692009D01*
X68406050Y-36689206D01*
X68358066Y-36663875D01*
X68325183Y-36620714D01*
X68313500Y-36567727D01*
X68313500Y-35799500D01*
X68330381Y-35736500D01*
X68376500Y-35690381D01*
X68439500Y-35673500D01*
X69310424Y-35673499D01*
X69310544Y-35673499D01*
X69414426Y-35662887D01*
X69582738Y-35607115D01*
X69733652Y-35514030D01*
X69794847Y-35452835D01*
X69856405Y-35391278D01*
X69906564Y-35360540D01*
X69965211Y-35355924D01*
X70019561Y-35378437D01*
X70057767Y-35423170D01*
X70071500Y-35480373D01*
X70071500Y-36331147D01*
X70069204Y-36351935D01*
X70071438Y-36422986D01*
X70071500Y-36426945D01*
X70071500Y-36454857D01*
X70072007Y-36458873D01*
X70072937Y-36470696D01*
X70074326Y-36514892D01*
X70079977Y-36534341D01*
X70083986Y-36553696D01*
X70086525Y-36573794D01*
X70102801Y-36614903D01*
X70106644Y-36626130D01*
X70118980Y-36668590D01*
X70129294Y-36686030D01*
X70137987Y-36703774D01*
X70143024Y-36716495D01*
X70145449Y-36722619D01*
X70171431Y-36758380D01*
X70177948Y-36768301D01*
X70200458Y-36806363D01*
X70214778Y-36820683D01*
X70227618Y-36835716D01*
X70239526Y-36852105D01*
X70273598Y-36880292D01*
X70282378Y-36888282D01*
X70449595Y-37055499D01*
X70476909Y-37096376D01*
X70486500Y-37144594D01*
X70486500Y-39415406D01*
X70476909Y-39463624D01*
X70449597Y-39504498D01*
X68209913Y-41744181D01*
X67861073Y-42093021D01*
X67802431Y-42126189D01*
X67735082Y-42124402D01*
X67597243Y-42082189D01*
X67597240Y-42082188D01*
X67367864Y-42052815D01*
X67136824Y-42062630D01*
X66910762Y-42111350D01*
X66696189Y-42197573D01*
X66696187Y-42197574D01*
X66634106Y-42235799D01*
X66499268Y-42318822D01*
X66325678Y-42471600D01*
X66180399Y-42651524D01*
X66067620Y-42853408D01*
X66067620Y-42853409D01*
X65990581Y-43071450D01*
X65953794Y-43286000D01*
X65951500Y-43299377D01*
X65951500Y-43722714D01*
X65966198Y-43895418D01*
X66024469Y-44119206D01*
X66119721Y-44329929D01*
X66186328Y-44428476D01*
X66249217Y-44521523D01*
X66409228Y-44688476D01*
X66595153Y-44825985D01*
X66601511Y-44829190D01*
X66607227Y-44832073D01*
X66657793Y-44878519D01*
X66676500Y-44944581D01*
X66676500Y-46457905D01*
X66666909Y-46506123D01*
X66639595Y-46547001D01*
X66343203Y-46843390D01*
X66296341Y-46873005D01*
X66241305Y-46879642D01*
X66217635Y-46877224D01*
X66210544Y-46876500D01*
X65309459Y-46876500D01*
X65205573Y-46887113D01*
X65037262Y-46942885D01*
X64886344Y-47035972D01*
X64760972Y-47161344D01*
X64760970Y-47161348D01*
X64667885Y-47312262D01*
X64612113Y-47480574D01*
X64601734Y-47582171D01*
X64601500Y-47584459D01*
X64601500Y-48935540D01*
X63525500Y-48935540D01*
X63525500Y-27940000D01*
X65954341Y-27940000D01*
X65974937Y-28175409D01*
X66036096Y-28403662D01*
X66135965Y-28617829D01*
X66271507Y-28811404D01*
X66438595Y-28978492D01*
X66438598Y-28978494D01*
X66438599Y-28978495D01*
X66632171Y-29114035D01*
X66846337Y-29213903D01*
X67074592Y-29275063D01*
X67251034Y-29290500D01*
X67368960Y-29290500D01*
X67368966Y-29290500D01*
X67545408Y-29275063D01*
X67773663Y-29213903D01*
X67987829Y-29114035D01*
X68181401Y-28978495D01*
X68348495Y-28811401D01*
X68484035Y-28617830D01*
X68583903Y-28403663D01*
X68645063Y-28175408D01*
X68665659Y-27940000D01*
X68645063Y-27704592D01*
X68583903Y-27476337D01*
X68484035Y-27262171D01*
X68348495Y-27068599D01*
X68348494Y-27068598D01*
X68348492Y-27068595D01*
X68181404Y-26901507D01*
X67987829Y-26765965D01*
X67773662Y-26666096D01*
X67545409Y-26604937D01*
X67520201Y-26602731D01*
X67368966Y-26589500D01*
X67251034Y-26589500D01*
X67118702Y-26601077D01*
X67074590Y-26604937D01*
X66846337Y-26666096D01*
X66632170Y-26765965D01*
X66438595Y-26901507D01*
X66271507Y-27068595D01*
X66135965Y-27262169D01*
X66036096Y-27476336D01*
X65974937Y-27704590D01*
X65954341Y-27940000D01*
X63525500Y-27940000D01*
X63525500Y-24281500D01*
X63542381Y-24218500D01*
X63588500Y-24172381D01*
X63651500Y-24155500D01*
X91288500Y-24155500D01*
X91351500Y-24172381D01*
G37*
%TD.AperFunction*%
%TD*%
M02*
