%TF.GenerationSoftware,KiCad,Pcbnew,(5.1.6)-1*%
%TF.CreationDate,2020-08-23T19:38:50+02:00*%
%TF.ProjectId,opto-counter,6f70746f-2d63-46f7-956e-7465722e6b69,rev?*%
%TF.SameCoordinates,Original*%
%TF.FileFunction,Paste,Top*%
%TF.FilePolarity,Positive*%
%FSLAX46Y46*%
G04 Gerber Fmt 4.6, Leading zero omitted, Abs format (unit mm)*
G04 Created by KiCad (PCBNEW (5.1.6)-1) date 2020-08-23 19:38:50*
%MOMM*%
%LPD*%
G01*
G04 APERTURE LIST*
G04 APERTURE END LIST*
%TO.C,C1*%
G36*
G01*
X77800000Y-29625000D02*
X77800000Y-28375000D01*
G75*
G02*
X78050000Y-28125000I250000J0D01*
G01*
X78975000Y-28125000D01*
G75*
G02*
X79225000Y-28375000I0J-250000D01*
G01*
X79225000Y-29625000D01*
G75*
G02*
X78975000Y-29875000I-250000J0D01*
G01*
X78050000Y-29875000D01*
G75*
G02*
X77800000Y-29625000I0J250000D01*
G01*
G37*
G36*
G01*
X80775000Y-29625000D02*
X80775000Y-28375000D01*
G75*
G02*
X81025000Y-28125000I250000J0D01*
G01*
X81950000Y-28125000D01*
G75*
G02*
X82200000Y-28375000I0J-250000D01*
G01*
X82200000Y-29625000D01*
G75*
G02*
X81950000Y-29875000I-250000J0D01*
G01*
X81025000Y-29875000D01*
G75*
G02*
X80775000Y-29625000I0J250000D01*
G01*
G37*
%TD*%
%TO.C,R1*%
G36*
G01*
X70375000Y-27800000D02*
X71625000Y-27800000D01*
G75*
G02*
X71875000Y-28050000I0J-250000D01*
G01*
X71875000Y-28975000D01*
G75*
G02*
X71625000Y-29225000I-250000J0D01*
G01*
X70375000Y-29225000D01*
G75*
G02*
X70125000Y-28975000I0J250000D01*
G01*
X70125000Y-28050000D01*
G75*
G02*
X70375000Y-27800000I250000J0D01*
G01*
G37*
G36*
G01*
X70375000Y-30775000D02*
X71625000Y-30775000D01*
G75*
G02*
X71875000Y-31025000I0J-250000D01*
G01*
X71875000Y-31950000D01*
G75*
G02*
X71625000Y-32200000I-250000J0D01*
G01*
X70375000Y-32200000D01*
G75*
G02*
X70125000Y-31950000I0J250000D01*
G01*
X70125000Y-31025000D01*
G75*
G02*
X70375000Y-30775000I250000J0D01*
G01*
G37*
%TD*%
%TO.C,R2*%
G36*
G01*
X73625000Y-39687500D02*
X72375000Y-39687500D01*
G75*
G02*
X72125000Y-39437500I0J250000D01*
G01*
X72125000Y-38512500D01*
G75*
G02*
X72375000Y-38262500I250000J0D01*
G01*
X73625000Y-38262500D01*
G75*
G02*
X73875000Y-38512500I0J-250000D01*
G01*
X73875000Y-39437500D01*
G75*
G02*
X73625000Y-39687500I-250000J0D01*
G01*
G37*
G36*
G01*
X73625000Y-36712500D02*
X72375000Y-36712500D01*
G75*
G02*
X72125000Y-36462500I0J250000D01*
G01*
X72125000Y-35537500D01*
G75*
G02*
X72375000Y-35287500I250000J0D01*
G01*
X73625000Y-35287500D01*
G75*
G02*
X73875000Y-35537500I0J-250000D01*
G01*
X73875000Y-36462500D01*
G75*
G02*
X73625000Y-36712500I-250000J0D01*
G01*
G37*
%TD*%
%TO.C,R3*%
G36*
G01*
X73375000Y-30775000D02*
X74625000Y-30775000D01*
G75*
G02*
X74875000Y-31025000I0J-250000D01*
G01*
X74875000Y-31950000D01*
G75*
G02*
X74625000Y-32200000I-250000J0D01*
G01*
X73375000Y-32200000D01*
G75*
G02*
X73125000Y-31950000I0J250000D01*
G01*
X73125000Y-31025000D01*
G75*
G02*
X73375000Y-30775000I250000J0D01*
G01*
G37*
G36*
G01*
X73375000Y-27800000D02*
X74625000Y-27800000D01*
G75*
G02*
X74875000Y-28050000I0J-250000D01*
G01*
X74875000Y-28975000D01*
G75*
G02*
X74625000Y-29225000I-250000J0D01*
G01*
X73375000Y-29225000D01*
G75*
G02*
X73125000Y-28975000I0J250000D01*
G01*
X73125000Y-28050000D01*
G75*
G02*
X73375000Y-27800000I250000J0D01*
G01*
G37*
%TD*%
%TO.C,U1*%
G36*
G01*
X76550000Y-31340000D02*
X76550000Y-31040000D01*
G75*
G02*
X76700000Y-30890000I150000J0D01*
G01*
X78350000Y-30890000D01*
G75*
G02*
X78500000Y-31040000I0J-150000D01*
G01*
X78500000Y-31340000D01*
G75*
G02*
X78350000Y-31490000I-150000J0D01*
G01*
X76700000Y-31490000D01*
G75*
G02*
X76550000Y-31340000I0J150000D01*
G01*
G37*
G36*
G01*
X76550000Y-32610000D02*
X76550000Y-32310000D01*
G75*
G02*
X76700000Y-32160000I150000J0D01*
G01*
X78350000Y-32160000D01*
G75*
G02*
X78500000Y-32310000I0J-150000D01*
G01*
X78500000Y-32610000D01*
G75*
G02*
X78350000Y-32760000I-150000J0D01*
G01*
X76700000Y-32760000D01*
G75*
G02*
X76550000Y-32610000I0J150000D01*
G01*
G37*
G36*
G01*
X76550000Y-33880000D02*
X76550000Y-33580000D01*
G75*
G02*
X76700000Y-33430000I150000J0D01*
G01*
X78350000Y-33430000D01*
G75*
G02*
X78500000Y-33580000I0J-150000D01*
G01*
X78500000Y-33880000D01*
G75*
G02*
X78350000Y-34030000I-150000J0D01*
G01*
X76700000Y-34030000D01*
G75*
G02*
X76550000Y-33880000I0J150000D01*
G01*
G37*
G36*
G01*
X76550000Y-35150000D02*
X76550000Y-34850000D01*
G75*
G02*
X76700000Y-34700000I150000J0D01*
G01*
X78350000Y-34700000D01*
G75*
G02*
X78500000Y-34850000I0J-150000D01*
G01*
X78500000Y-35150000D01*
G75*
G02*
X78350000Y-35300000I-150000J0D01*
G01*
X76700000Y-35300000D01*
G75*
G02*
X76550000Y-35150000I0J150000D01*
G01*
G37*
G36*
G01*
X76550000Y-36420000D02*
X76550000Y-36120000D01*
G75*
G02*
X76700000Y-35970000I150000J0D01*
G01*
X78350000Y-35970000D01*
G75*
G02*
X78500000Y-36120000I0J-150000D01*
G01*
X78500000Y-36420000D01*
G75*
G02*
X78350000Y-36570000I-150000J0D01*
G01*
X76700000Y-36570000D01*
G75*
G02*
X76550000Y-36420000I0J150000D01*
G01*
G37*
G36*
G01*
X76550000Y-37690000D02*
X76550000Y-37390000D01*
G75*
G02*
X76700000Y-37240000I150000J0D01*
G01*
X78350000Y-37240000D01*
G75*
G02*
X78500000Y-37390000I0J-150000D01*
G01*
X78500000Y-37690000D01*
G75*
G02*
X78350000Y-37840000I-150000J0D01*
G01*
X76700000Y-37840000D01*
G75*
G02*
X76550000Y-37690000I0J150000D01*
G01*
G37*
G36*
G01*
X76550000Y-38960000D02*
X76550000Y-38660000D01*
G75*
G02*
X76700000Y-38510000I150000J0D01*
G01*
X78350000Y-38510000D01*
G75*
G02*
X78500000Y-38660000I0J-150000D01*
G01*
X78500000Y-38960000D01*
G75*
G02*
X78350000Y-39110000I-150000J0D01*
G01*
X76700000Y-39110000D01*
G75*
G02*
X76550000Y-38960000I0J150000D01*
G01*
G37*
G36*
G01*
X81500000Y-38960000D02*
X81500000Y-38660000D01*
G75*
G02*
X81650000Y-38510000I150000J0D01*
G01*
X83300000Y-38510000D01*
G75*
G02*
X83450000Y-38660000I0J-150000D01*
G01*
X83450000Y-38960000D01*
G75*
G02*
X83300000Y-39110000I-150000J0D01*
G01*
X81650000Y-39110000D01*
G75*
G02*
X81500000Y-38960000I0J150000D01*
G01*
G37*
G36*
G01*
X81500000Y-37690000D02*
X81500000Y-37390000D01*
G75*
G02*
X81650000Y-37240000I150000J0D01*
G01*
X83300000Y-37240000D01*
G75*
G02*
X83450000Y-37390000I0J-150000D01*
G01*
X83450000Y-37690000D01*
G75*
G02*
X83300000Y-37840000I-150000J0D01*
G01*
X81650000Y-37840000D01*
G75*
G02*
X81500000Y-37690000I0J150000D01*
G01*
G37*
G36*
G01*
X81500000Y-36420000D02*
X81500000Y-36120000D01*
G75*
G02*
X81650000Y-35970000I150000J0D01*
G01*
X83300000Y-35970000D01*
G75*
G02*
X83450000Y-36120000I0J-150000D01*
G01*
X83450000Y-36420000D01*
G75*
G02*
X83300000Y-36570000I-150000J0D01*
G01*
X81650000Y-36570000D01*
G75*
G02*
X81500000Y-36420000I0J150000D01*
G01*
G37*
G36*
G01*
X81500000Y-35150000D02*
X81500000Y-34850000D01*
G75*
G02*
X81650000Y-34700000I150000J0D01*
G01*
X83300000Y-34700000D01*
G75*
G02*
X83450000Y-34850000I0J-150000D01*
G01*
X83450000Y-35150000D01*
G75*
G02*
X83300000Y-35300000I-150000J0D01*
G01*
X81650000Y-35300000D01*
G75*
G02*
X81500000Y-35150000I0J150000D01*
G01*
G37*
G36*
G01*
X81500000Y-33880000D02*
X81500000Y-33580000D01*
G75*
G02*
X81650000Y-33430000I150000J0D01*
G01*
X83300000Y-33430000D01*
G75*
G02*
X83450000Y-33580000I0J-150000D01*
G01*
X83450000Y-33880000D01*
G75*
G02*
X83300000Y-34030000I-150000J0D01*
G01*
X81650000Y-34030000D01*
G75*
G02*
X81500000Y-33880000I0J150000D01*
G01*
G37*
G36*
G01*
X81500000Y-32610000D02*
X81500000Y-32310000D01*
G75*
G02*
X81650000Y-32160000I150000J0D01*
G01*
X83300000Y-32160000D01*
G75*
G02*
X83450000Y-32310000I0J-150000D01*
G01*
X83450000Y-32610000D01*
G75*
G02*
X83300000Y-32760000I-150000J0D01*
G01*
X81650000Y-32760000D01*
G75*
G02*
X81500000Y-32610000I0J150000D01*
G01*
G37*
G36*
G01*
X81500000Y-31340000D02*
X81500000Y-31040000D01*
G75*
G02*
X81650000Y-30890000I150000J0D01*
G01*
X83300000Y-30890000D01*
G75*
G02*
X83450000Y-31040000I0J-150000D01*
G01*
X83450000Y-31340000D01*
G75*
G02*
X83300000Y-31490000I-150000J0D01*
G01*
X81650000Y-31490000D01*
G75*
G02*
X81500000Y-31340000I0J150000D01*
G01*
G37*
%TD*%
M02*
