%TF.GenerationSoftware,KiCad,Pcbnew,(5.1.6)-1*%
%TF.CreationDate,2020-08-23T19:38:51+02:00*%
%TF.ProjectId,opto-counter,6f70746f-2d63-46f7-956e-7465722e6b69,rev?*%
%TF.SameCoordinates,Original*%
%TF.FileFunction,Soldermask,Top*%
%TF.FilePolarity,Negative*%
%FSLAX46Y46*%
G04 Gerber Fmt 4.6, Leading zero omitted, Abs format (unit mm)*
G04 Created by KiCad (PCBNEW (5.1.6)-1) date 2020-08-23 19:38:51*
%MOMM*%
%LPD*%
G01*
G04 APERTURE LIST*
%ADD10O,2.050000X1.800000*%
%ADD11O,1.800000X2.050000*%
%ADD12C,2.300000*%
G04 APERTURE END LIST*
%TO.C,C1*%
G36*
G01*
X77750000Y-29657456D02*
X77750000Y-28342544D01*
G75*
G02*
X78017544Y-28075000I267544J0D01*
G01*
X79007456Y-28075000D01*
G75*
G02*
X79275000Y-28342544I0J-267544D01*
G01*
X79275000Y-29657456D01*
G75*
G02*
X79007456Y-29925000I-267544J0D01*
G01*
X78017544Y-29925000D01*
G75*
G02*
X77750000Y-29657456I0J267544D01*
G01*
G37*
G36*
G01*
X80725000Y-29657456D02*
X80725000Y-28342544D01*
G75*
G02*
X80992544Y-28075000I267544J0D01*
G01*
X81982456Y-28075000D01*
G75*
G02*
X82250000Y-28342544I0J-267544D01*
G01*
X82250000Y-29657456D01*
G75*
G02*
X81982456Y-29925000I-267544J0D01*
G01*
X80992544Y-29925000D01*
G75*
G02*
X80725000Y-29657456I0J267544D01*
G01*
G37*
%TD*%
%TO.C,J1*%
G36*
G01*
X48714707Y-29175001D02*
X50235295Y-29175001D01*
G75*
G02*
X50500001Y-29439707I0J-264706D01*
G01*
X50500001Y-30710295D01*
G75*
G02*
X50235295Y-30975001I-264706J0D01*
G01*
X48714707Y-30975001D01*
G75*
G02*
X48450001Y-30710295I0J264706D01*
G01*
X48450001Y-29439707D01*
G75*
G02*
X48714707Y-29175001I264706J0D01*
G01*
G37*
D10*
X49475001Y-32575001D03*
X49475001Y-35075001D03*
X49475001Y-37575001D03*
%TD*%
%TO.C,J2*%
G36*
G01*
X60100000Y-37760294D02*
X60100000Y-36239706D01*
G75*
G02*
X60364706Y-35975000I264706J0D01*
G01*
X61635294Y-35975000D01*
G75*
G02*
X61900000Y-36239706I0J-264706D01*
G01*
X61900000Y-37760294D01*
G75*
G02*
X61635294Y-38025000I-264706J0D01*
G01*
X60364706Y-38025000D01*
G75*
G02*
X60100000Y-37760294I0J264706D01*
G01*
G37*
D11*
X63500000Y-37000000D03*
X66000000Y-37000000D03*
X68500000Y-37000000D03*
%TD*%
%TO.C,J3*%
G36*
G01*
X60100000Y-30760294D02*
X60100000Y-29239706D01*
G75*
G02*
X60364706Y-28975000I264706J0D01*
G01*
X61635294Y-28975000D01*
G75*
G02*
X61900000Y-29239706I0J-264706D01*
G01*
X61900000Y-30760294D01*
G75*
G02*
X61635294Y-31025000I-264706J0D01*
G01*
X60364706Y-31025000D01*
G75*
G02*
X60100000Y-30760294I0J264706D01*
G01*
G37*
X63500000Y-30000000D03*
X66000000Y-30000000D03*
%TD*%
%TO.C,J4*%
G36*
G01*
X93760294Y-36400000D02*
X92239706Y-36400000D01*
G75*
G02*
X91975000Y-36135294I0J264706D01*
G01*
X91975000Y-34864706D01*
G75*
G02*
X92239706Y-34600000I264706J0D01*
G01*
X93760294Y-34600000D01*
G75*
G02*
X94025000Y-34864706I0J-264706D01*
G01*
X94025000Y-36135294D01*
G75*
G02*
X93760294Y-36400000I-264706J0D01*
G01*
G37*
D10*
X93000000Y-33000000D03*
X93000000Y-30500000D03*
%TD*%
%TO.C,R1*%
G36*
G01*
X70342544Y-27750000D02*
X71657456Y-27750000D01*
G75*
G02*
X71925000Y-28017544I0J-267544D01*
G01*
X71925000Y-29007456D01*
G75*
G02*
X71657456Y-29275000I-267544J0D01*
G01*
X70342544Y-29275000D01*
G75*
G02*
X70075000Y-29007456I0J267544D01*
G01*
X70075000Y-28017544D01*
G75*
G02*
X70342544Y-27750000I267544J0D01*
G01*
G37*
G36*
G01*
X70342544Y-30725000D02*
X71657456Y-30725000D01*
G75*
G02*
X71925000Y-30992544I0J-267544D01*
G01*
X71925000Y-31982456D01*
G75*
G02*
X71657456Y-32250000I-267544J0D01*
G01*
X70342544Y-32250000D01*
G75*
G02*
X70075000Y-31982456I0J267544D01*
G01*
X70075000Y-30992544D01*
G75*
G02*
X70342544Y-30725000I267544J0D01*
G01*
G37*
%TD*%
%TO.C,R2*%
G36*
G01*
X73657456Y-39737500D02*
X72342544Y-39737500D01*
G75*
G02*
X72075000Y-39469956I0J267544D01*
G01*
X72075000Y-38480044D01*
G75*
G02*
X72342544Y-38212500I267544J0D01*
G01*
X73657456Y-38212500D01*
G75*
G02*
X73925000Y-38480044I0J-267544D01*
G01*
X73925000Y-39469956D01*
G75*
G02*
X73657456Y-39737500I-267544J0D01*
G01*
G37*
G36*
G01*
X73657456Y-36762500D02*
X72342544Y-36762500D01*
G75*
G02*
X72075000Y-36494956I0J267544D01*
G01*
X72075000Y-35505044D01*
G75*
G02*
X72342544Y-35237500I267544J0D01*
G01*
X73657456Y-35237500D01*
G75*
G02*
X73925000Y-35505044I0J-267544D01*
G01*
X73925000Y-36494956D01*
G75*
G02*
X73657456Y-36762500I-267544J0D01*
G01*
G37*
%TD*%
%TO.C,R3*%
G36*
G01*
X73342544Y-30725000D02*
X74657456Y-30725000D01*
G75*
G02*
X74925000Y-30992544I0J-267544D01*
G01*
X74925000Y-31982456D01*
G75*
G02*
X74657456Y-32250000I-267544J0D01*
G01*
X73342544Y-32250000D01*
G75*
G02*
X73075000Y-31982456I0J267544D01*
G01*
X73075000Y-30992544D01*
G75*
G02*
X73342544Y-30725000I267544J0D01*
G01*
G37*
G36*
G01*
X73342544Y-27750000D02*
X74657456Y-27750000D01*
G75*
G02*
X74925000Y-28017544I0J-267544D01*
G01*
X74925000Y-29007456D01*
G75*
G02*
X74657456Y-29275000I-267544J0D01*
G01*
X73342544Y-29275000D01*
G75*
G02*
X73075000Y-29007456I0J267544D01*
G01*
X73075000Y-28017544D01*
G75*
G02*
X73342544Y-27750000I267544J0D01*
G01*
G37*
%TD*%
%TO.C,U1*%
G36*
G01*
X76500000Y-31365000D02*
X76500000Y-31015000D01*
G75*
G02*
X76675000Y-30840000I175000J0D01*
G01*
X78375000Y-30840000D01*
G75*
G02*
X78550000Y-31015000I0J-175000D01*
G01*
X78550000Y-31365000D01*
G75*
G02*
X78375000Y-31540000I-175000J0D01*
G01*
X76675000Y-31540000D01*
G75*
G02*
X76500000Y-31365000I0J175000D01*
G01*
G37*
G36*
G01*
X76500000Y-32635000D02*
X76500000Y-32285000D01*
G75*
G02*
X76675000Y-32110000I175000J0D01*
G01*
X78375000Y-32110000D01*
G75*
G02*
X78550000Y-32285000I0J-175000D01*
G01*
X78550000Y-32635000D01*
G75*
G02*
X78375000Y-32810000I-175000J0D01*
G01*
X76675000Y-32810000D01*
G75*
G02*
X76500000Y-32635000I0J175000D01*
G01*
G37*
G36*
G01*
X76500000Y-33905000D02*
X76500000Y-33555000D01*
G75*
G02*
X76675000Y-33380000I175000J0D01*
G01*
X78375000Y-33380000D01*
G75*
G02*
X78550000Y-33555000I0J-175000D01*
G01*
X78550000Y-33905000D01*
G75*
G02*
X78375000Y-34080000I-175000J0D01*
G01*
X76675000Y-34080000D01*
G75*
G02*
X76500000Y-33905000I0J175000D01*
G01*
G37*
G36*
G01*
X76500000Y-35175000D02*
X76500000Y-34825000D01*
G75*
G02*
X76675000Y-34650000I175000J0D01*
G01*
X78375000Y-34650000D01*
G75*
G02*
X78550000Y-34825000I0J-175000D01*
G01*
X78550000Y-35175000D01*
G75*
G02*
X78375000Y-35350000I-175000J0D01*
G01*
X76675000Y-35350000D01*
G75*
G02*
X76500000Y-35175000I0J175000D01*
G01*
G37*
G36*
G01*
X76500000Y-36445000D02*
X76500000Y-36095000D01*
G75*
G02*
X76675000Y-35920000I175000J0D01*
G01*
X78375000Y-35920000D01*
G75*
G02*
X78550000Y-36095000I0J-175000D01*
G01*
X78550000Y-36445000D01*
G75*
G02*
X78375000Y-36620000I-175000J0D01*
G01*
X76675000Y-36620000D01*
G75*
G02*
X76500000Y-36445000I0J175000D01*
G01*
G37*
G36*
G01*
X76500000Y-37715000D02*
X76500000Y-37365000D01*
G75*
G02*
X76675000Y-37190000I175000J0D01*
G01*
X78375000Y-37190000D01*
G75*
G02*
X78550000Y-37365000I0J-175000D01*
G01*
X78550000Y-37715000D01*
G75*
G02*
X78375000Y-37890000I-175000J0D01*
G01*
X76675000Y-37890000D01*
G75*
G02*
X76500000Y-37715000I0J175000D01*
G01*
G37*
G36*
G01*
X76500000Y-38985000D02*
X76500000Y-38635000D01*
G75*
G02*
X76675000Y-38460000I175000J0D01*
G01*
X78375000Y-38460000D01*
G75*
G02*
X78550000Y-38635000I0J-175000D01*
G01*
X78550000Y-38985000D01*
G75*
G02*
X78375000Y-39160000I-175000J0D01*
G01*
X76675000Y-39160000D01*
G75*
G02*
X76500000Y-38985000I0J175000D01*
G01*
G37*
G36*
G01*
X81450000Y-38985000D02*
X81450000Y-38635000D01*
G75*
G02*
X81625000Y-38460000I175000J0D01*
G01*
X83325000Y-38460000D01*
G75*
G02*
X83500000Y-38635000I0J-175000D01*
G01*
X83500000Y-38985000D01*
G75*
G02*
X83325000Y-39160000I-175000J0D01*
G01*
X81625000Y-39160000D01*
G75*
G02*
X81450000Y-38985000I0J175000D01*
G01*
G37*
G36*
G01*
X81450000Y-37715000D02*
X81450000Y-37365000D01*
G75*
G02*
X81625000Y-37190000I175000J0D01*
G01*
X83325000Y-37190000D01*
G75*
G02*
X83500000Y-37365000I0J-175000D01*
G01*
X83500000Y-37715000D01*
G75*
G02*
X83325000Y-37890000I-175000J0D01*
G01*
X81625000Y-37890000D01*
G75*
G02*
X81450000Y-37715000I0J175000D01*
G01*
G37*
G36*
G01*
X81450000Y-36445000D02*
X81450000Y-36095000D01*
G75*
G02*
X81625000Y-35920000I175000J0D01*
G01*
X83325000Y-35920000D01*
G75*
G02*
X83500000Y-36095000I0J-175000D01*
G01*
X83500000Y-36445000D01*
G75*
G02*
X83325000Y-36620000I-175000J0D01*
G01*
X81625000Y-36620000D01*
G75*
G02*
X81450000Y-36445000I0J175000D01*
G01*
G37*
G36*
G01*
X81450000Y-35175000D02*
X81450000Y-34825000D01*
G75*
G02*
X81625000Y-34650000I175000J0D01*
G01*
X83325000Y-34650000D01*
G75*
G02*
X83500000Y-34825000I0J-175000D01*
G01*
X83500000Y-35175000D01*
G75*
G02*
X83325000Y-35350000I-175000J0D01*
G01*
X81625000Y-35350000D01*
G75*
G02*
X81450000Y-35175000I0J175000D01*
G01*
G37*
G36*
G01*
X81450000Y-33905000D02*
X81450000Y-33555000D01*
G75*
G02*
X81625000Y-33380000I175000J0D01*
G01*
X83325000Y-33380000D01*
G75*
G02*
X83500000Y-33555000I0J-175000D01*
G01*
X83500000Y-33905000D01*
G75*
G02*
X83325000Y-34080000I-175000J0D01*
G01*
X81625000Y-34080000D01*
G75*
G02*
X81450000Y-33905000I0J175000D01*
G01*
G37*
G36*
G01*
X81450000Y-32635000D02*
X81450000Y-32285000D01*
G75*
G02*
X81625000Y-32110000I175000J0D01*
G01*
X83325000Y-32110000D01*
G75*
G02*
X83500000Y-32285000I0J-175000D01*
G01*
X83500000Y-32635000D01*
G75*
G02*
X83325000Y-32810000I-175000J0D01*
G01*
X81625000Y-32810000D01*
G75*
G02*
X81450000Y-32635000I0J175000D01*
G01*
G37*
G36*
G01*
X81450000Y-31365000D02*
X81450000Y-31015000D01*
G75*
G02*
X81625000Y-30840000I175000J0D01*
G01*
X83325000Y-30840000D01*
G75*
G02*
X83500000Y-31015000I0J-175000D01*
G01*
X83500000Y-31365000D01*
G75*
G02*
X83325000Y-31540000I-175000J0D01*
G01*
X81625000Y-31540000D01*
G75*
G02*
X81450000Y-31365000I0J175000D01*
G01*
G37*
%TD*%
D12*
%TO.C,H1*%
X87000000Y-34000000D03*
%TD*%
%TO.C,H2*%
X55000000Y-34000000D03*
%TD*%
M02*
