%TF.GenerationSoftware,KiCad,Pcbnew,(5.1.6)-1*%
%TF.CreationDate,2020-08-23T19:38:50+02:00*%
%TF.ProjectId,opto-counter,6f70746f-2d63-46f7-956e-7465722e6b69,rev?*%
%TF.SameCoordinates,Original*%
%TF.FileFunction,Copper,L1,Top*%
%TF.FilePolarity,Positive*%
%FSLAX46Y46*%
G04 Gerber Fmt 4.6, Leading zero omitted, Abs format (unit mm)*
G04 Created by KiCad (PCBNEW (5.1.6)-1) date 2020-08-23 19:38:50*
%MOMM*%
%LPD*%
G01*
G04 APERTURE LIST*
%TA.AperFunction,ComponentPad*%
%ADD10O,1.950000X1.700000*%
%TD*%
%TA.AperFunction,ComponentPad*%
%ADD11O,1.700000X1.950000*%
%TD*%
%TA.AperFunction,ViaPad*%
%ADD12C,0.800000*%
%TD*%
%TA.AperFunction,Conductor*%
%ADD13C,0.250000*%
%TD*%
%TA.AperFunction,Conductor*%
%ADD14C,0.254000*%
%TD*%
G04 APERTURE END LIST*
%TO.P,C1,1*%
%TO.N,+3V3*%
%TA.AperFunction,SMDPad,CuDef*%
G36*
G01*
X77800000Y-29625000D02*
X77800000Y-28375000D01*
G75*
G02*
X78050000Y-28125000I250000J0D01*
G01*
X78975000Y-28125000D01*
G75*
G02*
X79225000Y-28375000I0J-250000D01*
G01*
X79225000Y-29625000D01*
G75*
G02*
X78975000Y-29875000I-250000J0D01*
G01*
X78050000Y-29875000D01*
G75*
G02*
X77800000Y-29625000I0J250000D01*
G01*
G37*
%TD.AperFunction*%
%TO.P,C1,2*%
%TO.N,GND*%
%TA.AperFunction,SMDPad,CuDef*%
G36*
G01*
X80775000Y-29625000D02*
X80775000Y-28375000D01*
G75*
G02*
X81025000Y-28125000I250000J0D01*
G01*
X81950000Y-28125000D01*
G75*
G02*
X82200000Y-28375000I0J-250000D01*
G01*
X82200000Y-29625000D01*
G75*
G02*
X81950000Y-29875000I-250000J0D01*
G01*
X81025000Y-29875000D01*
G75*
G02*
X80775000Y-29625000I0J250000D01*
G01*
G37*
%TD.AperFunction*%
%TD*%
%TO.P,J1,1*%
%TO.N,Net-(J1-Pad1)*%
%TA.AperFunction,ComponentPad*%
G36*
G01*
X48750001Y-29225001D02*
X50200001Y-29225001D01*
G75*
G02*
X50450001Y-29475001I0J-250000D01*
G01*
X50450001Y-30675001D01*
G75*
G02*
X50200001Y-30925001I-250000J0D01*
G01*
X48750001Y-30925001D01*
G75*
G02*
X48500001Y-30675001I0J250000D01*
G01*
X48500001Y-29475001D01*
G75*
G02*
X48750001Y-29225001I250000J0D01*
G01*
G37*
%TD.AperFunction*%
D10*
%TO.P,J1,2*%
%TO.N,Net-(J1-Pad2)*%
X49475001Y-32575001D03*
%TO.P,J1,3*%
%TO.N,Net-(J1-Pad1)*%
X49475001Y-35075001D03*
%TO.P,J1,4*%
%TO.N,Net-(J1-Pad4)*%
X49475001Y-37575001D03*
%TD*%
%TO.P,J2,1*%
%TO.N,GND*%
%TA.AperFunction,ComponentPad*%
G36*
G01*
X60150000Y-37725000D02*
X60150000Y-36275000D01*
G75*
G02*
X60400000Y-36025000I250000J0D01*
G01*
X61600000Y-36025000D01*
G75*
G02*
X61850000Y-36275000I0J-250000D01*
G01*
X61850000Y-37725000D01*
G75*
G02*
X61600000Y-37975000I-250000J0D01*
G01*
X60400000Y-37975000D01*
G75*
G02*
X60150000Y-37725000I0J250000D01*
G01*
G37*
%TD.AperFunction*%
D11*
%TO.P,J2,2*%
%TO.N,+3V3*%
X63500000Y-37000000D03*
%TO.P,J2,3*%
%TO.N,SDA*%
X66000000Y-37000000D03*
%TO.P,J2,4*%
%TO.N,SCL*%
X68500000Y-37000000D03*
%TD*%
%TO.P,J3,1*%
%TO.N,GND*%
%TA.AperFunction,ComponentPad*%
G36*
G01*
X60150000Y-30725000D02*
X60150000Y-29275000D01*
G75*
G02*
X60400000Y-29025000I250000J0D01*
G01*
X61600000Y-29025000D01*
G75*
G02*
X61850000Y-29275000I0J-250000D01*
G01*
X61850000Y-30725000D01*
G75*
G02*
X61600000Y-30975000I-250000J0D01*
G01*
X60400000Y-30975000D01*
G75*
G02*
X60150000Y-30725000I0J250000D01*
G01*
G37*
%TD.AperFunction*%
%TO.P,J3,2*%
%TO.N,+3V3*%
X63500000Y-30000000D03*
%TO.P,J3,3*%
%TO.N,UPDI*%
X66000000Y-30000000D03*
%TD*%
%TO.P,J4,1*%
%TO.N,GND*%
%TA.AperFunction,ComponentPad*%
G36*
G01*
X93725000Y-36350000D02*
X92275000Y-36350000D01*
G75*
G02*
X92025000Y-36100000I0J250000D01*
G01*
X92025000Y-34900000D01*
G75*
G02*
X92275000Y-34650000I250000J0D01*
G01*
X93725000Y-34650000D01*
G75*
G02*
X93975000Y-34900000I0J-250000D01*
G01*
X93975000Y-36100000D01*
G75*
G02*
X93725000Y-36350000I-250000J0D01*
G01*
G37*
%TD.AperFunction*%
D10*
%TO.P,J4,2*%
%TO.N,+3V3*%
X93000000Y-33000000D03*
%TO.P,J4,3*%
%TO.N,Net-(J4-Pad3)*%
X93000000Y-30500000D03*
%TD*%
%TO.P,R1,1*%
%TO.N,+3V3*%
%TA.AperFunction,SMDPad,CuDef*%
G36*
G01*
X70375000Y-27800000D02*
X71625000Y-27800000D01*
G75*
G02*
X71875000Y-28050000I0J-250000D01*
G01*
X71875000Y-28975000D01*
G75*
G02*
X71625000Y-29225000I-250000J0D01*
G01*
X70375000Y-29225000D01*
G75*
G02*
X70125000Y-28975000I0J250000D01*
G01*
X70125000Y-28050000D01*
G75*
G02*
X70375000Y-27800000I250000J0D01*
G01*
G37*
%TD.AperFunction*%
%TO.P,R1,2*%
%TO.N,SDA*%
%TA.AperFunction,SMDPad,CuDef*%
G36*
G01*
X70375000Y-30775000D02*
X71625000Y-30775000D01*
G75*
G02*
X71875000Y-31025000I0J-250000D01*
G01*
X71875000Y-31950000D01*
G75*
G02*
X71625000Y-32200000I-250000J0D01*
G01*
X70375000Y-32200000D01*
G75*
G02*
X70125000Y-31950000I0J250000D01*
G01*
X70125000Y-31025000D01*
G75*
G02*
X70375000Y-30775000I250000J0D01*
G01*
G37*
%TD.AperFunction*%
%TD*%
%TO.P,R2,1*%
%TO.N,Net-(J1-Pad1)*%
%TA.AperFunction,SMDPad,CuDef*%
G36*
G01*
X73625000Y-39687500D02*
X72375000Y-39687500D01*
G75*
G02*
X72125000Y-39437500I0J250000D01*
G01*
X72125000Y-38512500D01*
G75*
G02*
X72375000Y-38262500I250000J0D01*
G01*
X73625000Y-38262500D01*
G75*
G02*
X73875000Y-38512500I0J-250000D01*
G01*
X73875000Y-39437500D01*
G75*
G02*
X73625000Y-39687500I-250000J0D01*
G01*
G37*
%TD.AperFunction*%
%TO.P,R2,2*%
%TO.N,Net-(R2-Pad2)*%
%TA.AperFunction,SMDPad,CuDef*%
G36*
G01*
X73625000Y-36712500D02*
X72375000Y-36712500D01*
G75*
G02*
X72125000Y-36462500I0J250000D01*
G01*
X72125000Y-35537500D01*
G75*
G02*
X72375000Y-35287500I250000J0D01*
G01*
X73625000Y-35287500D01*
G75*
G02*
X73875000Y-35537500I0J-250000D01*
G01*
X73875000Y-36462500D01*
G75*
G02*
X73625000Y-36712500I-250000J0D01*
G01*
G37*
%TD.AperFunction*%
%TD*%
%TO.P,R3,2*%
%TO.N,SCL*%
%TA.AperFunction,SMDPad,CuDef*%
G36*
G01*
X73375000Y-30775000D02*
X74625000Y-30775000D01*
G75*
G02*
X74875000Y-31025000I0J-250000D01*
G01*
X74875000Y-31950000D01*
G75*
G02*
X74625000Y-32200000I-250000J0D01*
G01*
X73375000Y-32200000D01*
G75*
G02*
X73125000Y-31950000I0J250000D01*
G01*
X73125000Y-31025000D01*
G75*
G02*
X73375000Y-30775000I250000J0D01*
G01*
G37*
%TD.AperFunction*%
%TO.P,R3,1*%
%TO.N,+3V3*%
%TA.AperFunction,SMDPad,CuDef*%
G36*
G01*
X73375000Y-27800000D02*
X74625000Y-27800000D01*
G75*
G02*
X74875000Y-28050000I0J-250000D01*
G01*
X74875000Y-28975000D01*
G75*
G02*
X74625000Y-29225000I-250000J0D01*
G01*
X73375000Y-29225000D01*
G75*
G02*
X73125000Y-28975000I0J250000D01*
G01*
X73125000Y-28050000D01*
G75*
G02*
X73375000Y-27800000I250000J0D01*
G01*
G37*
%TD.AperFunction*%
%TD*%
%TO.P,U1,1*%
%TO.N,+3V3*%
%TA.AperFunction,SMDPad,CuDef*%
G36*
G01*
X76550000Y-31340000D02*
X76550000Y-31040000D01*
G75*
G02*
X76700000Y-30890000I150000J0D01*
G01*
X78350000Y-30890000D01*
G75*
G02*
X78500000Y-31040000I0J-150000D01*
G01*
X78500000Y-31340000D01*
G75*
G02*
X78350000Y-31490000I-150000J0D01*
G01*
X76700000Y-31490000D01*
G75*
G02*
X76550000Y-31340000I0J150000D01*
G01*
G37*
%TD.AperFunction*%
%TO.P,U1,2*%
%TO.N,Net-(J4-Pad3)*%
%TA.AperFunction,SMDPad,CuDef*%
G36*
G01*
X76550000Y-32610000D02*
X76550000Y-32310000D01*
G75*
G02*
X76700000Y-32160000I150000J0D01*
G01*
X78350000Y-32160000D01*
G75*
G02*
X78500000Y-32310000I0J-150000D01*
G01*
X78500000Y-32610000D01*
G75*
G02*
X78350000Y-32760000I-150000J0D01*
G01*
X76700000Y-32760000D01*
G75*
G02*
X76550000Y-32610000I0J150000D01*
G01*
G37*
%TD.AperFunction*%
%TO.P,U1,3*%
%TO.N,Net-(R2-Pad2)*%
%TA.AperFunction,SMDPad,CuDef*%
G36*
G01*
X76550000Y-33880000D02*
X76550000Y-33580000D01*
G75*
G02*
X76700000Y-33430000I150000J0D01*
G01*
X78350000Y-33430000D01*
G75*
G02*
X78500000Y-33580000I0J-150000D01*
G01*
X78500000Y-33880000D01*
G75*
G02*
X78350000Y-34030000I-150000J0D01*
G01*
X76700000Y-34030000D01*
G75*
G02*
X76550000Y-33880000I0J150000D01*
G01*
G37*
%TD.AperFunction*%
%TO.P,U1,4*%
%TO.N,Net-(J1-Pad2)*%
%TA.AperFunction,SMDPad,CuDef*%
G36*
G01*
X76550000Y-35150000D02*
X76550000Y-34850000D01*
G75*
G02*
X76700000Y-34700000I150000J0D01*
G01*
X78350000Y-34700000D01*
G75*
G02*
X78500000Y-34850000I0J-150000D01*
G01*
X78500000Y-35150000D01*
G75*
G02*
X78350000Y-35300000I-150000J0D01*
G01*
X76700000Y-35300000D01*
G75*
G02*
X76550000Y-35150000I0J150000D01*
G01*
G37*
%TD.AperFunction*%
%TO.P,U1,5*%
%TO.N,Net-(J1-Pad4)*%
%TA.AperFunction,SMDPad,CuDef*%
G36*
G01*
X76550000Y-36420000D02*
X76550000Y-36120000D01*
G75*
G02*
X76700000Y-35970000I150000J0D01*
G01*
X78350000Y-35970000D01*
G75*
G02*
X78500000Y-36120000I0J-150000D01*
G01*
X78500000Y-36420000D01*
G75*
G02*
X78350000Y-36570000I-150000J0D01*
G01*
X76700000Y-36570000D01*
G75*
G02*
X76550000Y-36420000I0J150000D01*
G01*
G37*
%TD.AperFunction*%
%TO.P,U1,6*%
%TO.N,N/C*%
%TA.AperFunction,SMDPad,CuDef*%
G36*
G01*
X76550000Y-37690000D02*
X76550000Y-37390000D01*
G75*
G02*
X76700000Y-37240000I150000J0D01*
G01*
X78350000Y-37240000D01*
G75*
G02*
X78500000Y-37390000I0J-150000D01*
G01*
X78500000Y-37690000D01*
G75*
G02*
X78350000Y-37840000I-150000J0D01*
G01*
X76700000Y-37840000D01*
G75*
G02*
X76550000Y-37690000I0J150000D01*
G01*
G37*
%TD.AperFunction*%
%TO.P,U1,7*%
%TA.AperFunction,SMDPad,CuDef*%
G36*
G01*
X76550000Y-38960000D02*
X76550000Y-38660000D01*
G75*
G02*
X76700000Y-38510000I150000J0D01*
G01*
X78350000Y-38510000D01*
G75*
G02*
X78500000Y-38660000I0J-150000D01*
G01*
X78500000Y-38960000D01*
G75*
G02*
X78350000Y-39110000I-150000J0D01*
G01*
X76700000Y-39110000D01*
G75*
G02*
X76550000Y-38960000I0J150000D01*
G01*
G37*
%TD.AperFunction*%
%TO.P,U1,8*%
%TA.AperFunction,SMDPad,CuDef*%
G36*
G01*
X81500000Y-38960000D02*
X81500000Y-38660000D01*
G75*
G02*
X81650000Y-38510000I150000J0D01*
G01*
X83300000Y-38510000D01*
G75*
G02*
X83450000Y-38660000I0J-150000D01*
G01*
X83450000Y-38960000D01*
G75*
G02*
X83300000Y-39110000I-150000J0D01*
G01*
X81650000Y-39110000D01*
G75*
G02*
X81500000Y-38960000I0J150000D01*
G01*
G37*
%TD.AperFunction*%
%TO.P,U1,9*%
%TA.AperFunction,SMDPad,CuDef*%
G36*
G01*
X81500000Y-37690000D02*
X81500000Y-37390000D01*
G75*
G02*
X81650000Y-37240000I150000J0D01*
G01*
X83300000Y-37240000D01*
G75*
G02*
X83450000Y-37390000I0J-150000D01*
G01*
X83450000Y-37690000D01*
G75*
G02*
X83300000Y-37840000I-150000J0D01*
G01*
X81650000Y-37840000D01*
G75*
G02*
X81500000Y-37690000I0J150000D01*
G01*
G37*
%TD.AperFunction*%
%TO.P,U1,10*%
%TO.N,UPDI*%
%TA.AperFunction,SMDPad,CuDef*%
G36*
G01*
X81500000Y-36420000D02*
X81500000Y-36120000D01*
G75*
G02*
X81650000Y-35970000I150000J0D01*
G01*
X83300000Y-35970000D01*
G75*
G02*
X83450000Y-36120000I0J-150000D01*
G01*
X83450000Y-36420000D01*
G75*
G02*
X83300000Y-36570000I-150000J0D01*
G01*
X81650000Y-36570000D01*
G75*
G02*
X81500000Y-36420000I0J150000D01*
G01*
G37*
%TD.AperFunction*%
%TO.P,U1,11*%
%TO.N,SDA*%
%TA.AperFunction,SMDPad,CuDef*%
G36*
G01*
X81500000Y-35150000D02*
X81500000Y-34850000D01*
G75*
G02*
X81650000Y-34700000I150000J0D01*
G01*
X83300000Y-34700000D01*
G75*
G02*
X83450000Y-34850000I0J-150000D01*
G01*
X83450000Y-35150000D01*
G75*
G02*
X83300000Y-35300000I-150000J0D01*
G01*
X81650000Y-35300000D01*
G75*
G02*
X81500000Y-35150000I0J150000D01*
G01*
G37*
%TD.AperFunction*%
%TO.P,U1,12*%
%TO.N,SCL*%
%TA.AperFunction,SMDPad,CuDef*%
G36*
G01*
X81500000Y-33880000D02*
X81500000Y-33580000D01*
G75*
G02*
X81650000Y-33430000I150000J0D01*
G01*
X83300000Y-33430000D01*
G75*
G02*
X83450000Y-33580000I0J-150000D01*
G01*
X83450000Y-33880000D01*
G75*
G02*
X83300000Y-34030000I-150000J0D01*
G01*
X81650000Y-34030000D01*
G75*
G02*
X81500000Y-33880000I0J150000D01*
G01*
G37*
%TD.AperFunction*%
%TO.P,U1,13*%
%TO.N,N/C*%
%TA.AperFunction,SMDPad,CuDef*%
G36*
G01*
X81500000Y-32610000D02*
X81500000Y-32310000D01*
G75*
G02*
X81650000Y-32160000I150000J0D01*
G01*
X83300000Y-32160000D01*
G75*
G02*
X83450000Y-32310000I0J-150000D01*
G01*
X83450000Y-32610000D01*
G75*
G02*
X83300000Y-32760000I-150000J0D01*
G01*
X81650000Y-32760000D01*
G75*
G02*
X81500000Y-32610000I0J150000D01*
G01*
G37*
%TD.AperFunction*%
%TO.P,U1,14*%
%TO.N,GND*%
%TA.AperFunction,SMDPad,CuDef*%
G36*
G01*
X81500000Y-31340000D02*
X81500000Y-31040000D01*
G75*
G02*
X81650000Y-30890000I150000J0D01*
G01*
X83300000Y-30890000D01*
G75*
G02*
X83450000Y-31040000I0J-150000D01*
G01*
X83450000Y-31340000D01*
G75*
G02*
X83300000Y-31490000I-150000J0D01*
G01*
X81650000Y-31490000D01*
G75*
G02*
X81500000Y-31340000I0J150000D01*
G01*
G37*
%TD.AperFunction*%
%TD*%
D12*
%TO.N,GND*%
X81500000Y-29000000D03*
%TO.N,UPDI*%
X80000000Y-36000000D03*
%TD*%
D13*
%TO.N,+3V3*%
X71000000Y-28512500D02*
X74000000Y-28512500D01*
X78025000Y-28512500D02*
X78512500Y-29000000D01*
X74000000Y-28512500D02*
X78025000Y-28512500D01*
X78512500Y-30202500D02*
X77525000Y-31190000D01*
X78512500Y-29000000D02*
X78512500Y-30202500D01*
X64800010Y-31300010D02*
X68212490Y-31300010D01*
X68212490Y-31300010D02*
X71000000Y-28512500D01*
X63500000Y-30000000D02*
X64800010Y-31300010D01*
X63500000Y-37000000D02*
X63500000Y-30000000D01*
X92086705Y-27799990D02*
X79712510Y-27799990D01*
X94300010Y-30013295D02*
X92086705Y-27799990D01*
X94300010Y-31699990D02*
X94300010Y-30013295D01*
X79712510Y-27799990D02*
X78512500Y-29000000D01*
X93000000Y-33000000D02*
X94300010Y-31699990D01*
%TO.N,GND*%
X81487500Y-29000000D02*
X81500000Y-29000000D01*
X82475000Y-29987500D02*
X81487500Y-29000000D01*
X82475000Y-31190000D02*
X82475000Y-29987500D01*
%TO.N,Net-(J1-Pad1)*%
X48174991Y-31375011D02*
X49475001Y-30075001D01*
X48174991Y-33774991D02*
X48174991Y-31375011D01*
X49475001Y-35075001D02*
X48174991Y-33774991D01*
X53600029Y-39200029D02*
X49475001Y-35075001D01*
X68723096Y-39200029D02*
X53600029Y-39200029D01*
X68948125Y-38975000D02*
X68723096Y-39200029D01*
X73000000Y-38975000D02*
X68948125Y-38975000D01*
%TO.N,Net-(J1-Pad2)*%
X55650019Y-38750019D02*
X49475001Y-32575001D01*
X69799195Y-37487520D02*
X68536696Y-38750019D01*
X74049580Y-37487520D02*
X69799195Y-37487520D01*
X68536696Y-38750019D02*
X55650019Y-38750019D01*
X76537100Y-35000000D02*
X74049580Y-37487520D01*
X77525000Y-35000000D02*
X76537100Y-35000000D01*
%TO.N,Net-(J1-Pad4)*%
X73863180Y-40012510D02*
X51912510Y-40012510D01*
X75903510Y-37972180D02*
X73863180Y-40012510D01*
X75903510Y-36916490D02*
X75903510Y-37972180D01*
X76550000Y-36270000D02*
X75903510Y-36916490D01*
X51912510Y-40012510D02*
X49475001Y-37575001D01*
X77525000Y-36270000D02*
X76550000Y-36270000D01*
%TO.N,SDA*%
X66000000Y-37000000D02*
X66000000Y-36487500D01*
X72037510Y-37037510D02*
X68743750Y-33743750D01*
X73863180Y-37037510D02*
X72037510Y-37037510D01*
X76503242Y-34374990D02*
X74200010Y-36678222D01*
X81849990Y-34374990D02*
X76503242Y-34374990D01*
X74200010Y-36700680D02*
X73863180Y-37037510D01*
X82475000Y-35000000D02*
X81849990Y-34374990D01*
X74200010Y-36678222D02*
X74200010Y-36700680D01*
X68743750Y-33743750D02*
X71000000Y-31487500D01*
X66000000Y-36487500D02*
X68743750Y-33743750D01*
%TO.N,SCL*%
X75617490Y-33104990D02*
X74000000Y-31487500D01*
X81849990Y-33104990D02*
X75617490Y-33104990D01*
X82475000Y-33730000D02*
X81849990Y-33104990D01*
X67199990Y-38300010D02*
X68500000Y-37000000D01*
X65513295Y-38300010D02*
X67199990Y-38300010D01*
X69698920Y-30449990D02*
X64824990Y-35323920D01*
X64824990Y-37611705D02*
X65513295Y-38300010D01*
X72962490Y-30449990D02*
X69698920Y-30449990D01*
X64824990Y-35323920D02*
X64824990Y-37611705D01*
X74000000Y-31487500D02*
X72962490Y-30449990D01*
%TO.N,UPDI*%
X82475000Y-36270000D02*
X80270000Y-36270000D01*
X80270000Y-36270000D02*
X80000000Y-36000000D01*
%TO.N,Net-(J4-Pad3)*%
X91665010Y-31834990D02*
X93000000Y-30500000D01*
X78150010Y-31834990D02*
X91665010Y-31834990D01*
X77525000Y-32460000D02*
X78150010Y-31834990D01*
%TO.N,Net-(R2-Pad2)*%
X75270000Y-33730000D02*
X77525000Y-33730000D01*
X73000000Y-36000000D02*
X75270000Y-33730000D01*
%TD*%
D14*
%TO.N,GND*%
G36*
X103340000Y-40340000D02*
G01*
X74610491Y-40340000D01*
X75918972Y-39031519D01*
X75927071Y-39113745D01*
X75971916Y-39261582D01*
X76044742Y-39397829D01*
X76142749Y-39517251D01*
X76262171Y-39615258D01*
X76398418Y-39688084D01*
X76546255Y-39732929D01*
X76700000Y-39748072D01*
X78350000Y-39748072D01*
X78503745Y-39732929D01*
X78651582Y-39688084D01*
X78787829Y-39615258D01*
X78907251Y-39517251D01*
X79005258Y-39397829D01*
X79078084Y-39261582D01*
X79122929Y-39113745D01*
X79138072Y-38960000D01*
X79138072Y-38660000D01*
X79122929Y-38506255D01*
X79078084Y-38358418D01*
X79005258Y-38222171D01*
X78966546Y-38175000D01*
X79005258Y-38127829D01*
X79078084Y-37991582D01*
X79122929Y-37843745D01*
X79138072Y-37690000D01*
X79138072Y-37390000D01*
X79122929Y-37236255D01*
X79078084Y-37088418D01*
X79005258Y-36952171D01*
X78966546Y-36905000D01*
X79005258Y-36857829D01*
X79078084Y-36721582D01*
X79122929Y-36573745D01*
X79124940Y-36553330D01*
X79196063Y-36659774D01*
X79340226Y-36803937D01*
X79509744Y-36917205D01*
X79698102Y-36995226D01*
X79898061Y-37035000D01*
X80101939Y-37035000D01*
X80162045Y-37023044D01*
X80232667Y-37030000D01*
X80232675Y-37030000D01*
X80270000Y-37033676D01*
X80307325Y-37030000D01*
X80953141Y-37030000D01*
X80921916Y-37088418D01*
X80877071Y-37236255D01*
X80861928Y-37390000D01*
X80861928Y-37690000D01*
X80877071Y-37843745D01*
X80921916Y-37991582D01*
X80994742Y-38127829D01*
X81033454Y-38175000D01*
X80994742Y-38222171D01*
X80921916Y-38358418D01*
X80877071Y-38506255D01*
X80861928Y-38660000D01*
X80861928Y-38960000D01*
X80877071Y-39113745D01*
X80921916Y-39261582D01*
X80994742Y-39397829D01*
X81092749Y-39517251D01*
X81212171Y-39615258D01*
X81348418Y-39688084D01*
X81496255Y-39732929D01*
X81650000Y-39748072D01*
X83300000Y-39748072D01*
X83453745Y-39732929D01*
X83601582Y-39688084D01*
X83737829Y-39615258D01*
X83857251Y-39517251D01*
X83955258Y-39397829D01*
X84028084Y-39261582D01*
X84072929Y-39113745D01*
X84088072Y-38960000D01*
X84088072Y-38660000D01*
X84072929Y-38506255D01*
X84028084Y-38358418D01*
X83955258Y-38222171D01*
X83916546Y-38175000D01*
X83955258Y-38127829D01*
X84028084Y-37991582D01*
X84072929Y-37843745D01*
X84088072Y-37690000D01*
X84088072Y-37390000D01*
X84072929Y-37236255D01*
X84028084Y-37088418D01*
X83955258Y-36952171D01*
X83916546Y-36905000D01*
X83955258Y-36857829D01*
X84028084Y-36721582D01*
X84072929Y-36573745D01*
X84088072Y-36420000D01*
X84088072Y-36350000D01*
X91386928Y-36350000D01*
X91399188Y-36474482D01*
X91435498Y-36594180D01*
X91494463Y-36704494D01*
X91573815Y-36801185D01*
X91670506Y-36880537D01*
X91780820Y-36939502D01*
X91900518Y-36975812D01*
X92025000Y-36988072D01*
X92714250Y-36985000D01*
X92873000Y-36826250D01*
X92873000Y-35627000D01*
X93127000Y-35627000D01*
X93127000Y-36826250D01*
X93285750Y-36985000D01*
X93975000Y-36988072D01*
X94099482Y-36975812D01*
X94219180Y-36939502D01*
X94329494Y-36880537D01*
X94426185Y-36801185D01*
X94505537Y-36704494D01*
X94564502Y-36594180D01*
X94600812Y-36474482D01*
X94613072Y-36350000D01*
X94610000Y-35785750D01*
X94451250Y-35627000D01*
X93127000Y-35627000D01*
X92873000Y-35627000D01*
X91548750Y-35627000D01*
X91390000Y-35785750D01*
X91386928Y-36350000D01*
X84088072Y-36350000D01*
X84088072Y-36120000D01*
X84072929Y-35966255D01*
X84028084Y-35818418D01*
X83955258Y-35682171D01*
X83916546Y-35635000D01*
X83955258Y-35587829D01*
X84028084Y-35451582D01*
X84072929Y-35303745D01*
X84088072Y-35150000D01*
X84088072Y-34850000D01*
X84072929Y-34696255D01*
X84028084Y-34548418D01*
X83955258Y-34412171D01*
X83916546Y-34365000D01*
X83955258Y-34317829D01*
X84028084Y-34181582D01*
X84072929Y-34033745D01*
X84088072Y-33880000D01*
X84088072Y-33580000D01*
X84072929Y-33426255D01*
X84028084Y-33278418D01*
X83955258Y-33142171D01*
X83916546Y-33095000D01*
X83955258Y-33047829D01*
X84028084Y-32911582D01*
X84072929Y-32763745D01*
X84088072Y-32610000D01*
X84088072Y-32594990D01*
X85979828Y-32594990D01*
X85894002Y-32652337D01*
X85652337Y-32894002D01*
X85462463Y-33178169D01*
X85331675Y-33493919D01*
X85265000Y-33829117D01*
X85265000Y-34170883D01*
X85331675Y-34506081D01*
X85462463Y-34821831D01*
X85652337Y-35105998D01*
X85894002Y-35347663D01*
X86178169Y-35537537D01*
X86493919Y-35668325D01*
X86829117Y-35735000D01*
X87170883Y-35735000D01*
X87506081Y-35668325D01*
X87821831Y-35537537D01*
X88105998Y-35347663D01*
X88347663Y-35105998D01*
X88537537Y-34821831D01*
X88668325Y-34506081D01*
X88735000Y-34170883D01*
X88735000Y-33829117D01*
X88668325Y-33493919D01*
X88537537Y-33178169D01*
X88347663Y-32894002D01*
X88105998Y-32652337D01*
X88020172Y-32594990D01*
X91446038Y-32594990D01*
X91411487Y-32708889D01*
X91382815Y-33000000D01*
X91411487Y-33291111D01*
X91496401Y-33571034D01*
X91634294Y-33829014D01*
X91815608Y-34049945D01*
X91780820Y-34060498D01*
X91670506Y-34119463D01*
X91573815Y-34198815D01*
X91494463Y-34295506D01*
X91435498Y-34405820D01*
X91399188Y-34525518D01*
X91386928Y-34650000D01*
X91390000Y-35214250D01*
X91548750Y-35373000D01*
X92873000Y-35373000D01*
X92873000Y-35353000D01*
X93127000Y-35353000D01*
X93127000Y-35373000D01*
X94451250Y-35373000D01*
X94610000Y-35214250D01*
X94613072Y-34650000D01*
X94600812Y-34525518D01*
X94564502Y-34405820D01*
X94505537Y-34295506D01*
X94426185Y-34198815D01*
X94329494Y-34119463D01*
X94219180Y-34060498D01*
X94184392Y-34049945D01*
X94365706Y-33829014D01*
X94503599Y-33571034D01*
X94588513Y-33291111D01*
X94617185Y-33000000D01*
X94588513Y-32708889D01*
X94536704Y-32538098D01*
X94811014Y-32263788D01*
X94840011Y-32239991D01*
X94934984Y-32124266D01*
X95005556Y-31992237D01*
X95049013Y-31848976D01*
X95060010Y-31737323D01*
X95060010Y-31737315D01*
X95063686Y-31699990D01*
X95060010Y-31662665D01*
X95060010Y-30050618D01*
X95063686Y-30013295D01*
X95060010Y-29975972D01*
X95060010Y-29975962D01*
X95049013Y-29864309D01*
X95005556Y-29721048D01*
X94978797Y-29670986D01*
X94934984Y-29589018D01*
X94863809Y-29502292D01*
X94840011Y-29473294D01*
X94811013Y-29449496D01*
X92650509Y-27288993D01*
X92626706Y-27259989D01*
X92510981Y-27165016D01*
X92378952Y-27094444D01*
X92235691Y-27050987D01*
X92124038Y-27039990D01*
X92124027Y-27039990D01*
X92086705Y-27036314D01*
X92049383Y-27039990D01*
X79749832Y-27039990D01*
X79712509Y-27036314D01*
X79675186Y-27039990D01*
X79675177Y-27039990D01*
X79563524Y-27050987D01*
X79420263Y-27094444D01*
X79288234Y-27165016D01*
X79288232Y-27165017D01*
X79288233Y-27165017D01*
X79201506Y-27236191D01*
X79201502Y-27236195D01*
X79172509Y-27259989D01*
X79148715Y-27288982D01*
X78950769Y-27486928D01*
X78050000Y-27486928D01*
X77876746Y-27503992D01*
X77710150Y-27554528D01*
X77556614Y-27636595D01*
X77422038Y-27747038D01*
X77417555Y-27752500D01*
X75458319Y-27752500D01*
X75445472Y-27710150D01*
X75363405Y-27556614D01*
X75252962Y-27422038D01*
X75118386Y-27311595D01*
X74964850Y-27229528D01*
X74798254Y-27178992D01*
X74625000Y-27161928D01*
X73375000Y-27161928D01*
X73201746Y-27178992D01*
X73035150Y-27229528D01*
X72881614Y-27311595D01*
X72747038Y-27422038D01*
X72636595Y-27556614D01*
X72554528Y-27710150D01*
X72541681Y-27752500D01*
X72458319Y-27752500D01*
X72445472Y-27710150D01*
X72363405Y-27556614D01*
X72252962Y-27422038D01*
X72118386Y-27311595D01*
X71964850Y-27229528D01*
X71798254Y-27178992D01*
X71625000Y-27161928D01*
X70375000Y-27161928D01*
X70201746Y-27178992D01*
X70035150Y-27229528D01*
X69881614Y-27311595D01*
X69747038Y-27422038D01*
X69636595Y-27556614D01*
X69554528Y-27710150D01*
X69503992Y-27876746D01*
X69486928Y-28050000D01*
X69486928Y-28950770D01*
X67897689Y-30540010D01*
X67425928Y-30540010D01*
X67463513Y-30416110D01*
X67485000Y-30197949D01*
X67485000Y-29802050D01*
X67463513Y-29583889D01*
X67378599Y-29303966D01*
X67240706Y-29045986D01*
X67055134Y-28819866D01*
X66829013Y-28634294D01*
X66571033Y-28496401D01*
X66291110Y-28411487D01*
X66000000Y-28382815D01*
X65708889Y-28411487D01*
X65428966Y-28496401D01*
X65170986Y-28634294D01*
X64944866Y-28819866D01*
X64759294Y-29045987D01*
X64750000Y-29063374D01*
X64740706Y-29045986D01*
X64555134Y-28819866D01*
X64329013Y-28634294D01*
X64071033Y-28496401D01*
X63791110Y-28411487D01*
X63500000Y-28382815D01*
X63208889Y-28411487D01*
X62928966Y-28496401D01*
X62670986Y-28634294D01*
X62450055Y-28815608D01*
X62439502Y-28780820D01*
X62380537Y-28670506D01*
X62301185Y-28573815D01*
X62204494Y-28494463D01*
X62094180Y-28435498D01*
X61974482Y-28399188D01*
X61850000Y-28386928D01*
X61285750Y-28390000D01*
X61127000Y-28548750D01*
X61127000Y-29873000D01*
X61147000Y-29873000D01*
X61147000Y-30127000D01*
X61127000Y-30127000D01*
X61127000Y-31451250D01*
X61285750Y-31610000D01*
X61850000Y-31613072D01*
X61974482Y-31600812D01*
X62094180Y-31564502D01*
X62204494Y-31505537D01*
X62301185Y-31426185D01*
X62380537Y-31329494D01*
X62439502Y-31219180D01*
X62450055Y-31184392D01*
X62670987Y-31365706D01*
X62740001Y-31402595D01*
X62740000Y-35597405D01*
X62670986Y-35634294D01*
X62450055Y-35815608D01*
X62439502Y-35780820D01*
X62380537Y-35670506D01*
X62301185Y-35573815D01*
X62204494Y-35494463D01*
X62094180Y-35435498D01*
X61974482Y-35399188D01*
X61850000Y-35386928D01*
X61285750Y-35390000D01*
X61127000Y-35548750D01*
X61127000Y-36873000D01*
X61147000Y-36873000D01*
X61147000Y-37127000D01*
X61127000Y-37127000D01*
X61127000Y-37147000D01*
X60873000Y-37147000D01*
X60873000Y-37127000D01*
X59673750Y-37127000D01*
X59515000Y-37285750D01*
X59511928Y-37975000D01*
X59513407Y-37990019D01*
X55964821Y-37990019D01*
X53999802Y-36025000D01*
X59511928Y-36025000D01*
X59515000Y-36714250D01*
X59673750Y-36873000D01*
X60873000Y-36873000D01*
X60873000Y-35548750D01*
X60714250Y-35390000D01*
X60150000Y-35386928D01*
X60025518Y-35399188D01*
X59905820Y-35435498D01*
X59795506Y-35494463D01*
X59698815Y-35573815D01*
X59619463Y-35670506D01*
X59560498Y-35780820D01*
X59524188Y-35900518D01*
X59511928Y-36025000D01*
X53999802Y-36025000D01*
X51803919Y-33829117D01*
X53265000Y-33829117D01*
X53265000Y-34170883D01*
X53331675Y-34506081D01*
X53462463Y-34821831D01*
X53652337Y-35105998D01*
X53894002Y-35347663D01*
X54178169Y-35537537D01*
X54493919Y-35668325D01*
X54829117Y-35735000D01*
X55170883Y-35735000D01*
X55506081Y-35668325D01*
X55821831Y-35537537D01*
X56105998Y-35347663D01*
X56347663Y-35105998D01*
X56537537Y-34821831D01*
X56668325Y-34506081D01*
X56735000Y-34170883D01*
X56735000Y-33829117D01*
X56668325Y-33493919D01*
X56537537Y-33178169D01*
X56347663Y-32894002D01*
X56105998Y-32652337D01*
X55821831Y-32462463D01*
X55506081Y-32331675D01*
X55170883Y-32265000D01*
X54829117Y-32265000D01*
X54493919Y-32331675D01*
X54178169Y-32462463D01*
X53894002Y-32652337D01*
X53652337Y-32894002D01*
X53462463Y-33178169D01*
X53331675Y-33493919D01*
X53265000Y-33829117D01*
X51803919Y-33829117D01*
X51011705Y-33036904D01*
X51063514Y-32866112D01*
X51092186Y-32575001D01*
X51063514Y-32283890D01*
X50978600Y-32003967D01*
X50840707Y-31745987D01*
X50655135Y-31519867D01*
X50591664Y-31467778D01*
X50693387Y-31413406D01*
X50827963Y-31302963D01*
X50938406Y-31168387D01*
X51020473Y-31014851D01*
X51032561Y-30975000D01*
X59511928Y-30975000D01*
X59524188Y-31099482D01*
X59560498Y-31219180D01*
X59619463Y-31329494D01*
X59698815Y-31426185D01*
X59795506Y-31505537D01*
X59905820Y-31564502D01*
X60025518Y-31600812D01*
X60150000Y-31613072D01*
X60714250Y-31610000D01*
X60873000Y-31451250D01*
X60873000Y-30127000D01*
X59673750Y-30127000D01*
X59515000Y-30285750D01*
X59511928Y-30975000D01*
X51032561Y-30975000D01*
X51071009Y-30848255D01*
X51088073Y-30675001D01*
X51088073Y-29475001D01*
X51071009Y-29301747D01*
X51020473Y-29135151D01*
X50961596Y-29025000D01*
X59511928Y-29025000D01*
X59515000Y-29714250D01*
X59673750Y-29873000D01*
X60873000Y-29873000D01*
X60873000Y-28548750D01*
X60714250Y-28390000D01*
X60150000Y-28386928D01*
X60025518Y-28399188D01*
X59905820Y-28435498D01*
X59795506Y-28494463D01*
X59698815Y-28573815D01*
X59619463Y-28670506D01*
X59560498Y-28780820D01*
X59524188Y-28900518D01*
X59511928Y-29025000D01*
X50961596Y-29025000D01*
X50938406Y-28981615D01*
X50827963Y-28847039D01*
X50693387Y-28736596D01*
X50539851Y-28654529D01*
X50373255Y-28603993D01*
X50200001Y-28586929D01*
X48750001Y-28586929D01*
X48576747Y-28603993D01*
X48410151Y-28654529D01*
X48256615Y-28736596D01*
X48122039Y-28847039D01*
X48011596Y-28981615D01*
X47929529Y-29135151D01*
X47878993Y-29301747D01*
X47861929Y-29475001D01*
X47861929Y-30613272D01*
X47663989Y-30811212D01*
X47634991Y-30835010D01*
X47611193Y-30864008D01*
X47611192Y-30864009D01*
X47540017Y-30950735D01*
X47469445Y-31082765D01*
X47447371Y-31155536D01*
X47425989Y-31226025D01*
X47421095Y-31275714D01*
X47411315Y-31375011D01*
X47414992Y-31412343D01*
X47414991Y-33737668D01*
X47411315Y-33774991D01*
X47414991Y-33812313D01*
X47414991Y-33812323D01*
X47425988Y-33923976D01*
X47459969Y-34035997D01*
X47469445Y-34067237D01*
X47540017Y-34199267D01*
X47574269Y-34241003D01*
X47634990Y-34314992D01*
X47663994Y-34338795D01*
X47938297Y-34613098D01*
X47886488Y-34783890D01*
X47857816Y-35075001D01*
X47886488Y-35366112D01*
X47971402Y-35646035D01*
X48109295Y-35904015D01*
X48294867Y-36130135D01*
X48520987Y-36315707D01*
X48538375Y-36325001D01*
X48520987Y-36334295D01*
X48294867Y-36519867D01*
X48109295Y-36745987D01*
X47971402Y-37003967D01*
X47886488Y-37283890D01*
X47857816Y-37575001D01*
X47886488Y-37866112D01*
X47971402Y-38146035D01*
X48109295Y-38404015D01*
X48294867Y-38630135D01*
X48520987Y-38815707D01*
X48778967Y-38953600D01*
X49058890Y-39038514D01*
X49277051Y-39060001D01*
X49672951Y-39060001D01*
X49866169Y-39040971D01*
X51165198Y-40340000D01*
X39660000Y-40340000D01*
X39660000Y-26660000D01*
X103340001Y-26660000D01*
X103340000Y-40340000D01*
G37*
X103340000Y-40340000D02*
X74610491Y-40340000D01*
X75918972Y-39031519D01*
X75927071Y-39113745D01*
X75971916Y-39261582D01*
X76044742Y-39397829D01*
X76142749Y-39517251D01*
X76262171Y-39615258D01*
X76398418Y-39688084D01*
X76546255Y-39732929D01*
X76700000Y-39748072D01*
X78350000Y-39748072D01*
X78503745Y-39732929D01*
X78651582Y-39688084D01*
X78787829Y-39615258D01*
X78907251Y-39517251D01*
X79005258Y-39397829D01*
X79078084Y-39261582D01*
X79122929Y-39113745D01*
X79138072Y-38960000D01*
X79138072Y-38660000D01*
X79122929Y-38506255D01*
X79078084Y-38358418D01*
X79005258Y-38222171D01*
X78966546Y-38175000D01*
X79005258Y-38127829D01*
X79078084Y-37991582D01*
X79122929Y-37843745D01*
X79138072Y-37690000D01*
X79138072Y-37390000D01*
X79122929Y-37236255D01*
X79078084Y-37088418D01*
X79005258Y-36952171D01*
X78966546Y-36905000D01*
X79005258Y-36857829D01*
X79078084Y-36721582D01*
X79122929Y-36573745D01*
X79124940Y-36553330D01*
X79196063Y-36659774D01*
X79340226Y-36803937D01*
X79509744Y-36917205D01*
X79698102Y-36995226D01*
X79898061Y-37035000D01*
X80101939Y-37035000D01*
X80162045Y-37023044D01*
X80232667Y-37030000D01*
X80232675Y-37030000D01*
X80270000Y-37033676D01*
X80307325Y-37030000D01*
X80953141Y-37030000D01*
X80921916Y-37088418D01*
X80877071Y-37236255D01*
X80861928Y-37390000D01*
X80861928Y-37690000D01*
X80877071Y-37843745D01*
X80921916Y-37991582D01*
X80994742Y-38127829D01*
X81033454Y-38175000D01*
X80994742Y-38222171D01*
X80921916Y-38358418D01*
X80877071Y-38506255D01*
X80861928Y-38660000D01*
X80861928Y-38960000D01*
X80877071Y-39113745D01*
X80921916Y-39261582D01*
X80994742Y-39397829D01*
X81092749Y-39517251D01*
X81212171Y-39615258D01*
X81348418Y-39688084D01*
X81496255Y-39732929D01*
X81650000Y-39748072D01*
X83300000Y-39748072D01*
X83453745Y-39732929D01*
X83601582Y-39688084D01*
X83737829Y-39615258D01*
X83857251Y-39517251D01*
X83955258Y-39397829D01*
X84028084Y-39261582D01*
X84072929Y-39113745D01*
X84088072Y-38960000D01*
X84088072Y-38660000D01*
X84072929Y-38506255D01*
X84028084Y-38358418D01*
X83955258Y-38222171D01*
X83916546Y-38175000D01*
X83955258Y-38127829D01*
X84028084Y-37991582D01*
X84072929Y-37843745D01*
X84088072Y-37690000D01*
X84088072Y-37390000D01*
X84072929Y-37236255D01*
X84028084Y-37088418D01*
X83955258Y-36952171D01*
X83916546Y-36905000D01*
X83955258Y-36857829D01*
X84028084Y-36721582D01*
X84072929Y-36573745D01*
X84088072Y-36420000D01*
X84088072Y-36350000D01*
X91386928Y-36350000D01*
X91399188Y-36474482D01*
X91435498Y-36594180D01*
X91494463Y-36704494D01*
X91573815Y-36801185D01*
X91670506Y-36880537D01*
X91780820Y-36939502D01*
X91900518Y-36975812D01*
X92025000Y-36988072D01*
X92714250Y-36985000D01*
X92873000Y-36826250D01*
X92873000Y-35627000D01*
X93127000Y-35627000D01*
X93127000Y-36826250D01*
X93285750Y-36985000D01*
X93975000Y-36988072D01*
X94099482Y-36975812D01*
X94219180Y-36939502D01*
X94329494Y-36880537D01*
X94426185Y-36801185D01*
X94505537Y-36704494D01*
X94564502Y-36594180D01*
X94600812Y-36474482D01*
X94613072Y-36350000D01*
X94610000Y-35785750D01*
X94451250Y-35627000D01*
X93127000Y-35627000D01*
X92873000Y-35627000D01*
X91548750Y-35627000D01*
X91390000Y-35785750D01*
X91386928Y-36350000D01*
X84088072Y-36350000D01*
X84088072Y-36120000D01*
X84072929Y-35966255D01*
X84028084Y-35818418D01*
X83955258Y-35682171D01*
X83916546Y-35635000D01*
X83955258Y-35587829D01*
X84028084Y-35451582D01*
X84072929Y-35303745D01*
X84088072Y-35150000D01*
X84088072Y-34850000D01*
X84072929Y-34696255D01*
X84028084Y-34548418D01*
X83955258Y-34412171D01*
X83916546Y-34365000D01*
X83955258Y-34317829D01*
X84028084Y-34181582D01*
X84072929Y-34033745D01*
X84088072Y-33880000D01*
X84088072Y-33580000D01*
X84072929Y-33426255D01*
X84028084Y-33278418D01*
X83955258Y-33142171D01*
X83916546Y-33095000D01*
X83955258Y-33047829D01*
X84028084Y-32911582D01*
X84072929Y-32763745D01*
X84088072Y-32610000D01*
X84088072Y-32594990D01*
X85979828Y-32594990D01*
X85894002Y-32652337D01*
X85652337Y-32894002D01*
X85462463Y-33178169D01*
X85331675Y-33493919D01*
X85265000Y-33829117D01*
X85265000Y-34170883D01*
X85331675Y-34506081D01*
X85462463Y-34821831D01*
X85652337Y-35105998D01*
X85894002Y-35347663D01*
X86178169Y-35537537D01*
X86493919Y-35668325D01*
X86829117Y-35735000D01*
X87170883Y-35735000D01*
X87506081Y-35668325D01*
X87821831Y-35537537D01*
X88105998Y-35347663D01*
X88347663Y-35105998D01*
X88537537Y-34821831D01*
X88668325Y-34506081D01*
X88735000Y-34170883D01*
X88735000Y-33829117D01*
X88668325Y-33493919D01*
X88537537Y-33178169D01*
X88347663Y-32894002D01*
X88105998Y-32652337D01*
X88020172Y-32594990D01*
X91446038Y-32594990D01*
X91411487Y-32708889D01*
X91382815Y-33000000D01*
X91411487Y-33291111D01*
X91496401Y-33571034D01*
X91634294Y-33829014D01*
X91815608Y-34049945D01*
X91780820Y-34060498D01*
X91670506Y-34119463D01*
X91573815Y-34198815D01*
X91494463Y-34295506D01*
X91435498Y-34405820D01*
X91399188Y-34525518D01*
X91386928Y-34650000D01*
X91390000Y-35214250D01*
X91548750Y-35373000D01*
X92873000Y-35373000D01*
X92873000Y-35353000D01*
X93127000Y-35353000D01*
X93127000Y-35373000D01*
X94451250Y-35373000D01*
X94610000Y-35214250D01*
X94613072Y-34650000D01*
X94600812Y-34525518D01*
X94564502Y-34405820D01*
X94505537Y-34295506D01*
X94426185Y-34198815D01*
X94329494Y-34119463D01*
X94219180Y-34060498D01*
X94184392Y-34049945D01*
X94365706Y-33829014D01*
X94503599Y-33571034D01*
X94588513Y-33291111D01*
X94617185Y-33000000D01*
X94588513Y-32708889D01*
X94536704Y-32538098D01*
X94811014Y-32263788D01*
X94840011Y-32239991D01*
X94934984Y-32124266D01*
X95005556Y-31992237D01*
X95049013Y-31848976D01*
X95060010Y-31737323D01*
X95060010Y-31737315D01*
X95063686Y-31699990D01*
X95060010Y-31662665D01*
X95060010Y-30050618D01*
X95063686Y-30013295D01*
X95060010Y-29975972D01*
X95060010Y-29975962D01*
X95049013Y-29864309D01*
X95005556Y-29721048D01*
X94978797Y-29670986D01*
X94934984Y-29589018D01*
X94863809Y-29502292D01*
X94840011Y-29473294D01*
X94811013Y-29449496D01*
X92650509Y-27288993D01*
X92626706Y-27259989D01*
X92510981Y-27165016D01*
X92378952Y-27094444D01*
X92235691Y-27050987D01*
X92124038Y-27039990D01*
X92124027Y-27039990D01*
X92086705Y-27036314D01*
X92049383Y-27039990D01*
X79749832Y-27039990D01*
X79712509Y-27036314D01*
X79675186Y-27039990D01*
X79675177Y-27039990D01*
X79563524Y-27050987D01*
X79420263Y-27094444D01*
X79288234Y-27165016D01*
X79288232Y-27165017D01*
X79288233Y-27165017D01*
X79201506Y-27236191D01*
X79201502Y-27236195D01*
X79172509Y-27259989D01*
X79148715Y-27288982D01*
X78950769Y-27486928D01*
X78050000Y-27486928D01*
X77876746Y-27503992D01*
X77710150Y-27554528D01*
X77556614Y-27636595D01*
X77422038Y-27747038D01*
X77417555Y-27752500D01*
X75458319Y-27752500D01*
X75445472Y-27710150D01*
X75363405Y-27556614D01*
X75252962Y-27422038D01*
X75118386Y-27311595D01*
X74964850Y-27229528D01*
X74798254Y-27178992D01*
X74625000Y-27161928D01*
X73375000Y-27161928D01*
X73201746Y-27178992D01*
X73035150Y-27229528D01*
X72881614Y-27311595D01*
X72747038Y-27422038D01*
X72636595Y-27556614D01*
X72554528Y-27710150D01*
X72541681Y-27752500D01*
X72458319Y-27752500D01*
X72445472Y-27710150D01*
X72363405Y-27556614D01*
X72252962Y-27422038D01*
X72118386Y-27311595D01*
X71964850Y-27229528D01*
X71798254Y-27178992D01*
X71625000Y-27161928D01*
X70375000Y-27161928D01*
X70201746Y-27178992D01*
X70035150Y-27229528D01*
X69881614Y-27311595D01*
X69747038Y-27422038D01*
X69636595Y-27556614D01*
X69554528Y-27710150D01*
X69503992Y-27876746D01*
X69486928Y-28050000D01*
X69486928Y-28950770D01*
X67897689Y-30540010D01*
X67425928Y-30540010D01*
X67463513Y-30416110D01*
X67485000Y-30197949D01*
X67485000Y-29802050D01*
X67463513Y-29583889D01*
X67378599Y-29303966D01*
X67240706Y-29045986D01*
X67055134Y-28819866D01*
X66829013Y-28634294D01*
X66571033Y-28496401D01*
X66291110Y-28411487D01*
X66000000Y-28382815D01*
X65708889Y-28411487D01*
X65428966Y-28496401D01*
X65170986Y-28634294D01*
X64944866Y-28819866D01*
X64759294Y-29045987D01*
X64750000Y-29063374D01*
X64740706Y-29045986D01*
X64555134Y-28819866D01*
X64329013Y-28634294D01*
X64071033Y-28496401D01*
X63791110Y-28411487D01*
X63500000Y-28382815D01*
X63208889Y-28411487D01*
X62928966Y-28496401D01*
X62670986Y-28634294D01*
X62450055Y-28815608D01*
X62439502Y-28780820D01*
X62380537Y-28670506D01*
X62301185Y-28573815D01*
X62204494Y-28494463D01*
X62094180Y-28435498D01*
X61974482Y-28399188D01*
X61850000Y-28386928D01*
X61285750Y-28390000D01*
X61127000Y-28548750D01*
X61127000Y-29873000D01*
X61147000Y-29873000D01*
X61147000Y-30127000D01*
X61127000Y-30127000D01*
X61127000Y-31451250D01*
X61285750Y-31610000D01*
X61850000Y-31613072D01*
X61974482Y-31600812D01*
X62094180Y-31564502D01*
X62204494Y-31505537D01*
X62301185Y-31426185D01*
X62380537Y-31329494D01*
X62439502Y-31219180D01*
X62450055Y-31184392D01*
X62670987Y-31365706D01*
X62740001Y-31402595D01*
X62740000Y-35597405D01*
X62670986Y-35634294D01*
X62450055Y-35815608D01*
X62439502Y-35780820D01*
X62380537Y-35670506D01*
X62301185Y-35573815D01*
X62204494Y-35494463D01*
X62094180Y-35435498D01*
X61974482Y-35399188D01*
X61850000Y-35386928D01*
X61285750Y-35390000D01*
X61127000Y-35548750D01*
X61127000Y-36873000D01*
X61147000Y-36873000D01*
X61147000Y-37127000D01*
X61127000Y-37127000D01*
X61127000Y-37147000D01*
X60873000Y-37147000D01*
X60873000Y-37127000D01*
X59673750Y-37127000D01*
X59515000Y-37285750D01*
X59511928Y-37975000D01*
X59513407Y-37990019D01*
X55964821Y-37990019D01*
X53999802Y-36025000D01*
X59511928Y-36025000D01*
X59515000Y-36714250D01*
X59673750Y-36873000D01*
X60873000Y-36873000D01*
X60873000Y-35548750D01*
X60714250Y-35390000D01*
X60150000Y-35386928D01*
X60025518Y-35399188D01*
X59905820Y-35435498D01*
X59795506Y-35494463D01*
X59698815Y-35573815D01*
X59619463Y-35670506D01*
X59560498Y-35780820D01*
X59524188Y-35900518D01*
X59511928Y-36025000D01*
X53999802Y-36025000D01*
X51803919Y-33829117D01*
X53265000Y-33829117D01*
X53265000Y-34170883D01*
X53331675Y-34506081D01*
X53462463Y-34821831D01*
X53652337Y-35105998D01*
X53894002Y-35347663D01*
X54178169Y-35537537D01*
X54493919Y-35668325D01*
X54829117Y-35735000D01*
X55170883Y-35735000D01*
X55506081Y-35668325D01*
X55821831Y-35537537D01*
X56105998Y-35347663D01*
X56347663Y-35105998D01*
X56537537Y-34821831D01*
X56668325Y-34506081D01*
X56735000Y-34170883D01*
X56735000Y-33829117D01*
X56668325Y-33493919D01*
X56537537Y-33178169D01*
X56347663Y-32894002D01*
X56105998Y-32652337D01*
X55821831Y-32462463D01*
X55506081Y-32331675D01*
X55170883Y-32265000D01*
X54829117Y-32265000D01*
X54493919Y-32331675D01*
X54178169Y-32462463D01*
X53894002Y-32652337D01*
X53652337Y-32894002D01*
X53462463Y-33178169D01*
X53331675Y-33493919D01*
X53265000Y-33829117D01*
X51803919Y-33829117D01*
X51011705Y-33036904D01*
X51063514Y-32866112D01*
X51092186Y-32575001D01*
X51063514Y-32283890D01*
X50978600Y-32003967D01*
X50840707Y-31745987D01*
X50655135Y-31519867D01*
X50591664Y-31467778D01*
X50693387Y-31413406D01*
X50827963Y-31302963D01*
X50938406Y-31168387D01*
X51020473Y-31014851D01*
X51032561Y-30975000D01*
X59511928Y-30975000D01*
X59524188Y-31099482D01*
X59560498Y-31219180D01*
X59619463Y-31329494D01*
X59698815Y-31426185D01*
X59795506Y-31505537D01*
X59905820Y-31564502D01*
X60025518Y-31600812D01*
X60150000Y-31613072D01*
X60714250Y-31610000D01*
X60873000Y-31451250D01*
X60873000Y-30127000D01*
X59673750Y-30127000D01*
X59515000Y-30285750D01*
X59511928Y-30975000D01*
X51032561Y-30975000D01*
X51071009Y-30848255D01*
X51088073Y-30675001D01*
X51088073Y-29475001D01*
X51071009Y-29301747D01*
X51020473Y-29135151D01*
X50961596Y-29025000D01*
X59511928Y-29025000D01*
X59515000Y-29714250D01*
X59673750Y-29873000D01*
X60873000Y-29873000D01*
X60873000Y-28548750D01*
X60714250Y-28390000D01*
X60150000Y-28386928D01*
X60025518Y-28399188D01*
X59905820Y-28435498D01*
X59795506Y-28494463D01*
X59698815Y-28573815D01*
X59619463Y-28670506D01*
X59560498Y-28780820D01*
X59524188Y-28900518D01*
X59511928Y-29025000D01*
X50961596Y-29025000D01*
X50938406Y-28981615D01*
X50827963Y-28847039D01*
X50693387Y-28736596D01*
X50539851Y-28654529D01*
X50373255Y-28603993D01*
X50200001Y-28586929D01*
X48750001Y-28586929D01*
X48576747Y-28603993D01*
X48410151Y-28654529D01*
X48256615Y-28736596D01*
X48122039Y-28847039D01*
X48011596Y-28981615D01*
X47929529Y-29135151D01*
X47878993Y-29301747D01*
X47861929Y-29475001D01*
X47861929Y-30613272D01*
X47663989Y-30811212D01*
X47634991Y-30835010D01*
X47611193Y-30864008D01*
X47611192Y-30864009D01*
X47540017Y-30950735D01*
X47469445Y-31082765D01*
X47447371Y-31155536D01*
X47425989Y-31226025D01*
X47421095Y-31275714D01*
X47411315Y-31375011D01*
X47414992Y-31412343D01*
X47414991Y-33737668D01*
X47411315Y-33774991D01*
X47414991Y-33812313D01*
X47414991Y-33812323D01*
X47425988Y-33923976D01*
X47459969Y-34035997D01*
X47469445Y-34067237D01*
X47540017Y-34199267D01*
X47574269Y-34241003D01*
X47634990Y-34314992D01*
X47663994Y-34338795D01*
X47938297Y-34613098D01*
X47886488Y-34783890D01*
X47857816Y-35075001D01*
X47886488Y-35366112D01*
X47971402Y-35646035D01*
X48109295Y-35904015D01*
X48294867Y-36130135D01*
X48520987Y-36315707D01*
X48538375Y-36325001D01*
X48520987Y-36334295D01*
X48294867Y-36519867D01*
X48109295Y-36745987D01*
X47971402Y-37003967D01*
X47886488Y-37283890D01*
X47857816Y-37575001D01*
X47886488Y-37866112D01*
X47971402Y-38146035D01*
X48109295Y-38404015D01*
X48294867Y-38630135D01*
X48520987Y-38815707D01*
X48778967Y-38953600D01*
X49058890Y-39038514D01*
X49277051Y-39060001D01*
X49672951Y-39060001D01*
X49866169Y-39040971D01*
X51165198Y-40340000D01*
X39660000Y-40340000D01*
X39660000Y-26660000D01*
X103340001Y-26660000D01*
X103340000Y-40340000D01*
G36*
X80140000Y-28714250D02*
G01*
X80298750Y-28873000D01*
X81360500Y-28873000D01*
X81360500Y-28853000D01*
X81614500Y-28853000D01*
X81614500Y-28873000D01*
X82676250Y-28873000D01*
X82835000Y-28714250D01*
X82835804Y-28559990D01*
X91771904Y-28559990D01*
X92326484Y-29114570D01*
X92303966Y-29121401D01*
X92045986Y-29259294D01*
X91819866Y-29444866D01*
X91634294Y-29670986D01*
X91496401Y-29928966D01*
X91411487Y-30208889D01*
X91382815Y-30500000D01*
X91411487Y-30791111D01*
X91463296Y-30961903D01*
X91350209Y-31074990D01*
X84085000Y-31074990D01*
X84085000Y-31062998D01*
X83926252Y-31062998D01*
X84085000Y-30904250D01*
X84088072Y-30890000D01*
X84075812Y-30765518D01*
X84039502Y-30645820D01*
X83980537Y-30535506D01*
X83901185Y-30438815D01*
X83804494Y-30359463D01*
X83694180Y-30300498D01*
X83574482Y-30264188D01*
X83450000Y-30251928D01*
X82760750Y-30255000D01*
X82602002Y-30413748D01*
X82602002Y-30366548D01*
X82651185Y-30326185D01*
X82730537Y-30229494D01*
X82789502Y-30119180D01*
X82825812Y-29999482D01*
X82838072Y-29875000D01*
X82835000Y-29285750D01*
X82676250Y-29127000D01*
X81614500Y-29127000D01*
X81614500Y-29147000D01*
X81360500Y-29147000D01*
X81360500Y-29127000D01*
X80298750Y-29127000D01*
X80140000Y-29285750D01*
X80136928Y-29875000D01*
X80149188Y-29999482D01*
X80185498Y-30119180D01*
X80244463Y-30229494D01*
X80323815Y-30326185D01*
X80420506Y-30405537D01*
X80530820Y-30464502D01*
X80650518Y-30500812D01*
X80775000Y-30513072D01*
X80989139Y-30511530D01*
X80969463Y-30535506D01*
X80910498Y-30645820D01*
X80874188Y-30765518D01*
X80861928Y-30890000D01*
X80865000Y-30904250D01*
X81023748Y-31062998D01*
X80865000Y-31062998D01*
X80865000Y-31074990D01*
X79138072Y-31074990D01*
X79138072Y-31040000D01*
X79122929Y-30886255D01*
X79078084Y-30738418D01*
X79069315Y-30722013D01*
X79078832Y-30710417D01*
X79147474Y-30626777D01*
X79218046Y-30494747D01*
X79221685Y-30482749D01*
X79224698Y-30472819D01*
X79314850Y-30445472D01*
X79468386Y-30363405D01*
X79602962Y-30252962D01*
X79713405Y-30118386D01*
X79795472Y-29964850D01*
X79846008Y-29798254D01*
X79863072Y-29625000D01*
X79863072Y-28724230D01*
X80027313Y-28559990D01*
X80139196Y-28559990D01*
X80140000Y-28714250D01*
G37*
X80140000Y-28714250D02*
X80298750Y-28873000D01*
X81360500Y-28873000D01*
X81360500Y-28853000D01*
X81614500Y-28853000D01*
X81614500Y-28873000D01*
X82676250Y-28873000D01*
X82835000Y-28714250D01*
X82835804Y-28559990D01*
X91771904Y-28559990D01*
X92326484Y-29114570D01*
X92303966Y-29121401D01*
X92045986Y-29259294D01*
X91819866Y-29444866D01*
X91634294Y-29670986D01*
X91496401Y-29928966D01*
X91411487Y-30208889D01*
X91382815Y-30500000D01*
X91411487Y-30791111D01*
X91463296Y-30961903D01*
X91350209Y-31074990D01*
X84085000Y-31074990D01*
X84085000Y-31062998D01*
X83926252Y-31062998D01*
X84085000Y-30904250D01*
X84088072Y-30890000D01*
X84075812Y-30765518D01*
X84039502Y-30645820D01*
X83980537Y-30535506D01*
X83901185Y-30438815D01*
X83804494Y-30359463D01*
X83694180Y-30300498D01*
X83574482Y-30264188D01*
X83450000Y-30251928D01*
X82760750Y-30255000D01*
X82602002Y-30413748D01*
X82602002Y-30366548D01*
X82651185Y-30326185D01*
X82730537Y-30229494D01*
X82789502Y-30119180D01*
X82825812Y-29999482D01*
X82838072Y-29875000D01*
X82835000Y-29285750D01*
X82676250Y-29127000D01*
X81614500Y-29127000D01*
X81614500Y-29147000D01*
X81360500Y-29147000D01*
X81360500Y-29127000D01*
X80298750Y-29127000D01*
X80140000Y-29285750D01*
X80136928Y-29875000D01*
X80149188Y-29999482D01*
X80185498Y-30119180D01*
X80244463Y-30229494D01*
X80323815Y-30326185D01*
X80420506Y-30405537D01*
X80530820Y-30464502D01*
X80650518Y-30500812D01*
X80775000Y-30513072D01*
X80989139Y-30511530D01*
X80969463Y-30535506D01*
X80910498Y-30645820D01*
X80874188Y-30765518D01*
X80861928Y-30890000D01*
X80865000Y-30904250D01*
X81023748Y-31062998D01*
X80865000Y-31062998D01*
X80865000Y-31074990D01*
X79138072Y-31074990D01*
X79138072Y-31040000D01*
X79122929Y-30886255D01*
X79078084Y-30738418D01*
X79069315Y-30722013D01*
X79078832Y-30710417D01*
X79147474Y-30626777D01*
X79218046Y-30494747D01*
X79221685Y-30482749D01*
X79224698Y-30472819D01*
X79314850Y-30445472D01*
X79468386Y-30363405D01*
X79602962Y-30252962D01*
X79713405Y-30118386D01*
X79795472Y-29964850D01*
X79846008Y-29798254D01*
X79863072Y-29625000D01*
X79863072Y-28724230D01*
X80027313Y-28559990D01*
X80139196Y-28559990D01*
X80140000Y-28714250D01*
%TD*%
M02*
