%TF.GenerationSoftware,KiCad,Pcbnew,7.0.1*%
%TF.CreationDate,2023-10-30T09:30:19+01:00*%
%TF.ProjectId,opto-counter,6f70746f-2d63-46f7-956e-7465722e6b69,rev?*%
%TF.SameCoordinates,Original*%
%TF.FileFunction,Copper,L2,Bot*%
%TF.FilePolarity,Positive*%
%FSLAX46Y46*%
G04 Gerber Fmt 4.6, Leading zero omitted, Abs format (unit mm)*
G04 Created by KiCad (PCBNEW 7.0.1) date 2023-10-30 09:30:19*
%MOMM*%
%LPD*%
G01*
G04 APERTURE LIST*
G04 Aperture macros list*
%AMRoundRect*
0 Rectangle with rounded corners*
0 $1 Rounding radius*
0 $2 $3 $4 $5 $6 $7 $8 $9 X,Y pos of 4 corners*
0 Add a 4 corners polygon primitive as box body*
4,1,4,$2,$3,$4,$5,$6,$7,$8,$9,$2,$3,0*
0 Add four circle primitives for the rounded corners*
1,1,$1+$1,$2,$3*
1,1,$1+$1,$4,$5*
1,1,$1+$1,$6,$7*
1,1,$1+$1,$8,$9*
0 Add four rect primitives between the rounded corners*
20,1,$1+$1,$2,$3,$4,$5,0*
20,1,$1+$1,$4,$5,$6,$7,0*
20,1,$1+$1,$6,$7,$8,$9,0*
20,1,$1+$1,$8,$9,$2,$3,0*%
G04 Aperture macros list end*
%TA.AperFunction,ComponentPad*%
%ADD10R,1.800000X1.800000*%
%TD*%
%TA.AperFunction,ComponentPad*%
%ADD11C,1.800000*%
%TD*%
%TA.AperFunction,ComponentPad*%
%ADD12R,1.700000X1.700000*%
%TD*%
%TA.AperFunction,ComponentPad*%
%ADD13O,1.700000X1.700000*%
%TD*%
%TA.AperFunction,ComponentPad*%
%ADD14RoundRect,0.250000X0.600000X0.725000X-0.600000X0.725000X-0.600000X-0.725000X0.600000X-0.725000X0*%
%TD*%
%TA.AperFunction,ComponentPad*%
%ADD15O,1.700000X1.950000*%
%TD*%
%TA.AperFunction,ComponentPad*%
%ADD16RoundRect,0.250000X-0.725000X0.600000X-0.725000X-0.600000X0.725000X-0.600000X0.725000X0.600000X0*%
%TD*%
%TA.AperFunction,ComponentPad*%
%ADD17O,1.950000X1.700000*%
%TD*%
%TA.AperFunction,ViaPad*%
%ADD18C,0.800000*%
%TD*%
%TA.AperFunction,Conductor*%
%ADD19C,0.250000*%
%TD*%
%TA.AperFunction,Conductor*%
%ADD20C,0.508000*%
%TD*%
G04 APERTURE END LIST*
D10*
%TO.P,D1,1,K*%
%TO.N,Net-(D1-K)*%
X66040000Y-38100000D03*
D11*
%TO.P,D1,2,A*%
%TO.N,Net-(D1-A)*%
X68580000Y-38100000D03*
%TD*%
D10*
%TO.P,D2,1,K*%
%TO.N,Net-(D1-K)*%
X88900000Y-38100000D03*
D11*
%TO.P,D2,2,A*%
%TO.N,Net-(D2-A)*%
X86360000Y-38100000D03*
%TD*%
D12*
%TO.P,J1,1,Pin_1*%
%TO.N,Net-(J1-Pin_1)*%
X82550000Y-43195000D03*
D13*
%TO.P,J1,2,Pin_2*%
%TO.N,GND*%
X82550000Y-45735000D03*
%TO.P,J1,3,Pin_3*%
%TO.N,+3V3*%
X82550000Y-48275000D03*
%TD*%
D14*
%TO.P,J2,1,Pin_1*%
%TO.N,GND*%
X74810000Y-43540000D03*
D15*
%TO.P,J2,2,Pin_2*%
%TO.N,+3V3*%
X72310000Y-43540000D03*
%TO.P,J2,3,Pin_3*%
%TO.N,SDA*%
X69810000Y-43540000D03*
%TO.P,J2,4,Pin_4*%
%TO.N,SCL*%
X67310000Y-43540000D03*
%TD*%
D16*
%TO.P,J3,1,Pin_1*%
%TO.N,GND*%
X82550000Y-28020000D03*
D17*
%TO.P,J3,2,Pin_2*%
%TO.N,+3V3*%
X82550000Y-30520000D03*
%TO.P,J3,3,Pin_3*%
%TO.N,UPDI*%
X82550000Y-33020000D03*
%TD*%
D18*
%TO.N,GND*%
X69850000Y-31750000D03*
X69850000Y-45720000D03*
X80010000Y-30480000D03*
%TO.N,Net-(J1-Pin_1)*%
X78740000Y-35560000D03*
%TD*%
D19*
%TO.N,Net-(D1-K)*%
X75681299Y-39370000D02*
X67310000Y-39370000D01*
X67310000Y-39370000D02*
X66040000Y-38100000D01*
X83780000Y-44370000D02*
X80681299Y-44370000D01*
X80681299Y-44370000D02*
X75681299Y-39370000D01*
X88900000Y-38100000D02*
X88900000Y-39250000D01*
X88900000Y-39250000D02*
X83780000Y-44370000D01*
D20*
%TO.N,GND*%
X82550000Y-45735000D02*
X77005000Y-45735000D01*
X77005000Y-45735000D02*
X74810000Y-43540000D01*
D19*
%TO.N,Net-(J1-Pin_1)*%
X82550000Y-43195000D02*
X82550000Y-39370000D01*
X82550000Y-39370000D02*
X78740000Y-35560000D01*
%TD*%
%TA.AperFunction,Conductor*%
%TO.N,GND*%
G36*
X91351500Y-24172381D02*
G01*
X91397619Y-24218500D01*
X91414500Y-24281500D01*
X91414500Y-51918500D01*
X91397619Y-51981500D01*
X91351500Y-52027619D01*
X91288500Y-52044500D01*
X63651500Y-52044500D01*
X63588500Y-52027619D01*
X63542381Y-51981500D01*
X63525500Y-51918500D01*
X63525500Y-48275000D01*
X81186844Y-48275000D01*
X81205436Y-48499368D01*
X81205436Y-48499371D01*
X81205437Y-48499372D01*
X81260702Y-48717611D01*
X81260703Y-48717614D01*
X81260704Y-48717616D01*
X81283856Y-48770398D01*
X81351139Y-48923790D01*
X81474278Y-49112268D01*
X81626762Y-49277908D01*
X81653212Y-49298495D01*
X81804424Y-49416189D01*
X82002426Y-49523342D01*
X82215365Y-49596444D01*
X82437431Y-49633500D01*
X82662566Y-49633500D01*
X82662569Y-49633500D01*
X82884635Y-49596444D01*
X83097574Y-49523342D01*
X83295576Y-49416189D01*
X83473240Y-49277906D01*
X83625722Y-49112268D01*
X83748860Y-48923791D01*
X83839296Y-48717616D01*
X83894564Y-48499368D01*
X83913156Y-48275000D01*
X83911913Y-48260000D01*
X86274341Y-48260000D01*
X86294937Y-48495409D01*
X86356096Y-48723662D01*
X86455965Y-48937829D01*
X86591507Y-49131404D01*
X86758595Y-49298492D01*
X86758598Y-49298494D01*
X86758599Y-49298495D01*
X86952171Y-49434035D01*
X87166337Y-49533903D01*
X87394592Y-49595063D01*
X87571034Y-49610500D01*
X87688960Y-49610500D01*
X87688966Y-49610500D01*
X87865408Y-49595063D01*
X88093663Y-49533903D01*
X88307829Y-49434035D01*
X88501401Y-49298495D01*
X88668495Y-49131401D01*
X88804035Y-48937830D01*
X88903903Y-48723663D01*
X88965063Y-48495408D01*
X88985659Y-48260000D01*
X88965063Y-48024592D01*
X88903903Y-47796337D01*
X88804035Y-47582171D01*
X88668495Y-47388599D01*
X88668494Y-47388598D01*
X88668492Y-47388595D01*
X88501404Y-47221507D01*
X88307829Y-47085965D01*
X88093662Y-46986096D01*
X87865409Y-46924937D01*
X87840202Y-46922731D01*
X87688966Y-46909500D01*
X87571034Y-46909500D01*
X87438702Y-46921077D01*
X87394590Y-46924937D01*
X87166337Y-46986096D01*
X86952170Y-47085965D01*
X86758595Y-47221507D01*
X86591507Y-47388595D01*
X86455965Y-47582169D01*
X86356096Y-47796336D01*
X86294937Y-48024590D01*
X86274341Y-48260000D01*
X83911913Y-48260000D01*
X83894564Y-48050632D01*
X83839296Y-47832384D01*
X83748860Y-47626209D01*
X83625722Y-47437732D01*
X83473240Y-47272094D01*
X83473239Y-47272093D01*
X83473237Y-47272091D01*
X83366641Y-47189124D01*
X83295576Y-47133811D01*
X83261792Y-47115528D01*
X83213521Y-47069212D01*
X83195762Y-47004715D01*
X83213521Y-46940217D01*
X83261793Y-46893901D01*
X83295300Y-46875768D01*
X83472903Y-46737533D01*
X83625321Y-46571962D01*
X83748419Y-46383548D01*
X83838822Y-46177451D01*
X83886544Y-45989000D01*
X81213455Y-45989000D01*
X81261177Y-46177451D01*
X81351580Y-46383548D01*
X81474678Y-46571962D01*
X81627096Y-46737533D01*
X81804702Y-46875769D01*
X81838207Y-46893902D01*
X81886478Y-46940218D01*
X81904237Y-47004715D01*
X81886478Y-47069212D01*
X81838207Y-47115528D01*
X81804423Y-47133811D01*
X81626762Y-47272091D01*
X81474278Y-47437731D01*
X81351139Y-47626209D01*
X81260702Y-47832388D01*
X81212030Y-48024592D01*
X81205436Y-48050632D01*
X81186844Y-48275000D01*
X63525500Y-48275000D01*
X63525500Y-43722714D01*
X65951500Y-43722714D01*
X65966198Y-43895418D01*
X66024469Y-44119206D01*
X66119721Y-44329929D01*
X66186328Y-44428476D01*
X66249217Y-44521523D01*
X66409228Y-44688476D01*
X66595153Y-44825985D01*
X66801643Y-44930095D01*
X67022757Y-44997811D01*
X67252135Y-45027184D01*
X67483178Y-45017369D01*
X67709238Y-44968649D01*
X67923813Y-44882426D01*
X68120730Y-44761179D01*
X68294324Y-44608398D01*
X68439600Y-44428476D01*
X68439603Y-44428471D01*
X68451447Y-44407270D01*
X68495383Y-44361426D01*
X68556099Y-44342832D01*
X68618173Y-44356209D01*
X68665838Y-44398160D01*
X68680145Y-44419328D01*
X68749215Y-44521521D01*
X68749217Y-44521523D01*
X68909228Y-44688476D01*
X69095153Y-44825985D01*
X69301643Y-44930095D01*
X69522757Y-44997811D01*
X69752135Y-45027184D01*
X69983178Y-45017369D01*
X70209238Y-44968649D01*
X70423813Y-44882426D01*
X70620730Y-44761179D01*
X70794324Y-44608398D01*
X70939600Y-44428476D01*
X70939603Y-44428471D01*
X70951447Y-44407270D01*
X70995383Y-44361426D01*
X71056099Y-44342832D01*
X71118173Y-44356209D01*
X71165838Y-44398160D01*
X71180145Y-44419328D01*
X71249215Y-44521521D01*
X71249217Y-44521523D01*
X71409228Y-44688476D01*
X71595153Y-44825985D01*
X71801643Y-44930095D01*
X72022757Y-44997811D01*
X72252135Y-45027184D01*
X72483178Y-45017369D01*
X72709238Y-44968649D01*
X72923813Y-44882426D01*
X73120730Y-44761179D01*
X73294324Y-44608398D01*
X73316800Y-44580561D01*
X73364128Y-44544370D01*
X73422799Y-44533970D01*
X73479687Y-44551692D01*
X73522072Y-44593571D01*
X73611367Y-44738342D01*
X73736657Y-44863632D01*
X73887477Y-44956659D01*
X74055671Y-45012393D01*
X74159497Y-45023000D01*
X74556000Y-45023000D01*
X74556000Y-43794000D01*
X75064000Y-43794000D01*
X75064000Y-45023000D01*
X75460503Y-45023000D01*
X75564328Y-45012393D01*
X75732522Y-44956659D01*
X75883342Y-44863632D01*
X76008632Y-44738342D01*
X76101659Y-44587522D01*
X76157393Y-44419328D01*
X76168000Y-44315503D01*
X76168000Y-43794000D01*
X75064000Y-43794000D01*
X74556000Y-43794000D01*
X74556000Y-42057000D01*
X75064000Y-42057000D01*
X75064000Y-43286000D01*
X76168000Y-43286000D01*
X76168000Y-42764497D01*
X76157393Y-42660671D01*
X76101659Y-42492477D01*
X76008632Y-42341657D01*
X75883342Y-42216367D01*
X75732522Y-42123340D01*
X75564328Y-42067606D01*
X75460503Y-42057000D01*
X75064000Y-42057000D01*
X74556000Y-42057000D01*
X74159497Y-42057000D01*
X74055671Y-42067606D01*
X73887477Y-42123340D01*
X73736657Y-42216367D01*
X73611367Y-42341657D01*
X73521300Y-42487680D01*
X73481194Y-42528158D01*
X73427358Y-42546829D01*
X73370802Y-42539875D01*
X73323092Y-42508717D01*
X73210772Y-42391524D01*
X73112472Y-42318822D01*
X73024847Y-42254015D01*
X72818357Y-42149905D01*
X72818356Y-42149904D01*
X72818355Y-42149904D01*
X72597240Y-42082188D01*
X72367864Y-42052815D01*
X72136824Y-42062630D01*
X71910762Y-42111350D01*
X71696189Y-42197573D01*
X71696187Y-42197574D01*
X71634106Y-42235799D01*
X71499268Y-42318822D01*
X71325678Y-42471600D01*
X71325676Y-42471602D01*
X71270550Y-42539875D01*
X71180397Y-42651527D01*
X71168550Y-42672734D01*
X71124612Y-42718575D01*
X71063898Y-42737168D01*
X71001825Y-42723789D01*
X70954160Y-42681837D01*
X70870786Y-42558480D01*
X70710772Y-42391524D01*
X70612472Y-42318822D01*
X70524847Y-42254015D01*
X70318357Y-42149905D01*
X70318356Y-42149904D01*
X70318355Y-42149904D01*
X70097240Y-42082188D01*
X69867864Y-42052815D01*
X69636824Y-42062630D01*
X69410762Y-42111350D01*
X69196189Y-42197573D01*
X69196187Y-42197574D01*
X69134106Y-42235799D01*
X68999268Y-42318822D01*
X68825678Y-42471600D01*
X68825676Y-42471602D01*
X68770550Y-42539875D01*
X68680397Y-42651527D01*
X68668550Y-42672734D01*
X68624612Y-42718575D01*
X68563898Y-42737168D01*
X68501825Y-42723789D01*
X68454160Y-42681837D01*
X68370786Y-42558480D01*
X68210772Y-42391524D01*
X68112472Y-42318822D01*
X68024847Y-42254015D01*
X67818357Y-42149905D01*
X67818356Y-42149904D01*
X67818355Y-42149904D01*
X67597240Y-42082188D01*
X67367864Y-42052815D01*
X67136824Y-42062630D01*
X66910762Y-42111350D01*
X66696189Y-42197573D01*
X66696187Y-42197574D01*
X66634106Y-42235799D01*
X66499268Y-42318822D01*
X66325678Y-42471600D01*
X66180399Y-42651524D01*
X66067620Y-42853408D01*
X66067620Y-42853409D01*
X65990581Y-43071450D01*
X65953794Y-43286000D01*
X65951500Y-43299377D01*
X65951500Y-43722714D01*
X63525500Y-43722714D01*
X63525500Y-39048638D01*
X64631500Y-39048638D01*
X64638011Y-39109201D01*
X64649431Y-39139818D01*
X64689111Y-39246205D01*
X64776738Y-39363261D01*
X64893794Y-39450888D01*
X64893795Y-39450888D01*
X64893796Y-39450889D01*
X65030799Y-39501989D01*
X65091362Y-39508500D01*
X66500406Y-39508500D01*
X66548624Y-39518091D01*
X66589501Y-39545405D01*
X66802751Y-39758655D01*
X66815834Y-39774985D01*
X66867665Y-39823656D01*
X66870477Y-39826381D01*
X66890230Y-39846134D01*
X66892183Y-39847649D01*
X66893424Y-39848612D01*
X66902444Y-39856316D01*
X66934679Y-39886586D01*
X66952435Y-39896347D01*
X66968951Y-39907196D01*
X66984959Y-39919613D01*
X67025525Y-39937167D01*
X67036188Y-39942391D01*
X67074935Y-39963693D01*
X67074937Y-39963693D01*
X67074940Y-39963695D01*
X67094574Y-39968736D01*
X67113259Y-39975134D01*
X67131855Y-39983181D01*
X67175530Y-39990098D01*
X67187125Y-39992498D01*
X67229970Y-40003500D01*
X67250224Y-40003500D01*
X67269934Y-40005051D01*
X67289942Y-40008220D01*
X67289942Y-40008219D01*
X67289943Y-40008220D01*
X67333961Y-40004058D01*
X67345819Y-40003500D01*
X75366705Y-40003500D01*
X75414923Y-40013091D01*
X75455799Y-40040404D01*
X77886994Y-42471600D01*
X80174053Y-44758659D01*
X80187132Y-44774983D01*
X80189298Y-44777017D01*
X80189299Y-44777018D01*
X80215264Y-44801401D01*
X80238948Y-44823641D01*
X80241759Y-44826365D01*
X80261529Y-44846135D01*
X80264742Y-44848627D01*
X80273732Y-44856306D01*
X80305978Y-44886586D01*
X80323725Y-44896342D01*
X80340249Y-44907196D01*
X80356258Y-44919614D01*
X80396841Y-44937175D01*
X80407492Y-44942393D01*
X80446239Y-44963695D01*
X80465859Y-44968732D01*
X80484566Y-44975137D01*
X80491179Y-44977998D01*
X80503153Y-44983181D01*
X80513804Y-44984867D01*
X80546829Y-44990098D01*
X80558424Y-44992498D01*
X80601269Y-45003500D01*
X80621523Y-45003500D01*
X80641233Y-45005051D01*
X80661241Y-45008220D01*
X80661241Y-45008219D01*
X80661242Y-45008220D01*
X80705260Y-45004058D01*
X80717118Y-45003500D01*
X81195109Y-45003500D01*
X81255078Y-45018686D01*
X81300592Y-45060585D01*
X81320679Y-45119095D01*
X81310496Y-45180114D01*
X81261177Y-45292548D01*
X81213455Y-45480999D01*
X81213456Y-45481000D01*
X83886544Y-45481000D01*
X83886544Y-45480999D01*
X83838822Y-45292548D01*
X83787605Y-45175785D01*
X83778479Y-45105873D01*
X83808339Y-45042004D01*
X83867836Y-45004175D01*
X83899334Y-44995023D01*
X83918698Y-44991012D01*
X83938797Y-44988474D01*
X83979915Y-44972193D01*
X83991117Y-44968357D01*
X84033593Y-44956018D01*
X84051039Y-44945699D01*
X84068780Y-44937009D01*
X84087617Y-44929552D01*
X84123392Y-44903558D01*
X84133303Y-44897048D01*
X84171362Y-44874542D01*
X84185691Y-44860212D01*
X84200719Y-44847377D01*
X84217107Y-44835472D01*
X84245303Y-44801386D01*
X84253272Y-44792630D01*
X89288658Y-39757244D01*
X89304979Y-39744170D01*
X89307014Y-39742002D01*
X89307018Y-39742000D01*
X89353677Y-39692311D01*
X89356368Y-39689534D01*
X89376134Y-39669770D01*
X89378605Y-39666583D01*
X89386312Y-39657559D01*
X89416586Y-39625321D01*
X89426343Y-39607570D01*
X89437199Y-39591043D01*
X89449613Y-39575041D01*
X89449613Y-39575039D01*
X89459372Y-39562460D01*
X89460210Y-39563110D01*
X89473013Y-39544480D01*
X89513564Y-39517841D01*
X89561174Y-39508500D01*
X89848638Y-39508500D01*
X89909201Y-39501989D01*
X90046204Y-39450889D01*
X90163261Y-39363261D01*
X90250889Y-39246204D01*
X90301989Y-39109201D01*
X90308500Y-39048638D01*
X90308500Y-37151362D01*
X90301989Y-37090799D01*
X90250889Y-36953796D01*
X90223201Y-36916809D01*
X90163261Y-36836738D01*
X90046205Y-36749111D01*
X89977702Y-36723560D01*
X89909201Y-36698011D01*
X89848638Y-36691500D01*
X87951362Y-36691500D01*
X87890799Y-36698011D01*
X87753794Y-36749111D01*
X87636738Y-36836738D01*
X87549109Y-36953796D01*
X87525741Y-37016449D01*
X87489210Y-37068488D01*
X87431920Y-37096063D01*
X87368460Y-37092154D01*
X87326549Y-37065193D01*
X87325459Y-37066595D01*
X87261032Y-37016449D01*
X87133017Y-36916810D01*
X87101779Y-36899904D01*
X86927726Y-36805712D01*
X86762852Y-36749111D01*
X86706951Y-36729920D01*
X86476712Y-36691500D01*
X86243288Y-36691500D01*
X86013049Y-36729920D01*
X86013046Y-36729920D01*
X86013046Y-36729921D01*
X85792273Y-36805712D01*
X85586984Y-36916809D01*
X85402779Y-37060182D01*
X85244684Y-37231919D01*
X85117016Y-37427330D01*
X85023250Y-37641094D01*
X84965950Y-37867369D01*
X84965949Y-37867374D01*
X84946673Y-38100000D01*
X84965949Y-38332626D01*
X84965949Y-38332629D01*
X84965950Y-38332630D01*
X85023250Y-38558905D01*
X85117016Y-38772669D01*
X85242685Y-38965021D01*
X85244686Y-38968083D01*
X85402780Y-39139818D01*
X85586983Y-39283190D01*
X85792273Y-39394287D01*
X86013049Y-39470080D01*
X86243288Y-39508500D01*
X86476709Y-39508500D01*
X86476712Y-39508500D01*
X86706951Y-39470080D01*
X86927727Y-39394287D01*
X87133017Y-39283190D01*
X87317220Y-39139818D01*
X87317221Y-39139816D01*
X87325459Y-39133405D01*
X87326550Y-39134806D01*
X87368451Y-39107847D01*
X87431915Y-39103934D01*
X87489208Y-39131509D01*
X87525742Y-39183550D01*
X87549111Y-39246206D01*
X87636738Y-39363261D01*
X87665644Y-39384900D01*
X87708191Y-39441736D01*
X87713255Y-39512551D01*
X87679230Y-39574863D01*
X84123595Y-43130500D01*
X84073436Y-43161238D01*
X84014789Y-43165854D01*
X83960439Y-43143341D01*
X83922233Y-43098608D01*
X83908500Y-43041405D01*
X83908500Y-42296362D01*
X83903947Y-42254015D01*
X83901989Y-42235799D01*
X83850889Y-42098796D01*
X83850888Y-42098794D01*
X83763261Y-41981738D01*
X83646205Y-41894111D01*
X83577702Y-41868560D01*
X83509201Y-41843011D01*
X83448638Y-41836500D01*
X83309500Y-41836500D01*
X83246500Y-41819619D01*
X83200381Y-41773500D01*
X83183500Y-41710500D01*
X83183500Y-39453854D01*
X83185795Y-39433064D01*
X83183562Y-39362002D01*
X83183500Y-39358044D01*
X83183500Y-39330149D01*
X83183500Y-39330144D01*
X83182993Y-39326138D01*
X83182062Y-39314305D01*
X83180674Y-39270111D01*
X83175019Y-39250647D01*
X83171013Y-39231307D01*
X83168474Y-39211203D01*
X83152195Y-39170087D01*
X83148356Y-39158872D01*
X83142820Y-39139818D01*
X83136019Y-39116407D01*
X83131757Y-39109200D01*
X83125703Y-39098964D01*
X83117007Y-39081214D01*
X83109552Y-39062383D01*
X83083554Y-39026600D01*
X83077058Y-39016710D01*
X83054542Y-38978638D01*
X83040212Y-38964308D01*
X83027378Y-38949281D01*
X83015472Y-38932893D01*
X83015471Y-38932892D01*
X82981394Y-38904700D01*
X82972616Y-38896712D01*
X79687121Y-35611216D01*
X79662490Y-35576365D01*
X79650907Y-35535296D01*
X79633542Y-35370072D01*
X79574527Y-35188444D01*
X79574527Y-35188443D01*
X79479041Y-35023057D01*
X79351252Y-34881133D01*
X79196753Y-34768883D01*
X79196752Y-34768882D01*
X79022288Y-34691206D01*
X78835487Y-34651500D01*
X78644513Y-34651500D01*
X78519979Y-34677970D01*
X78457711Y-34691206D01*
X78283246Y-34768883D01*
X78128747Y-34881133D01*
X78000958Y-35023057D01*
X77905472Y-35188443D01*
X77846458Y-35370070D01*
X77826496Y-35559999D01*
X77846458Y-35749929D01*
X77905472Y-35931556D01*
X78000958Y-36096942D01*
X78000960Y-36096944D01*
X78128747Y-36238866D01*
X78283248Y-36351118D01*
X78457712Y-36428794D01*
X78644513Y-36468500D01*
X78700406Y-36468500D01*
X78748624Y-36478091D01*
X78789501Y-36505405D01*
X81879595Y-39595499D01*
X81906909Y-39636376D01*
X81916500Y-39684594D01*
X81916500Y-41710500D01*
X81899619Y-41773500D01*
X81853500Y-41819619D01*
X81790500Y-41836500D01*
X81651362Y-41836500D01*
X81590799Y-41843011D01*
X81453794Y-41894111D01*
X81336738Y-41981738D01*
X81249111Y-42098794D01*
X81198011Y-42235799D01*
X81191500Y-42296362D01*
X81191500Y-43610500D01*
X81174619Y-43673500D01*
X81128500Y-43719619D01*
X81065500Y-43736500D01*
X80995893Y-43736500D01*
X80947675Y-43726909D01*
X80906798Y-43699595D01*
X76188543Y-38981339D01*
X76175470Y-38965021D01*
X76158704Y-38949277D01*
X76123647Y-38916356D01*
X76120836Y-38913632D01*
X76101069Y-38893865D01*
X76097874Y-38891386D01*
X76088852Y-38883681D01*
X76056619Y-38853413D01*
X76038866Y-38843653D01*
X76022340Y-38832797D01*
X76006340Y-38820386D01*
X75965765Y-38802828D01*
X75955103Y-38797604D01*
X75916362Y-38776305D01*
X75902198Y-38772669D01*
X75896736Y-38771266D01*
X75878030Y-38764862D01*
X75859444Y-38756819D01*
X75815774Y-38749902D01*
X75804152Y-38747495D01*
X75761329Y-38736500D01*
X75761328Y-38736500D01*
X75741075Y-38736500D01*
X75721365Y-38734949D01*
X75701356Y-38731779D01*
X75657338Y-38735941D01*
X75645480Y-38736500D01*
X70031706Y-38736500D01*
X69971736Y-38721313D01*
X69926222Y-38679414D01*
X69906136Y-38620903D01*
X69914769Y-38569175D01*
X69914186Y-38569028D01*
X69915968Y-38561987D01*
X69916320Y-38559884D01*
X69916749Y-38558907D01*
X69974051Y-38332626D01*
X69993327Y-38100000D01*
X69974051Y-37867374D01*
X69916749Y-37641093D01*
X69822984Y-37427331D01*
X69695314Y-37231917D01*
X69537220Y-37060182D01*
X69353017Y-36916810D01*
X69321779Y-36899904D01*
X69147726Y-36805712D01*
X68982852Y-36749111D01*
X68926951Y-36729920D01*
X68696712Y-36691500D01*
X68463288Y-36691500D01*
X68233049Y-36729920D01*
X68233046Y-36729920D01*
X68233046Y-36729921D01*
X68012273Y-36805712D01*
X67806984Y-36916809D01*
X67614541Y-37066595D01*
X67613451Y-37065195D01*
X67571530Y-37092158D01*
X67508072Y-37096062D01*
X67450786Y-37068485D01*
X67414257Y-37016448D01*
X67390888Y-36953794D01*
X67303261Y-36836738D01*
X67186205Y-36749111D01*
X67117702Y-36723560D01*
X67049201Y-36698011D01*
X66988638Y-36691500D01*
X65091362Y-36691500D01*
X65030799Y-36698011D01*
X64893794Y-36749111D01*
X64776738Y-36836738D01*
X64689111Y-36953794D01*
X64665742Y-37016449D01*
X64638011Y-37090799D01*
X64631500Y-37151362D01*
X64631500Y-39048638D01*
X63525500Y-39048638D01*
X63525500Y-32962135D01*
X81062815Y-32962135D01*
X81072630Y-33193175D01*
X81121350Y-33419237D01*
X81165198Y-33528357D01*
X81207574Y-33633813D01*
X81328821Y-33830730D01*
X81481602Y-34004324D01*
X81661524Y-34149600D01*
X81863409Y-34262380D01*
X82081450Y-34339419D01*
X82309375Y-34378500D01*
X82732713Y-34378500D01*
X82732714Y-34378500D01*
X82905418Y-34363801D01*
X82905417Y-34363801D01*
X83129207Y-34305530D01*
X83339929Y-34210278D01*
X83531523Y-34080783D01*
X83698476Y-33920772D01*
X83835985Y-33734847D01*
X83940095Y-33528357D01*
X84007811Y-33307243D01*
X84037184Y-33077865D01*
X84027369Y-32846822D01*
X83978649Y-32620762D01*
X83892426Y-32406187D01*
X83771179Y-32209270D01*
X83618398Y-32035676D01*
X83438476Y-31890400D01*
X83438475Y-31890399D01*
X83438471Y-31890396D01*
X83417270Y-31878553D01*
X83371426Y-31834617D01*
X83352832Y-31773901D01*
X83366209Y-31711827D01*
X83408161Y-31664161D01*
X83531523Y-31580783D01*
X83698476Y-31420772D01*
X83835985Y-31234847D01*
X83940095Y-31028357D01*
X84007811Y-30807243D01*
X84037184Y-30577865D01*
X84027369Y-30346822D01*
X83978649Y-30120762D01*
X83892426Y-29906187D01*
X83771179Y-29709270D01*
X83618398Y-29535676D01*
X83590562Y-29513200D01*
X83554369Y-29465869D01*
X83543970Y-29407199D01*
X83561692Y-29350311D01*
X83603572Y-29307927D01*
X83748341Y-29218633D01*
X83873632Y-29093342D01*
X83966659Y-28942522D01*
X84022393Y-28774328D01*
X84033000Y-28670503D01*
X84033000Y-28274000D01*
X81067000Y-28274000D01*
X81067000Y-28670503D01*
X81077606Y-28774328D01*
X81133340Y-28942522D01*
X81226367Y-29093342D01*
X81351658Y-29218633D01*
X81497679Y-29308699D01*
X81538158Y-29348805D01*
X81556829Y-29402641D01*
X81549875Y-29459197D01*
X81518718Y-29506906D01*
X81401525Y-29619226D01*
X81264015Y-29805153D01*
X81159904Y-30011644D01*
X81092188Y-30232759D01*
X81062815Y-30462135D01*
X81072630Y-30693175D01*
X81121350Y-30919237D01*
X81165198Y-31028357D01*
X81207574Y-31133813D01*
X81328821Y-31330730D01*
X81481602Y-31504324D01*
X81661524Y-31649600D01*
X81681636Y-31660835D01*
X81682731Y-31661447D01*
X81728574Y-31705385D01*
X81747167Y-31766100D01*
X81733790Y-31828173D01*
X81691838Y-31875839D01*
X81568478Y-31959216D01*
X81401524Y-32119227D01*
X81264015Y-32305153D01*
X81159904Y-32511644D01*
X81092188Y-32732759D01*
X81062815Y-32962135D01*
X63525500Y-32962135D01*
X63525500Y-27940000D01*
X65954341Y-27940000D01*
X65974937Y-28175409D01*
X66036096Y-28403662D01*
X66135965Y-28617829D01*
X66271507Y-28811404D01*
X66438595Y-28978492D01*
X66438598Y-28978494D01*
X66438599Y-28978495D01*
X66632171Y-29114035D01*
X66846337Y-29213903D01*
X67074592Y-29275063D01*
X67251034Y-29290500D01*
X67368960Y-29290500D01*
X67368966Y-29290500D01*
X67545408Y-29275063D01*
X67773663Y-29213903D01*
X67987829Y-29114035D01*
X68181401Y-28978495D01*
X68348495Y-28811401D01*
X68484035Y-28617830D01*
X68583903Y-28403663D01*
X68645063Y-28175408D01*
X68665659Y-27940000D01*
X68650436Y-27766000D01*
X81067000Y-27766000D01*
X82296000Y-27766000D01*
X82296000Y-26662000D01*
X82804000Y-26662000D01*
X82804000Y-27766000D01*
X84033000Y-27766000D01*
X84033000Y-27369497D01*
X84022393Y-27265671D01*
X83966659Y-27097477D01*
X83873632Y-26946657D01*
X83748342Y-26821367D01*
X83597522Y-26728340D01*
X83429328Y-26672606D01*
X83325503Y-26662000D01*
X82804000Y-26662000D01*
X82296000Y-26662000D01*
X81774497Y-26662000D01*
X81670671Y-26672606D01*
X81502477Y-26728340D01*
X81351657Y-26821367D01*
X81226367Y-26946657D01*
X81133340Y-27097477D01*
X81077606Y-27265671D01*
X81067000Y-27369497D01*
X81067000Y-27766000D01*
X68650436Y-27766000D01*
X68645063Y-27704592D01*
X68583903Y-27476337D01*
X68484035Y-27262171D01*
X68348495Y-27068599D01*
X68348494Y-27068598D01*
X68348492Y-27068595D01*
X68181404Y-26901507D01*
X67987829Y-26765965D01*
X67773662Y-26666096D01*
X67545409Y-26604937D01*
X67520201Y-26602731D01*
X67368966Y-26589500D01*
X67251034Y-26589500D01*
X67118702Y-26601077D01*
X67074590Y-26604937D01*
X66846337Y-26666096D01*
X66632170Y-26765965D01*
X66438595Y-26901507D01*
X66271507Y-27068595D01*
X66135965Y-27262169D01*
X66036096Y-27476336D01*
X65974937Y-27704590D01*
X65954341Y-27940000D01*
X63525500Y-27940000D01*
X63525500Y-24281500D01*
X63542381Y-24218500D01*
X63588500Y-24172381D01*
X63651500Y-24155500D01*
X91288500Y-24155500D01*
X91351500Y-24172381D01*
G37*
%TD.AperFunction*%
%TD*%
M02*
